<svg version="1.2" baseProfile="tiny" xmlns="http://www.w3.org/2000/svg" viewBox="221.5 721.2 100 70"><path fill="none" stroke="#CCC" stroke-width=".25" stroke-miterlimit="10" d="M230.9 766.8l7.1-7.5 72.1 3.7m-79.6-11.8l7.1-7.5 72.1 3.8"/><path fill="none" stroke="#CCC" stroke-width=".25" stroke-miterlimit="10" d="M255.3 783.7l7.1-7.6-1.2-46.7m18.2 55.5l7.1-7.5-1.3-46.8"/><path fill="none" stroke="#CCC" stroke-width=".25" stroke-miterlimit="10" d="M303.4 786.2l7.1-7.6-72.1-3.8-7.1 7.6"/><path fill="#5B85AE" d="M244.5 768.6l.3 10.7-5.8-.3-.3-10.7z"/><path fill="#5982AA" d="M244.5 768.6l2.6-2.8.3 10.7-2.6 2.8z"/><path fill="#577FA6" d="M238.7 768.3l2.6-2.8 5.8.3-2.6 2.8z"/><path fill="#313135" d="M252.5 737.3l1.2 42.5-5.8-.3-1.2-42.5z"/><path fill="#303034" d="M252.5 737.3l2.7-2.8 1.1 42.5-2.6 2.8z"/><path fill="#2F2F33" d="M246.7 737l2.7-2.8 5.8.3-2.7 2.8z"/><path fill="#5B85AE" d="M268.2 749.8l.8 30.8-5.8-.3-.8-30.8z"/><path fill="#5982AA" d="M268.2 749.8l2.6-2.8.8 30.8-2.6 2.8z"/><path fill="#577FA6" d="M262.4 749.5l2.6-2.8 5.8.3-2.6 2.8z"/><path fill="#313135" d="M277.4 761l.5 20.1-5.8-.3-.5-20.1z"/><path fill="#303034" d="M277.4 761l2.6-2.8.5 20.1-2.6 2.8z"/><path fill="#2F2F33" d="M271.6 760.7l2.6-2.8 5.8.3-2.6 2.8z"/><path fill="#5B85AE" d="M292.1 738.4l1.1 43.5-5.8-.3-1.1-43.5z"/><path fill="#5982AA" d="M292.1 738.4l2.6-2.8 1.2 43.5-2.7 2.8z"/><path fill="#577FA6" d="M286.3 738.1l2.6-2.8 5.8.3-2.6 2.8z"/><path fill="#313135" d="M301.9 771.6l.2 10.7-5.7-.3-.3-10.7z"/><path fill="#303034" d="M301.9 771.6l2.6-2.8.3 10.8-2.7 2.7z"/><path fill="#2F2F33" d="M296.1 771.3l2.6-2.8 5.8.3-2.6 2.8z"/><path fill="none" stroke="#CCC" stroke-width=".25" stroke-miterlimit="10" d="M238.4 774.8l-1.2-46.7m73.3 50.5l-1.2-46.7-72.1-3.8-7.1 7.5"/></svg>