<svg class="highcharts-root" xmlns="http://www.w3.org/2000/svg" width="100" viewBox="0 0 100 70" height="70" font-family="'lucida grande','lucida sans unicode',arial,helvetica,sans-serif" font-size="12"><defs><clipPath id="a"><path fill="none" d="M0 0h100v70H0z"/></clipPath></defs><rect fill="#fff" class="highcharts-background" width="100" height="70" rx="0" ry="0"/><path fill="none" class="highcharts-plot-background" d="M0 0h100v70H0z"/><g stroke-linejoin="round" class="highcharts-3d-frame highcharts-3d-frame-back"><path fill="none" d="M87.52 8.68l-1.162 41.533.096-.172L87.617 8.57z" class="highcharts-3d-side"/><path fill="none" d="M87.52 8.68l.097-.11-58.75-2.855-.185.101z" class="highcharts-3d-top"/><path fill="none" d="M29.315 45.739l57.043 4.474L87.52 8.68 28.682 5.816z" class="highcharts-3d-front"/></g><g stroke-linejoin="round" class="highcharts-3d-frame highcharts-3d-frame-side"><path fill="none" d="M8.285 64.411l.629.06-1.49-46.614-.65-.038z" class="highcharts-3d-front"/><path fill="none" d="M7.424 17.857L29.24 5.843l-.558-.027L6.774 17.819z" class="highcharts-3d-top"/><path fill="none" d="M7.424 17.857l1.49 46.613 20.943-18.689-.617-39.938z" class="highcharts-3d-side"/></g><g stroke-linejoin="round" class="highcharts-3d-frame highcharts-3d-frame-bottom"><path fill="none" d="M8.914 64.47l65.993 6.192.013-.662-66.027-6.164z" class="highcharts-3d-front"/><path fill="none" d="M74.92 70l-.013.662 11.45-20.45.017-.566z" class="highcharts-3d-side"/><path fill="none" d="M74.92 70l11.454-20.354-56.525-4.41-20.956 18.6z" class="highcharts-3d-top"/></g><g class="highcharts-grid highcharts-xaxis-grid"><path fill="none" stroke="#e6e6e6" class="highcharts-grid-line" d="M47.641 6.739l.07 39.89-18.06 19.145M67.44 7.703l-.525 40.424-14.838 19.74M87.216 8.665l-1.137 40.958-11.506 20.345M28.961 5.83l.617 39.384L8.579 63.807"/></g><g class="highcharts-grid highcharts-yaxis-grid"><path fill="none" stroke="#e6e6e6" class="highcharts-grid-line" d="M8.903 64.153l20.95-18.645 56.513 4.421M7.413 17.517L29.236 5.553l58.292 2.825"/></g><path fill="none" class="highcharts-plot-border" d="M0 0h100v70H0z"/><g class="highcharts-series-group"><g class="highcharts-series highcharts-series-0 highcharts-column-series highcharts-color-0" clip-path="url(#a)"><g stroke-linejoin="round" class="highcharts-point highcharts-color-0" stroke="#7cb5ec"><path fill="#7cb5ec" d="M13.874 64.375l5.077.475-.437-18.09-5.146-.41z" class="highcharts-3d-front"/><path fill="#95CEFF" d="M18.514 46.76l5.6-4.602-4.944-.376-5.802 4.567z" class="highcharts-3d-top"/><path fill="#639CD3" d="M18.514 46.76l.437 18.09 5.508-5.314-.344-17.378z" class="highcharts-3d-side"/></g><g stroke-linejoin="round" class="highcharts-point highcharts-color-0" stroke="#7cb5ec"><path fill="#7cb5ec" d="M35.07 66.355l5.24.49-.104-13.718-5.296-.44z" class="highcharts-3d-front"/><path fill="#95CEFF" d="M40.206 53.127l4.718-4.937-5.083-.403-4.93 4.9z" class="highcharts-3d-top"/><path fill="#639CD3" d="M40.206 53.127l.104 13.718 4.665-5.483-.051-13.172z" class="highcharts-3d-side"/></g><g stroke-linejoin="round" class="highcharts-point highcharts-color-0" stroke="#7cb5ec"><path fill="#7cb5ec" d="M56.954 68.4l5.412.505.045-4.607-5.433-.49z" class="highcharts-3d-front"/><path fill="#95CEFF" d="M62.41 64.298l3.777-5.475-5.207-.446-4.002 5.432z" class="highcharts-3d-top"/><path fill="#639CD3" d="M62.41 64.298l-.044 4.607 3.765-5.659.056-4.423z" class="highcharts-3d-side"/></g></g><g class="highcharts-series highcharts-series-1 highcharts-column-series highcharts-color-1" clip-path="url(#a)"><g stroke-linejoin="round" class="highcharts-point highcharts-color-1" stroke="#434348"><path fill="#434348" d="M20.226 64.969l5.126.479-.173-9.021-5.161-.448z" class="highcharts-3d-front"/><path fill="#5C5C61" d="M25.179 56.427l5.3-5.01-4.957-.41-5.504 4.972z" class="highcharts-3d-top"/><path fill="#2A2A2F" d="M25.179 56.427l.173 9.02 5.258-5.364-.13-8.667z" class="highcharts-3d-side"/></g><g stroke-linejoin="round" class="highcharts-point highcharts-color-1" stroke="#434348"><path fill="#434348" d="M41.627 66.968l5.292.494-.056-23.13-5.387-.412z" class="highcharts-3d-front"/><path fill="#5C5C61" d="M46.863 44.332l4.477-4.604-5.166-.376-4.698 4.568z" class="highcharts-3d-top"/><path fill="#2A2A2F" d="M46.863 44.332l.056 23.13 4.398-5.535.023-22.2z" class="highcharts-3d-side"/></g><g stroke-linejoin="round" class="highcharts-point highcharts-color-1" stroke="#434348"><path fill="#434348" d="M63.726 69.032l5.467.51.57-37.983-5.631-.37z" class="highcharts-3d-front"/><path fill="#5C5C61" d="M69.762 31.559l3.553-4.145-5.388-.338-3.795 4.112z" class="highcharts-3d-top"/><path fill="#2A2A2F" d="M69.762 31.559l-.57 37.984 3.481-5.714.642-36.415z" class="highcharts-3d-side"/></g></g></g></svg>