<svg class="highcharts-root" xmlns="http://www.w3.org/2000/svg" width="100" viewBox="0 0 100 70" height="70" font-family="'lucida grande','lucida sans unicode',arial,helvetica,sans-serif" font-size="12"><defs><clipPath id="a"><path fill="none" d="M0 0h100v70H0z"/></clipPath></defs><rect fill="#fff" class="highcharts-background" width="100" height="70" rx="0" ry="0"/><path fill="none" class="highcharts-plot-background" d="M0 0h100v70H0z"/><g stroke-linejoin="round" class="highcharts-3d-frame highcharts-3d-frame-back"><path fill="none" d="M87.52 8.68l-1.162 41.533.096-.172L87.617 8.57z" class="highcharts-3d-side"/><path fill="none" d="M87.52 8.68l.097-.11-58.75-2.855-.185.101z" class="highcharts-3d-top"/><path fill="none" d="M29.315 45.739l57.043 4.474L87.52 8.68 28.682 5.816z" class="highcharts-3d-front"/></g><g stroke-linejoin="round" class="highcharts-3d-frame highcharts-3d-frame-side"><path fill="none" d="M8.285 64.411l.629.06-1.49-46.614-.65-.038z" class="highcharts-3d-front"/><path fill="none" d="M7.424 17.857L29.24 5.843l-.558-.027L6.774 17.819z" class="highcharts-3d-top"/><path fill="none" d="M7.424 17.857l1.49 46.613 20.943-18.689-.617-39.938z" class="highcharts-3d-side"/></g><g stroke-linejoin="round" class="highcharts-3d-frame highcharts-3d-frame-bottom"><path fill="none" d="M8.914 64.47l65.993 6.192.013-.662-66.027-6.164z" class="highcharts-3d-front"/><path fill="none" d="M74.92 70l-.013.662 11.45-20.45.017-.566z" class="highcharts-3d-side"/><path fill="none" d="M74.92 70l11.454-20.354-56.525-4.41-20.956 18.6z" class="highcharts-3d-top"/></g><g class="highcharts-grid highcharts-xaxis-grid"><path fill="none" stroke="#e6e6e6" class="highcharts-grid-line" d="M47.641 6.739l.07 39.89-18.06 19.145M67.44 7.703l-.525 40.424-14.838 19.74M87.216 8.665l-1.137 40.958-11.506 20.345M28.961 5.83l.617 39.384L8.579 63.807"/></g><g class="highcharts-grid highcharts-yaxis-grid"><path fill="none" stroke="#e6e6e6" class="highcharts-grid-line" d="M8.903 64.153l20.95-18.645 56.513 4.421M7.413 17.517L29.236 5.553l58.292 2.825"/></g><path fill="none" class="highcharts-plot-border" d="M0 0h100v70H0z"/><g class="highcharts-series-group"><g class="highcharts-series highcharts-series-1 highcharts-column-series highcharts-color-1" clip-path="url(#a)"><g stroke-linejoin="round" class="highcharts-point highcharts-color-1" stroke="#434348"><path fill="#434348" d="M14.507 64.435l10.202.953-.178-9.017-10.272-.89z" class="highcharts-3d-front"/><path fill="#5C5C61" d="M24.531 56.37l5.327-5.005-9.87-.815-5.729 4.93z" class="highcharts-3d-top"/><path fill="#2A2A2F" d="M24.531 56.37l.178 9.018 5.283-5.36-.134-8.663z" class="highcharts-3d-side"/></g><g stroke-linejoin="round" class="highcharts-point highcharts-color-1" stroke="#434348"><path fill="#434348" d="M35.722 66.416l10.533.984-.068-23.12-10.72-.819z" class="highcharts-3d-front"/><path fill="#5C5C61" d="M46.187 44.28l4.505-4.6-10.283-.748-4.942 4.53z" class="highcharts-3d-top"/><path fill="#2A2A2F" d="M46.187 44.28l.068 23.12 4.425-5.53.012-22.19z" class="highcharts-3d-side"/></g><g stroke-linejoin="round" class="highcharts-point highcharts-color-1" stroke="#434348"><path fill="#434348" d="M57.628 68.462l10.88 1.017.548-37.966-11.204-.738z" class="highcharts-3d-front"/><path fill="#5C5C61" d="M69.056 31.513l3.583-4.141-10.725-.673-4.062 4.076z" class="highcharts-3d-top"/><path fill="#2A2A2F" d="M69.056 31.513l-.549 37.966 3.51-5.709.622-36.398z" class="highcharts-3d-side"/></g></g><g class="highcharts-series highcharts-series-0 highcharts-column-series highcharts-color-0" clip-path="url(#a)"><g stroke-linejoin="round" class="highcharts-point highcharts-color-0" stroke="#7cb5ec"><path fill="#7cb5ec" d="M14.26 55.48l10.271.89-.362-18.419-10.415-.759z" class="highcharts-3d-front"/><path fill="#95CEFF" d="M24.169 37.951l5.415-4.266-10.002-.694-5.828 4.201z" class="highcharts-3d-top"/><path fill="#639CD3" d="M24.169 37.951l.362 18.42 5.327-5.006-.274-17.68z" class="highcharts-3d-side"/></g><g stroke-linejoin="round" class="highcharts-point highcharts-color-0" stroke="#7cb5ec"><path fill="#7cb5ec" d="M35.467 43.461l10.72.819-.041-14.277-10.837-.713z" class="highcharts-3d-front"/><path fill="#95CEFF" d="M46.146 30.003l4.553-4.007-10.389-.652-5 3.946z" class="highcharts-3d-top"/><path fill="#639CD3" d="M46.146 30.003l.041 14.277 4.505-4.6.007-13.684z" class="highcharts-3d-side"/></g><g stroke-linejoin="round" class="highcharts-point highcharts-color-0" stroke="#7cb5ec"><path fill="#7cb5ec" d="M57.852 30.775l11.204.738.07-4.905-11.245-.7z" class="highcharts-3d-front"/><path fill="#639CD3" d="M69.127 26.608l-.071 4.905 3.583-4.141.08-4.696z" class="highcharts-3d-side"/><path fill="#95CEFF" d="M69.127 26.608l3.593-3.932-10.764-.638-4.075 3.87z" class="highcharts-3d-top"/></g></g></g></svg>