<svg xmlns="http://www.w3.org/2000/svg" class="highcharts-root" width="100" viewBox="0 0 100 70" height="70" font-family="'lucida grande','lucida sans unicode',arial,helvetica,sans-serif" font-size="12"><rect fill="#fff" class="highcharts-background" width="100" height="70" rx="0" ry="0"/><path fill="none" class="highcharts-plot-background" d="M0 0h100v70H0z"/><path fill="none" class="highcharts-plot-border" d="M0 0h100v70H0z"/><g class="highcharts-data-labels highcharts-series-0 highcharts-pie-series highcharts-color-undefined"><path class="highcharts-data-label-connector highcharts-color-0" d="M82.308 35H74.61" fill="none" stroke="#7cb5ec" stroke-width=".469"/><path class="highcharts-data-label-connector highcharts-color-1" d="M13.255 58.552c1.995 0 9.32-11.317 11.531-15.09l2.212-3.772" fill="none" stroke="#434348" stroke-width=".81"/><path class="highcharts-data-label-connector highcharts-color-2" d="M30.14 14.063c1.563 0 9.177 5.118 9.895 7.413l.718 2.295" fill="none" stroke="#90ed7d" stroke-width=".36"/><path d="M15.93 10.726h11.837v4.732H15.93zM84.262 31.5h11.836v4.732H84.261zM.588 56.39h11.836v4.732H.588z" fill="#ccc"/></g><g class="highcharts-series-group"><g class="highcharts-series highcharts-series-1 highcharts-pie-series highcharts-color-undefined"><path d="M67.543 27.642v6.495l-7.432 3.346v-6.495z" class="highcharts-point highcharts-color-0 highcharts-3d-side" fill="#639cd3"/><path d="M54.17 48.232v6.495l-2.082-4.89V43.34z" class="highcharts-point highcharts-color-2 highcharts-3d-side" fill="#77d464"/><path d="M48.959 23.506V30l.002 5v-6.495z" class="highcharts-point highcharts-color-0 highcharts-3d-side" fill="#639cd3"/><path d="M54.17 48.232v6.495l-2.082-4.89V43.34z" class="highcharts-point highcharts-color-1 highcharts-3d-side" fill="#2a2a2f"/><path d="M48.959 23.506c7.366 0 13.656 1.4 18.584 4.136v6.495C62.615 31.4 56.325 30 48.96 30.001z" class="highcharts-point highcharts-color-0 highcharts-3d-side" fill="#639cd3"/><path d="M48.961 28.506c4.42 0 8.193.84 11.15 2.482v6.495C57.154 35.84 53.381 35 48.961 35z" class="highcharts-point highcharts-color-0 highcharts-3d-side" fill="#639cd3"/><path d="M67.543 27.642v6.495l-7.431 3.346v-6.495z" class="highcharts-point highcharts-color-1 highcharts-3d-side" fill="#2a2a2f"/><path d="M48.954 23.506V30l.004 5v-6.495z" class="highcharts-point highcharts-color-2 highcharts-3d-side" fill="#77d464"/><path d="M73.964 36.006c0 5.981-8.093 10.98-19.793 12.226v6.495c11.7-1.246 19.793-6.244 19.793-12.226z" class="highcharts-point highcharts-color-1 highcharts-3d-side" fill="#2a2a2f"/><path d="M60.112 30.988c5.543 3.078 5.045 7.82-1.111 10.592-2.051.923-4.214 1.474-6.913 1.761v6.496c8.103-.863 13.272-4.847 11.547-8.898-.575-1.35-1.677-2.43-3.523-3.456z" class="highcharts-point highcharts-color-1 highcharts-3d-side" fill="#2a2a2f"/><path d="M54.17 48.232c-13.504 1.438-26.782-2.87-29.658-9.623-.384-.902-.548-1.681-.548-2.603V42.5c0-6.902 11.186-12.497 24.99-12.5v-6.495c-13.804.003-24.99 5.598-24.99 12.5V42.5c0 6.904 11.193 12.5 25 12.5a46.77 46.77 0 0 0 5.207-.274z" class="highcharts-point highcharts-color-2 highcharts-3d-side" fill="#77d464"/><path d="M52.088 43.341c-8.103.863-16.07-1.722-17.795-5.773-1.725-4.051 3.444-8.035 11.547-8.898a28.06 28.06 0 0 1 3.118-.164V35c-8.284.002-14.997 3.361-14.994 7.503.003 4.142 6.722 7.499 15.006 7.497 1.104 0 2.038-.05 3.118-.164z" class="highcharts-point highcharts-color-2 highcharts-3d-side" fill="#77d464"/><path d="M48.959 23.506c7.366 0 13.656 1.4 18.584 4.136l-7.432 3.346c-2.957-1.643-6.73-2.483-11.15-2.482z" fill="#7cb5ec" class="highcharts-point highcharts-color-0" stroke="#7cb5ec" stroke-linejoin="round"/><path d="M67.543 27.642c9.239 5.13 8.41 13.034-1.851 17.654-3.418 1.538-7.023 2.457-11.521 2.936l-2.083-4.89c8.103-.863 13.272-4.847 11.547-8.898-.575-1.35-1.677-2.431-3.523-3.456z" fill="#434348" class="highcharts-point highcharts-color-1" stroke="#434348" stroke-linejoin="round"/><path d="M54.17 48.232c-13.504 1.438-26.782-2.87-29.658-9.623-2.875-6.752 5.741-13.391 19.246-14.829a46.58 46.58 0 0 1 5.196-.274l.004 5c-8.284.002-14.997 3.36-14.994 7.503.003 4.142 6.722 7.499 15.006 7.497 1.104 0 2.038-.05 3.118-.165z" fill="#90ed7d" class="highcharts-point highcharts-color-2" stroke="#90ed7d" stroke-linejoin="round"/></g><g class="highcharts-series highcharts-series-0 highcharts-pie-series highcharts-color-undefined"><path d="M48.96 48.506V55l.001-5v-6.495z" class="highcharts-point highcharts-color-0 highcharts-3d-side" fill="#639cd3"/><path d="M31.287 27.167v6.495l7.07 3.536v-6.495zm17.667-3.661V30l.004 5v-6.495z" class="highcharts-point highcharts-color-2 highcharts-3d-side" fill="#77d464"/><path d="M48.959 48.506V55l.002-5v-6.495z" class="highcharts-point highcharts-color-1 highcharts-3d-side" fill="#2a2a2f"/><path d="M31.287 27.167c4.879-2.44 10.767-3.66 17.667-3.661V30c-6.9.002-12.788 1.222-17.667 3.661z" class="highcharts-point highcharts-color-2 highcharts-3d-side" fill="#77d464"/><path d="M38.358 30.703c2.927-1.464 6.46-2.196 10.6-2.197V35c-4.14.001-7.673.733-10.6 2.197z" class="highcharts-point highcharts-color-2 highcharts-3d-side" fill="#77d464"/><path d="M31.286 27.167v6.495l7.071 3.536v-6.495z" class="highcharts-point highcharts-color-1 highcharts-3d-side" fill="#2a2a2f"/><path d="M48.959 23.506V30l.002 5v-6.495z" class="highcharts-point highcharts-color-0 highcharts-3d-side" fill="#639cd3"/><path d="M48.959 48.506c-13.805-.001-24.995-5.597-24.995-12.5V42.5c0-3.452 2.44-6.398 7.322-8.839v-6.495c-4.881 2.44-7.322 5.387-7.322 8.839V42.5c0 6.903 11.19 12.499 24.995 12.5z" class="highcharts-point highcharts-color-1 highcharts-3d-side" fill="#2a2a2f"/><path d="M48.961 43.506c-8.284 0-14.999-3.36-14.997-7.502 0-2.07 1.465-3.837 4.393-5.301v6.495c-5.857 2.929-5.857 7.678 0 10.606 2.929 1.465 6.463 2.197 10.604 2.197z" class="highcharts-point highcharts-color-1 highcharts-3d-side" fill="#2a2a2f"/><path d="M73.964 36.006c0 6.904-11.193 12.5-25 12.5h-.005V55c13.807.001 25.002-5.594 25.005-12.497V42.5z" class="highcharts-point highcharts-color-0 highcharts-3d-side" fill="#639cd3"/><path d="M48.961 28.506c8.284 0 15.001 3.356 15.003 7.498.002 4.143-6.713 7.501-14.997 7.502h-.006V50c8.284 0 15.001-3.356 15.003-7.498.002-4.143-6.713-7.501-14.997-7.502a6 6 0 0 0-.006 0z" class="highcharts-point highcharts-color-0 highcharts-3d-side" fill="#639cd3"/><path d="M48.959 23.506c13.807-.001 25.002 5.594 25.005 12.497.003 6.904-11.188 12.502-24.995 12.503h-.01l.002-5c8.284 0 15.001-3.356 15.003-7.499.002-4.142-6.713-7.5-14.997-7.501h-.006z" fill="#7cb5ec" class="highcharts-point highcharts-color-0" stroke="#7cb5ec" stroke-linejoin="round"/><path d="M48.959 48.506c-13.807-.001-24.998-5.599-24.995-12.503.001-3.45 2.442-6.396 7.322-8.836l7.071 3.536c-5.857 2.929-5.857 7.677 0 10.606 2.929 1.464 6.463 2.197 10.604 2.197z" fill="#434348" class="highcharts-point highcharts-color-1" stroke="#434348" stroke-linejoin="round"/><path d="M31.287 27.167c4.879-2.44 10.767-3.66 17.667-3.661l.004 5c-4.14 0-7.673.733-10.6 2.197z" fill="#90ed7d" class="highcharts-point highcharts-color-2" stroke="#90ed7d" stroke-linejoin="round"/></g></g></svg>