<svg xmlns="http://www.w3.org/2000/svg" class="highcharts-root" width="100" viewBox="0 0 100 70" height="70" font-size="12"><rect class="highcharts-background" width="100" height="70" rx="0" ry="0" fill="#fff"/><path class="highcharts-plot-background" fill="none" d="M0 0h100v70H0z"/><path class="highcharts-plot-border" fill="none" d="M0 0h100v70H0z"/><g class="highcharts-legend" transform="matrix(.5 0 0 .5 16.5 36)"><rect class="highcharts-legend-box" rx="0" ry="0" width="134" height="53" fill="none"/><g class="highcharts-legend-item highcharts-pie-series highcharts-color-0" transform="translate(-28.808 37.365)"><rect x="2" y="4" width="12" height="12" rx="6" ry="6" class="highcharts-point" fill="#7cb5ec"/></g><g class="highcharts-legend-item highcharts-pie-series highcharts-color-1" transform="translate(102.733 37.365)"><rect x="2" y="4" width="12" height="12" rx="6" ry="6" class="highcharts-point" fill="#434348"/></g><g class="highcharts-legend-item highcharts-pie-series highcharts-color-2" transform="translate(33.407 37.365)"><rect x="2" y="4" width="12" height="12" rx="6" ry="6" class="highcharts-point" fill="#90ed7d"/></g></g><path d="M77.158 57.684h10.436v4H77.158zm-34.924 0h10.437v4H42.234zm-31.058.1h10.437v4H11.176z" fill="#ccc"/><g class="highcharts-series-group"><g class="highcharts-series highcharts-series-1 highcharts-pie-series highcharts-color-undefined"><path d="M66.709 20.404V26.9l-7.432 3.346V23.75z" class="highcharts-point highcharts-color-0 highcharts-3d-side" fill="#639cd3"/><path d="M53.336 40.994v6.495l-2.083-4.89v-6.495z" class="highcharts-point highcharts-color-2 highcharts-3d-side" fill="#77d464"/><path d="M48.124 16.268v6.495l.002 5v-6.495z" class="highcharts-point highcharts-color-0 highcharts-3d-side" fill="#639cd3"/><path d="M53.336 40.994v6.495l-2.082-4.89v-6.495z" class="highcharts-point highcharts-color-1 highcharts-3d-side" fill="#2a2a2f"/><path d="M48.124 16.268c7.366 0 13.656 1.4 18.585 4.136V26.9c-4.929-2.737-11.219-4.137-18.585-4.136z" class="highcharts-point highcharts-color-0 highcharts-3d-side" fill="#639cd3"/><path d="M48.126 21.268c4.42 0 8.194.84 11.151 2.482v6.495c-2.957-1.642-6.731-2.482-11.15-2.482z" class="highcharts-point highcharts-color-0 highcharts-3d-side" fill="#639cd3"/><path d="M66.709 20.404V26.9l-7.432 3.346V23.75z" class="highcharts-point highcharts-color-1 highcharts-3d-side" fill="#2a2a2f"/><path d="M48.12 16.268v6.495l.004 5v-6.495z" class="highcharts-point highcharts-color-2 highcharts-3d-side" fill="#77d464"/><path d="M73.13 28.768c0 5.981-8.093 10.98-19.794 12.226v6.495c11.7-1.246 19.794-6.244 19.794-12.226z" class="highcharts-point highcharts-color-1 highcharts-3d-side" fill="#2a2a2f"/><path d="M59.277 23.75c5.543 3.078 5.046 7.82-1.11 10.592-2.052.923-4.215 1.474-6.913 1.762v6.495c8.102-.863 13.272-4.847 11.547-8.898-.575-1.35-1.678-2.43-3.524-3.456z" class="highcharts-point highcharts-color-1 highcharts-3d-side" fill="#2a2a2f"/><path d="M53.336 40.994c-13.504 1.438-26.783-2.87-29.658-9.623-.384-.902-.548-1.681-.548-2.603v6.495c0-6.902 11.186-12.497 24.99-12.5v-6.495c-13.804.003-24.99 5.598-24.99 12.5v6.495c0 6.904 11.192 12.5 25 12.5a46.77 46.77 0 0 0 5.206-.274z" class="highcharts-point highcharts-color-2 highcharts-3d-side" fill="#77d464"/><path d="M51.253 36.104c-8.102.862-16.07-1.723-17.795-5.774-1.725-4.051 3.445-8.035 11.548-8.898a28.06 28.06 0 0 1 3.118-.164v6.495c-8.285.002-14.998 3.361-14.994 7.503.003 4.142 6.721 7.499 15.006 7.497 1.104 0 2.037-.05 3.117-.164z" class="highcharts-point highcharts-color-2 highcharts-3d-side" fill="#77d464"/><path d="M48.124 16.268c7.366 0 13.656 1.4 18.585 4.136l-7.432 3.346c-2.957-1.643-6.731-2.482-11.15-2.482z" fill="#7cb5ec" class="highcharts-point highcharts-color-0" stroke="#7cb5ec" stroke-linejoin="round"/><path d="M66.709 20.404c9.238 5.13 8.41 13.034-1.852 17.654-3.418 1.538-7.023 2.457-11.52 2.936l-2.083-4.89c8.102-.863 13.272-4.847 11.547-8.898-.575-1.35-1.678-2.431-3.524-3.456z" fill="#434348" class="highcharts-point highcharts-color-1" stroke="#434348" stroke-linejoin="round"/><path d="M53.336 40.994c-13.504 1.438-26.783-2.87-29.658-9.623-2.876-6.752 5.74-13.391 19.245-14.829 1.8-.192 3.356-.274 5.197-.274l.004 5c-8.285.002-14.998 3.36-14.994 7.503.003 4.142 6.721 7.499 15.006 7.497 1.104 0 2.037-.05 3.117-.164z" fill="#90ed7d" class="highcharts-point highcharts-color-2" stroke="#90ed7d" stroke-linejoin="round"/></g><g class="highcharts-series highcharts-series-0 highcharts-pie-series highcharts-color-undefined"><path d="M48.125 41.268v6.495l.002-5v-6.495z" class="highcharts-point highcharts-color-0 highcharts-3d-side" fill="#639cd3"/><path d="M30.452 19.93v6.494l7.071 3.536v-6.495zm17.668-3.662v6.495l.004 5v-6.495z" class="highcharts-point highcharts-color-2 highcharts-3d-side" fill="#77d464"/><path d="M48.124 41.268v6.495l.002-5v-6.495z" class="highcharts-point highcharts-color-1 highcharts-3d-side" fill="#2a2a2f"/><path d="M30.452 19.93c4.88-2.44 10.768-3.66 17.668-3.662v6.495c-6.9.002-12.789 1.222-17.668 3.661z" class="highcharts-point highcharts-color-2 highcharts-3d-side" fill="#77d464"/><path d="M37.523 23.465c2.927-1.464 6.46-2.196 10.6-2.197v6.495c-4.14.001-7.673.733-10.6 2.197z" class="highcharts-point highcharts-color-2 highcharts-3d-side" fill="#77d464"/><path d="M30.452 19.93v6.494l7.07 3.536v-6.495z" class="highcharts-point highcharts-color-1 highcharts-3d-side" fill="#2a2a2f"/><path d="M48.124 16.268v6.495l.002 5v-6.495z" class="highcharts-point highcharts-color-0 highcharts-3d-side" fill="#639cd3"/><path d="M48.124 41.268c-13.805-.001-24.994-5.597-24.994-12.5v6.495c0-3.452 2.44-6.398 7.322-8.839V19.93c-4.882 2.44-7.322 5.387-7.322 8.839v6.495c0 6.903 11.19 12.499 24.994 12.5z" class="highcharts-point highcharts-color-1 highcharts-3d-side" fill="#2a2a2f"/><path d="M48.126 36.268c-8.284 0-14.998-3.36-14.996-7.502 0-2.07 1.465-3.837 4.393-5.301v6.495c-5.858 2.929-5.858 7.678 0 10.606 2.928 1.465 6.462 2.197 10.603 2.197z" class="highcharts-point highcharts-color-1 highcharts-3d-side" fill="#2a2a2f"/><path d="M73.13 28.768c0 6.904-11.193 12.5-25 12.5h-.005v6.495c13.807.001 25.002-5.594 25.005-12.497v-.003z" class="highcharts-point highcharts-color-0 highcharts-3d-side" fill="#639cd3"/><path d="M48.126 21.268c8.285 0 15.002 3.356 15.004 7.498.001 4.143-6.713 7.501-14.997 7.502h-.006v6.495c8.284.001 15-3.356 15.002-7.498.002-4.143-6.712-7.501-14.997-7.502a6 6 0 0 0-.006 0z" class="highcharts-point highcharts-color-0 highcharts-3d-side" fill="#639cd3"/><path d="M48.124 16.268c13.808-.001 25.003 5.594 25.006 12.497.002 6.904-11.188 12.502-24.995 12.503h-.01l.002-5c8.284 0 15-3.356 15.003-7.499.001-4.142-6.713-7.5-14.998-7.501h-.006z" fill="#7cb5ec" class="highcharts-point highcharts-color-0" stroke="#7cb5ec" stroke-linejoin="round"/><path d="M48.124 41.268c-13.807-.001-24.997-5.599-24.994-12.503 0-3.45 2.442-6.396 7.322-8.836l7.07 3.536c-5.857 2.929-5.857 7.677 0 10.606 2.93 1.464 6.463 2.197 10.604 2.197z" fill="#434348" class="highcharts-point highcharts-color-1" stroke="#434348" stroke-linejoin="round"/><path d="M30.452 19.93c4.88-2.44 10.768-3.66 17.668-3.662l.004 5c-4.14 0-7.674.733-10.601 2.197z" fill="#90ed7d" class="highcharts-point highcharts-color-2" stroke="#90ed7d" stroke-linejoin="round"/></g></g></svg>