<svg xmlns="http://www.w3.org/2000/svg" class="highcharts-root" width="100" viewBox="0 0 100 70" height="70" font-size="12"><rect class="highcharts-background" width="100" height="70" rx="0" ry="0" fill="#fff"/><path class="highcharts-plot-background" fill="none" d="M0 0h100v70H0z"/><path class="highcharts-plot-border" fill="none" d="M0 0h100v70H0z"/><g class="highcharts-series-group"><g class="highcharts-series highcharts-series-0 highcharts-pie-series highcharts-color-undefined"><path d="M49.994 50v3.248l.006-15V35z" class="highcharts-point highcharts-color-0 highcharts-3d-side" fill="#639cd3"/><path d="M28.787 24.393v3.248L50 38.248V35z" class="highcharts-point highcharts-color-2 highcharts-3d-side" fill="#77d464"/><path d="M49.988 20v3.248l.012 15V35z" class="highcharts-point highcharts-color-2 highcharts-3d-side" fill="#77d464"/><path d="M49.994 50v3.248l.006-15V35z" class="highcharts-point highcharts-color-1 highcharts-3d-side" fill="#2a2a2f"/><path d="M28.787 24.393c5.855-2.927 12.921-4.391 21.201-4.393v3.248c-8.28.001-15.346 1.466-21.201 4.393zM50 35v3.248z" class="highcharts-point highcharts-color-2 highcharts-3d-side" fill="#77d464"/><path d="M28.787 24.393v3.248L50 38.248V35z" class="highcharts-point highcharts-color-1 highcharts-3d-side" fill="#2a2a2f"/><path d="M49.994 20v3.248l.006 15V35z" class="highcharts-point highcharts-color-0 highcharts-3d-side" fill="#639cd3"/><path d="M49.994 50C33.427 49.998 20 43.283 20 35v3.248c0-4.143 2.929-7.678 8.787-10.607v-3.248C22.929 27.323 20 30.858 20 35v3.248c0 8.283 13.427 14.998 29.994 15zM50 35v3.248z" class="highcharts-point highcharts-color-1 highcharts-3d-side" fill="#2a2a2f"/><path d="M80 35c0 8.284-13.431 15-30 15h-.006v3.248C66.563 53.249 79.997 46.535 80 38.25v-.003zm-30 0v3.248z" class="highcharts-point highcharts-color-0 highcharts-3d-side" fill="#639cd3"/><path d="M49.994 20C66.562 19.998 79.997 26.713 80 34.997 80.004 43.28 66.575 49.998 50.006 50h-.012L50 35z" fill="#7cb5ec" class="highcharts-point highcharts-color-0" stroke="#7cb5ec" stroke-linejoin="round" stroke-width=".5"/><path d="M49.994 50C33.425 49.998 19.997 43.281 20 34.997c.002-4.141 2.93-7.675 8.787-10.604L50 35z" fill="#434348" class="highcharts-point highcharts-color-1" stroke="#434348" stroke-linejoin="round" stroke-width=".5"/><path d="M28.787 24.393c5.855-2.927 12.921-4.391 21.201-4.393L50 35z" fill="#90ed7d" class="highcharts-point highcharts-color-2" stroke="#90ed7d" stroke-linejoin="round" stroke-width=".5"/></g></g><g class="highcharts-legend" transform="matrix(.5 0 0 .5 16.5 36)"><rect class="highcharts-legend-box" rx="0" ry="0" width="134" height="53" fill="none"/><g class="highcharts-legend-item highcharts-pie-series highcharts-color-0" transform="translate(-28.808 37.365)"><rect x="2" y="4" width="12" height="12" rx="6" ry="6" class="highcharts-point" fill="#7cb5ec"/></g><g class="highcharts-legend-item highcharts-pie-series highcharts-color-1" transform="translate(102.733 37.365)"><rect x="2" y="4" width="12" height="12" rx="6" ry="6" class="highcharts-point" fill="#434348"/></g><g class="highcharts-legend-item highcharts-pie-series highcharts-color-2" transform="translate(33.407 37.365)"><rect x="2" y="4" width="12" height="12" rx="6" ry="6" class="highcharts-point" fill="#90ed7d"/></g></g><path d="M77.158 57.684h10.436v4H77.158zm-34.924 0h10.437v4H42.234zm-31.058.1h10.437v4H11.176z" fill="#ccc"/></svg>