<svg xmlns="http://www.w3.org/2000/svg" class="highcharts-root" width="100" viewBox="0 0 100 70" height="70" font-family="'lucida grande','lucida sans unicode',arial,helvetica,sans-serif" font-size="12"><rect fill="#fff" class="highcharts-background" width="100" height="70" rx="0" ry="0"/><path fill="none" class="highcharts-plot-background" d="M0 0h100v70H0z"/><path fill="none" class="highcharts-plot-border" d="M0 0h100v70H0z"/><g class="highcharts-series-group"><g class="highcharts-series highcharts-series-0 highcharts-pie-series highcharts-color-undefined"><path fill="#639CD3" d="M49.995 47.5v6.495l.005-12.5V35z" class="highcharts-point highcharts-color-0 highcharts-3d-side"/><path fill="#77D464" d="M32.322 26.161v6.495L50 41.496V35z" class="highcharts-point highcharts-color-2 highcharts-3d-side"/><path fill="#77D464" d="M49.99 22.5v6.495l.01 12.5V35z" class="highcharts-point highcharts-color-2 highcharts-3d-side"/><path fill="#2A2A2F" d="M49.995 47.5v6.495l.005-12.5V35z" class="highcharts-point highcharts-color-1 highcharts-3d-side"/><path fill="#77D464" d="M32.322 26.161c4.88-2.44 10.768-3.66 17.668-3.661v6.495c-6.9.002-12.788 1.222-17.668 3.661zM50 35v6.495z" class="highcharts-point highcharts-color-2 highcharts-3d-side"/><path fill="#2A2A2F" d="M32.322 26.161v6.495L50 41.496V35z" class="highcharts-point highcharts-color-1 highcharts-3d-side"/><path fill="#639CD3" d="M49.995 22.5v6.495l.005 12.5V35z" class="highcharts-point highcharts-color-0 highcharts-3d-side"/><path fill="#2A2A2F" d="M49.995 47.5C36.19 47.499 25 41.903 25 35v6.495c0-3.452 2.44-6.398 7.322-8.839v-6.495C27.441 28.601 25 31.548 25 35v6.495c0 6.903 11.19 12.499 24.995 12.5zM50 35v6.495z" class="highcharts-point highcharts-color-1 highcharts-3d-side"/><path fill="#639CD3" d="M75 35c0 6.904-11.193 12.5-25 12.5h-.005v6.495c13.807.002 25.002-5.594 25.005-12.497v-.003zm-25 0v6.495z" class="highcharts-point highcharts-color-0 highcharts-3d-side"/><path fill="#7cb5ec" d="M49.995 22.5C63.802 22.499 74.997 28.094 75 34.997 75.003 41.901 63.812 47.5 50.005 47.5h-.01L50 35z" class="highcharts-point highcharts-color-0" stroke="#7cb5ec" stroke-linejoin="round"/><path fill="#434348" d="M49.995 47.5C36.188 47.499 24.997 41.901 25 34.997c.001-3.45 2.442-6.396 7.322-8.836L50 35z" class="highcharts-point highcharts-color-1" stroke="#434348" stroke-linejoin="round"/><path fill="#90ed7d" d="M32.322 26.161c4.88-2.44 10.768-3.66 17.668-3.661L50 35z" class="highcharts-point highcharts-color-2" stroke="#90ed7d" stroke-linejoin="round"/></g></g><g class="highcharts-data-labels highcharts-series-0 highcharts-pie-series highcharts-color-undefined"><path class="highcharts-data-label-connector highcharts-color-0" d="M82.308 35H74.61" fill="none" stroke="#7cb5ec" stroke-width=".469"/><path class="highcharts-data-label-connector highcharts-color-1" d="M13.255 58.552c1.995 0 9.32-11.317 11.531-15.09l2.212-3.772" fill="none" stroke="#434348" stroke-width=".81"/><path class="highcharts-data-label-connector highcharts-color-2" d="M30.14 14.063c1.563 0 9.177 5.118 9.895 7.413l.718 2.295" fill="none" stroke="#90ed7d" stroke-width=".36"/><path d="M15.93 10.726h11.837v4.732H15.93zM84.262 31.5h11.836v4.732H84.261zM.588 56.39h11.836v4.732H.588z" fill="#ccc"/></g></svg>