<svg xmlns="http://www.w3.org/2000/svg" viewBox="1192.5 721.9 100 70"><path d="M1197.5 725.1h90m-90 15.9h90m-90 15.9h90m-90 15.9h90m-90 15.8h90" fill="none" stroke="#CCC" stroke-width=".25" stroke-miterlimit="10"/><path opacity=".7" fill="#7CB5EC" d="M1197.5 740.5l20 22.9 25 13.5 25-31.3 20 3.5v39.5h-90z"/><path fill="none" stroke="#7CB5EC" stroke-miterlimit="10" d="M1197.5 740.5l20 22.9 25 13.5 25-31.3 20 3.5"/><path opacity=".75" fill="#434348" d="M1197.5 776.9l20-23.1 25-18.2 25 42 20-9v20h-90z"/><path fill="none" stroke="#434348" stroke-miterlimit="10" d="M1197.5 776.9l20-23.1 25-18.2 25 42 20-9"/><path d="M1197.5 735.9h5.4v4h-5.4zm42.3-5.8h5.4v4h-5.4zm42.3 13.1h5.4v4h-5.4zm-17.3-3.3h5.4v4h-5.4zm-50.8 7.3h5.4v4h-5.4z" fill="#CCC"/></svg>