<svg xmlns="http://www.w3.org/2000/svg" viewBox="1192.5 1076.4 100 70"><path d="M1197.5 1079.6h90m-90 15.9h90m-90 15.9h90m-90 15.8h90m-90 15.9h90" fill="none" stroke="#CCC" stroke-width=".25" stroke-miterlimit="10"/><path d="M1238 1111.4l-20.5-21.2-10.3 21.2zm29.5-9.4l-16.7 9.4h25.6z" opacity=".7" fill="#7CB5EC"/><path d="M1197.5 1111.4v20l9.7-20zm90 11.7v-11.7h-11.1zm-36.7-11.7H1238l4.5 4.6z" opacity=".75" fill="#FF4136"/><path d="M1197.5 1131.4l9.7-20m30.8 0l4.5 4.6 8.3-4.6m25.6 0l11.1 11.7" fill="none" stroke="#FF4136" stroke-miterlimit="10"/><path d="M1207.2 1111.4l10.3-21.2 20.5 21.2m12.8 0l16.7-9.4 8.9 9.4" fill="none" stroke="#7CB5EC" stroke-miterlimit="10"/></svg>