<svg xmlns:xlink="http://www.w3.org/1999/xlink" version="1.1" style="font-family:'lucida grande', 'lucida sans unicode', arial, helvetica, sans-serif;font-size:8px;" xmlns="http://www.w3.org/2000/svg" width="100" height="80"><desc>Created with Highcharts 4.2.3</desc><defs><clipPath id="highcharts-165"><rect x="0" y="0" width="80" height="55"></rect></clipPath><clipPath id="highcharts-166"><rect x="0" y="55" width="100" height="10"></rect></clipPath><clipPath id="highcharts-167"><rect x="0" y="0" width="100" height="55"></rect></clipPath><clipPath id="highcharts-169"><rect x="0" y="55" width="100" height="10"></rect></clipPath><clipPath id="highcharts-170"><rect x="0" y="0" width="100" height="55"></rect></clipPath></defs><rect x="0" y="0" width="100" height="80" fill="#FFFFFF" class=" highcharts-background"></rect><g class="highcharts-grid" ></g><g class="highcharts-grid" ><path fill="none" d="M 10 65.5 L 90 65.5" stroke="#D8D8D8" stroke-width="1"  opacity="1"></path><path fill="none" d="M 10 10.5 L 90 10.5" stroke="#D8D8D8" stroke-width="1"  opacity="1"></path></g><g class="highcharts-axis" ><path fill="none" d="M 10 65.5 L 90 65.5" stroke="#C0D0E0" stroke-width="1" ></path></g><g class="highcharts-axis" ></g><g class="highcharts-series-group" ><g class="highcharts-series highcharts-series-0"  transform="translate(10,10) scale(1 1)" clip-path="url(#highcharts-165)"><path fill="#e5da04" d="M 0.7843137254901962 -7.105427357601002e-15 L 20.3921568627451 -7.105427357601002e-15 L 40 -7.105427357601002e-15 L 59.6078431372549 -7.105427357601002e-15 L 79.2156862745098 -7.105427357601002e-15 L 79.2156862745098 31.08695652173925 L 59.6078431372549 31.842105263157748 L 40 18.33333333333315 L 20.3921568627451 21.38888888888895 L 0.7843137254901962 55"  fill-opacity="0.75" visibility="hidden"></path><path fill="#ff0000" d="M 0.7843137254901962 -7.105427357601002e-15 L 20.3921568627451 -7.105427357601002e-15 L 40 -7.105427357601002e-15 L 59.6078431372549 -7.105427357601002e-15 L 79.2156862745098 -7.105427357601002e-15 L 79.2156862745098 31.08695652173925 L 59.6078431372549 31.842105263157748 L 40 18.33333333333315 L 20.3921568627451 21.38888888888895 L 0.7843137254901962 55"  fill-opacity="0.75" clip-path="url(#highcharts-166)"></path><path fill="#e5da04" d="M 0.7843137254901962 -7.105427357601002e-15 L 20.3921568627451 -7.105427357601002e-15 L 40 -7.105427357601002e-15 L 59.6078431372549 -7.105427357601002e-15 L 79.2156862745098 -7.105427357601002e-15 L 79.2156862745098 31.08695652173925 L 59.6078431372549 31.842105263157748 L 40 18.33333333333315 L 20.3921568627451 21.38888888888895 L 0.7843137254901962 55"  fill-opacity="0.75" clip-path="url(#highcharts-167)"></path><path fill="none" d="M 0.7843137254901962 -7.105427357601002e-15 L 20.3921568627451 -7.105427357601002e-15 L 40 -7.105427357601002e-15 L 59.6078431372549 -7.105427357601002e-15 L 79.2156862745098 -7.105427357601002e-15" stroke="#e5da04" stroke-width="2"  stroke-linejoin="round" stroke-linecap="round" visibility="hidden"></path><path fill="none" d="M 0.7843137254901962 -7.105427357601002e-15 L 20.3921568627451 -7.105427357601002e-15 L 40 -7.105427357601002e-15 L 59.6078431372549 -7.105427357601002e-15 L 79.2156862745098 -7.105427357601002e-15" stroke="#ff0000" stroke-width="2"  stroke-linejoin="round" stroke-linecap="round" clip-path="url(#highcharts-166)"></path><path fill="none" d="M 0.7843137254901962 -7.105427357601002e-15 L 20.3921568627451 -7.105427357601002e-15 L 40 -7.105427357601002e-15 L 59.6078431372549 -7.105427357601002e-15 L 79.2156862745098 -7.105427357601002e-15" stroke="#e5da04" stroke-width="2"  stroke-linejoin="round" stroke-linecap="round" clip-path="url(#highcharts-167)"></path></g><g class="highcharts-markers highcharts-series-0"  transform="translate(10,10) scale(1 1)" clip-path="none"></g><g class="highcharts-series highcharts-series-1"  transform="translate(10,10) scale(1 1)" clip-path="url(#highcharts-165)"><path fill="#3ecbab" d="M 0.7843137254901962 55 L 20.3921568627451 21.38888888888895 L 40 18.33333333333315 L 59.6078431372549 31.842105263157748 L 79.2156862745098 31.08695652173925 L 79.2156862745098 55 L 59.6078431372549 55 L 40 55 L 20.3921568627451 55 L 0.7843137254901962 55"  fill-opacity="0.75" visibility="hidden"></path><path fill="#ff0000" d="M 0.7843137254901962 55 L 20.3921568627451 21.38888888888895 L 40 18.33333333333315 L 59.6078431372549 31.842105263157748 L 79.2156862745098 31.08695652173925 L 79.2156862745098 55 L 59.6078431372549 55 L 40 55 L 20.3921568627451 55 L 0.7843137254901962 55"  fill-opacity="0.75" clip-path="url(#highcharts-169)"></path><path fill="#3ecbab" d="M 0.7843137254901962 55 L 20.3921568627451 21.38888888888895 L 40 18.33333333333315 L 59.6078431372549 31.842105263157748 L 79.2156862745098 31.08695652173925 L 79.2156862745098 55 L 59.6078431372549 55 L 40 55 L 20.3921568627451 55 L 0.7843137254901962 55"  fill-opacity="0.75" clip-path="url(#highcharts-170)"></path><path fill="none" d="M 0.7843137254901962 55 L 20.3921568627451 21.38888888888895 L 40 18.33333333333315 L 59.6078431372549 31.842105263157748 L 79.2156862745098 31.08695652173925" stroke="#3ecbab" stroke-width="2"  stroke-linejoin="round" stroke-linecap="round" visibility="hidden"></path><path fill="none" d="M 0.7843137254901962 55 L 20.3921568627451 21.38888888888895 L 40 18.33333333333315 L 59.6078431372549 31.842105263157748 L 79.2156862745098 31.08695652173925" stroke="#ff0000" stroke-width="2"  stroke-linejoin="round" stroke-linecap="round" clip-path="url(#highcharts-169)"></path><path fill="none" d="M 0.7843137254901962 55 L 20.3921568627451 21.38888888888895 L 40 18.33333333333315 L 59.6078431372549 31.842105263157748 L 79.2156862745098 31.08695652173925" stroke="#3ecbab" stroke-width="2"  stroke-linejoin="round" stroke-linecap="round" clip-path="url(#highcharts-170)"></path></g><g class="highcharts-markers highcharts-series-1"  transform="translate(10,10) scale(1 1)" clip-path="none"></g></g><g class="highcharts-data-labels highcharts-series-0"  visibility="visible" transform="translate(10,10) scale(1 1)" opacity="1"><g  style="" transform="translate(-5,0)"><text x="5"  style="font-size:11px;font-weight:bold;color:#000000;text-shadow:0 0 6px #ffffff, 0 0 3px #ffffff;fill:#000000;text-rendering:geometricprecision;" y="16"><tspan>3</tspan></text></g><g  style="" transform="translate(12,0)"><text x="5"  style="font-size:11px;font-weight:bold;color:#000000;text-shadow:0 0 6px #ffffff, 0 0 3px #ffffff;fill:#000000;text-rendering:geometricprecision;" y="16"><tspan>7</tspan></text></g><g  style="" transform="translate(31,0)"><text x="5"  style="font-size:11px;font-weight:bold;color:#000000;text-shadow:0 0 6px #ffffff, 0 0 3px #ffffff;fill:#000000;text-rendering:geometricprecision;" y="16"><tspan>6</tspan></text></g><g  style="" transform="translate(47,0)"><text x="5"  style="font-size:11px;font-weight:bold;color:#000000;text-shadow:0 0 6px #ffffff, 0 0 3px #ffffff;fill:#000000;text-rendering:geometricprecision;" y="16"><tspan>11</tspan></text></g><g  style="" transform="translate(60,0)" opacity="0" visibility="hidden"><text x="5"  style="font-size:11px;font-weight:bold;color:#000000;text-shadow:0 0 6px #ffffff, 0 0 3px #ffffff;fill:#000000;text-rendering:geometricprecision;" y="16"><tspan>13</tspan></text></g></g><g class="highcharts-data-labels highcharts-series-1"  visibility="visible" transform="translate(10,10) scale(1 1)" opacity="1"><g  style="" transform="translate(-5,32)"><text x="5"  style="font-size:11px;font-weight:bold;color:#000000;text-shadow:0 0 6px #ffffff, 0 0 3px #ffffff;fill:#000000;text-rendering:geometricprecision;" y="16"><tspan>0</tspan></text></g><g  style="" transform="translate(8,-2)" opacity="0" visibility="hidden"><text x="5"  style="font-size:11px;font-weight:bold;color:#000000;text-shadow:0 0 6px #ffffff, 0 0 3px #ffffff;fill:#000000;text-rendering:geometricprecision;" y="16"><tspan>11</tspan></text></g><g  style="" transform="translate(28,-5)" opacity="0" visibility="hidden"><text x="5"  style="font-size:11px;font-weight:bold;color:#000000;text-shadow:0 0 6px #ffffff, 0 0 3px #ffffff;fill:#000000;text-rendering:geometricprecision;" y="16"><tspan>12</tspan></text></g><g  style="" transform="translate(51,9)" opacity="0" visibility="hidden"><text x="5"  style="font-size:11px;font-weight:bold;color:#000000;text-shadow:0 0 6px #ffffff, 0 0 3px #ffffff;fill:#000000;text-rendering:geometricprecision;" y="16"><tspan>8</tspan></text></g><g  style="" transform="translate(60,8)" opacity="0" visibility="hidden"><text x="5"  style="font-size:11px;font-weight:bold;color:#000000;text-shadow:0 0 6px #ffffff, 0 0 3px #ffffff;fill:#000000;text-rendering:geometricprecision;" y="16"><tspan>10</tspan></text></g></g><g class="highcharts-axis-labels highcharts-xaxis-labels" ></g><g class="highcharts-axis-labels highcharts-yaxis-labels" ></g><g class="highcharts-tooltip"  style="cursor:default;padding:0;pointer-events:none;white-space:nowrap;" transform="translate(0,-9999)"><path fill="none" d="M 3.5 0.5 L 13.5 0.5 C 16.5 0.5 16.5 0.5 16.5 3.5 L 16.5 13.5 C 16.5 16.5 16.5 16.5 13.5 16.5 L 3.5 16.5 C 0.5 16.5 0.5 16.5 0.5 13.5 L 0.5 3.5 C 0.5 0.5 0.5 0.5 3.5 0.5"  stroke="black" stroke-opacity="0.049999999999999996" stroke-width="5" transform="translate(1, 1)"></path><path fill="none" d="M 3.5 0.5 L 13.5 0.5 C 16.5 0.5 16.5 0.5 16.5 3.5 L 16.5 13.5 C 16.5 16.5 16.5 16.5 13.5 16.5 L 3.5 16.5 C 0.5 16.5 0.5 16.5 0.5 13.5 L 0.5 3.5 C 0.5 0.5 0.5 0.5 3.5 0.5"  stroke="black" stroke-opacity="0.09999999999999999" stroke-width="3" transform="translate(1, 1)"></path><path fill="none" d="M 3.5 0.5 L 13.5 0.5 C 16.5 0.5 16.5 0.5 16.5 3.5 L 16.5 13.5 C 16.5 16.5 16.5 16.5 13.5 16.5 L 3.5 16.5 C 0.5 16.5 0.5 16.5 0.5 13.5 L 0.5 3.5 C 0.5 0.5 0.5 0.5 3.5 0.5"  stroke="black" stroke-opacity="0.15" stroke-width="1" transform="translate(1, 1)"></path><path fill="rgb(249, 249, 249)" fill-opacity=" .85" d="M 3.5 0.5 L 13.5 0.5 C 16.5 0.5 16.5 0.5 16.5 3.5 L 16.5 13.5 C 16.5 16.5 16.5 16.5 13.5 16.5 L 3.5 16.5 C 0.5 16.5 0.5 16.5 0.5 13.5 L 0.5 3.5 C 0.5 0.5 0.5 0.5 3.5 0.5"></path><text x="8"  style="font-size:8px;color:#333333;fill:#333333;" y="20"></text></g></svg>