<svg xmlns="http://www.w3.org/2000/svg" viewBox="1192.5 806.9 100 70"><path d="M1197.5 810.1h90m-90 15.9h90m-90 15.9h90m-90 15.9h90m-90 15.8h90" fill="none" stroke="#CCC" stroke-width=".25" stroke-miterlimit="10"/><path opacity=".7" fill="#7CB5EC" d="M1197.5 840.5l20-1.1 25-12.5 25 13.7 20-6.5v39.5h-90z"/><path fill="none" stroke="#7CB5EC" stroke-miterlimit="10" d="M1197.5 840.5l20-1.1 25-12.5 25 13.7 20-6.5"/><path opacity=".75" fill="#434348" d="M1197.5 870.9l20-23.1 25-18.2 25 42 20-9v11h-90z"/><path fill="none" stroke="#434348" stroke-miterlimit="10" d="M1197.5 870.9l20-23.1 25-18.2 25 42 20-9"/><path d="M1197.5 833.9h5.4v4h-5.4zm42.3-12.8h5.4v4h-5.4zm42.3 7.1h5.4v4h-5.4zm-17.3 4.7h5.4v4h-5.4zm-50.8-.7h5.4v4h-5.4z" fill="#CCC"/></svg>