<svg version="1.1" id="Layer_1" xmlns="http://www.w3.org/2000/svg" xmlns:xlink="http://www.w3.org/1999/xlink" x="0px" y="0px"
	 viewBox="-461 322 100 100" style="enable-background:new -461 322 100 100;" xml:space="preserve">
<g>
	<g>
		<path d="M-366,419h-90.5c-0.8,0-1.5-0.7-1.5-1.5V327c0-0.8,0.7-1.5,1.5-1.5s1.5,0.7,1.5,1.5v89h89c0.8,0,1.5,0.7,1.5,1.5
			S-365.2,419-366,419z"/>
	</g>
	<g>
		<path d="M-402,382c-0.3,0-0.5-0.1-0.7-0.3l-30.3-30.3l-22.3,22.3c-0.4,0.4-1,0.4-1.4,0s-0.4-1,0-1.4l23-23c0.4-0.4,1-0.4,1.4,0
			l31,31c0.4,0.4,0.4,1,0,1.4C-401.5,381.9-401.7,382-402,382z"/>
	</g>
	<g>
		<path d="M-372,418c-0.6,0-1-0.4-1-1v-65.5l-37.3,40.1c-0.2,0.2-0.4,0.3-0.7,0.3c-0.3,0-0.5-0.1-0.7-0.3l-21.3-21.3l-22.3,22.3
			c-0.4,0.4-1,0.4-1.4,0s-0.4-1,0-1.4l23-23c0.4-0.4,1-0.4,1.4,0l21.3,21.3l38.3-41.2c0.3-0.3,0.7-0.4,1.1-0.2
			c0.4,0.1,0.6,0.5,0.6,0.9v68C-371,417.6-371.4,418-372,418z"/>
	</g>
</g>
</svg>
