<svg xmlns="http://www.w3.org/2000/svg" viewBox="1056 976.3 100 70"><path d="M1061 1043.3v-64m22.5 64v-64m22.5 64v-64m22.5 64v-64m22.5 64v-64" fill="none" stroke="#CCC" stroke-width=".25" stroke-miterlimit="10"/><path opacity=".7" fill="#7CB5EC" d="M1125.9 979.3l-30.9 14.2-18.2 17.8 42.2 17.7-4.8 14.3H1061v-64z"/><path fill="none" stroke="#7CB5EC" stroke-miterlimit="10" d="M1125.9 979.3l-30.9 14.2-18.2 17.8 42.2 17.7-4.8 14.3"/><path opacity=".75" fill="#434348" d="M1076.8 979.3l31.2 14.2 24.5 17.8-56.6 17.7 12.1 14.3h-27v-64z"/><path fill="none" stroke="#434348" stroke-miterlimit="10" d="M1076.8 979.3l31.2 14.2 24.5 17.8-56.6 17.7 12.1 14.3"/><path d="M1113.2 991.1h5.4v4h-5.4zm13.8-11.8h5.4v4h-5.4zm-9.2 60h5.4v4h-5.4zm2.7-12.2h5.4v4h-5.4zm15-17.8h5.4v4h-5.4z" fill="#CCC"/></svg>