<svg version="1.1" id="Layer_1" xmlns="http://www.w3.org/2000/svg" xmlns:xlink="http://www.w3.org/1999/xlink" x="0px" y="0px"
	 viewBox="-461 322 100 100" style="enable-background:new -461 322 100 100;" xml:space="preserve">
<g>
	<g>
		<path d="M-366,419h-90.5c-0.8,0-1.5-0.7-1.5-1.5V327c0-0.8,0.7-1.5,1.5-1.5s1.5,0.7,1.5,1.5v89h89c0.8,0,1.5,0.7,1.5,1.5
			S-365.2,419-366,419z"/>
	</g>
	<path d="M-421,365v16h-34v-16H-421 M-421,363h-34c-1.1,0-2,0.9-2,2v16c0,1.1,0.9,2,2,2h34c1.1,0,2-0.9,2-2v-16
		C-419,363.9-419.9,363-421,363L-421,363z"/>
	<path d="M-401,340v17h-54v-17H-401 M-401,338h-54c-1.1,0-2,0.9-2,2v17c0,1.1,0.9,2,2,2h54c1.1,0,2-0.9,2-2v-17
		C-399,338.9-399.9,338-401,338L-401,338z"/>
	<path d="M-381,389v17h-74v-17H-381 M-381,387h-74c-1.1,0-2,0.9-2,2v17c0,1.1,0.9,2,2,2h74c1.1,0,2-0.9,2-2v-17
		C-379,387.9-379.9,387-381,387L-381,387z"/>
</g>
</svg>
