<svg xmlns="http://www.w3.org/2000/svg" viewBox="389.8 889.7 100 70"><path d="M394.8 956.7v-64m22.5 64v-64m22.5 64v-64m22.5 64v-64m22.5 64v-64" fill="none" stroke="#CCC" stroke-width=".25" stroke-miterlimit="10"/><g fill="none" stroke-width="12" stroke-miterlimit="10"><path stroke="#434348" d="M394.8 901.4h54.1m-54.1 23.3h36.7"/><path stroke="#7CB5EC" d="M431.5 924.7h53.3m-35.9-23.3h35.9m-63 46.4h63"/><path stroke="#434348" d="M394.8 947.8h27"/></g><path d="M464.2 899.4h5.4v4h-5.4zm-46.2 0h5.4v4H418zm38 23.3h5.4v4H456zm-45.6 0h5.4v4h-5.4zm38.5 23.1h5.4v4h-5.4zm-42.5 0h5.4v4h-5.4z" fill="#CCC"/></svg>