<svg xmlns="http://www.w3.org/2000/svg" viewBox="389.8 803.7 100 70"><path d="M394.8 870.7v-64m22.5 64v-64m22.5 64v-64m22.5 64v-64m22.5 64v-64" fill="none" stroke="#CCC" stroke-width=".25" stroke-miterlimit="10"/><g fill="none" stroke-width="12" stroke-miterlimit="10"><path stroke="#434348" d="M394.8 815.4h10.6m-10.6 23.3h28.6"/><path stroke="#7CB5EC" d="M423.4 838.7H450m-44.6-23.3H417m10.4 46.4H441"/><path stroke="#434348" d="M394.8 861.8h32.6"/></g><path d="M409.1 813.4h5.4v4h-5.4zm-11.7 0h5.4v4h-5.4zm36.6 23.3h5.4v4H434zm-27.6 0h5.4v4h-5.4zm25.1 23.1h5.4v4h-5.4zm-22.4 0h5.4v4h-5.4z" fill="#CCC"/></svg>