<svg xmlns:xlink="http://www.w3.org/1999/xlink" version="1.1" style="font-family:'lucida grande', 'lucida sans unicode', arial, helvetica, sans-serif;font-size:12px;" xmlns="http://www.w3.org/2000/svg" width="100" height="80"><desc>Created with Highcharts 4.2.3</desc><defs><clipPath id="highcharts-160"><rect x="0" y="0" width="55" height="80"></rect></clipPath></defs><rect x="0" y="0" width="100" height="80" fill="#FFFFFF" class=" highcharts-background"></rect><g class="highcharts-grid" ></g><g class="highcharts-grid" ><path fill="none" d="M 9.5 10 L 9.5 65" stroke="#D8D8D8" stroke-width="1"  opacity="1"></path><path fill="none" d="M 90.5 10 L 90.5 65" stroke="#D8D8D8" stroke-width="1"  opacity="1"></path></g><g class="highcharts-axis" ><path fill="none" d="M 10 16.5 L 0 16.5" stroke="#C0D0E0" stroke-width="1" opacity="1"></path><path fill="none" d="M 10 49.5 L 0 49.5" stroke="#C0D0E0" stroke-width="1" opacity="1"></path><path fill="none" d="M 9.5 10 L 9.5 65" stroke="#C0D0E0" stroke-width="1" ></path></g><g class="highcharts-axis" ></g><g class="highcharts-series-group" ><g class="highcharts-series highcharts-series-0"  transform="translate(90,65) rotate(90) scale(-1,1) scale(1 1)" width="80" height="55" clip-path="url(#highcharts-160)"><rect x="50" y="53" width="5" height="28" fill="#b05dbf" rx="0" ry="0"></rect><rect x="39" y="53" width="5" height="28" fill="#b05dbf" rx="0" ry="0"></rect><rect x="28" y="43" width="5" height="38" fill="#b05dbf" rx="0" ry="0"></rect><rect x="17" y="23" width="5" height="58" fill="#b05dbf" rx="0" ry="0"></rect><rect x="6" y="8" width="5" height="73" fill="#b05dbf" rx="0" ry="0"></rect></g><g class="highcharts-markers highcharts-series-0"  transform="translate(90,65) rotate(90) scale(-1,1) scale(1 1)" width="80" height="55" clip-path="none"></g><g class="highcharts-series highcharts-series-1"  transform="translate(90,65) rotate(90) scale(-1,1) scale(1 1)" width="80" height="55" clip-path="url(#highcharts-160)"><rect x="44" y="61" width="6" height="20" fill="#e5da04" rx="0" ry="0"></rect><rect x="33" y="57" width="6" height="24" fill="#e5da04" rx="0" ry="0"></rect><rect x="22" y="49" width="6" height="32" fill="#e5da04" rx="0" ry="0"></rect><rect x="11" y="33" width="6" height="48" fill="#e5da04" rx="0" ry="0"></rect><rect x="0" y="21" width="6" height="60" fill="#e5da04" rx="0" ry="0"></rect></g><g class="highcharts-markers highcharts-series-1"  transform="translate(90,65) rotate(90) scale(-1,1) scale(1 1)" width="80" height="55" clip-path="none"></g></g><g class="highcharts-axis-labels highcharts-xaxis-labels" ></g><g class="highcharts-axis-labels highcharts-yaxis-labels" ></g><g class="highcharts-tooltip"  style="cursor:default;padding:0;pointer-events:none;white-space:nowrap;" transform="translate(0,-9999)"><path fill="none" d="M 3.5 0.5 L 13.5 0.5 C 16.5 0.5 16.5 0.5 16.5 3.5 L 16.5 13.5 C 16.5 16.5 16.5 16.5 13.5 16.5 L 3.5 16.5 C 0.5 16.5 0.5 16.5 0.5 13.5 L 0.5 3.5 C 0.5 0.5 0.5 0.5 3.5 0.5"  stroke="black" stroke-opacity="0.049999999999999996" stroke-width="5" transform="translate(1, 1)"></path><path fill="none" d="M 3.5 0.5 L 13.5 0.5 C 16.5 0.5 16.5 0.5 16.5 3.5 L 16.5 13.5 C 16.5 16.5 16.5 16.5 13.5 16.5 L 3.5 16.5 C 0.5 16.5 0.5 16.5 0.5 13.5 L 0.5 3.5 C 0.5 0.5 0.5 0.5 3.5 0.5"  stroke="black" stroke-opacity="0.09999999999999999" stroke-width="3" transform="translate(1, 1)"></path><path fill="none" d="M 3.5 0.5 L 13.5 0.5 C 16.5 0.5 16.5 0.5 16.5 3.5 L 16.5 13.5 C 16.5 16.5 16.5 16.5 13.5 16.5 L 3.5 16.5 C 0.5 16.5 0.5 16.5 0.5 13.5 L 0.5 3.5 C 0.5 0.5 0.5 0.5 3.5 0.5"  stroke="black" stroke-opacity="0.15" stroke-width="1" transform="translate(1, 1)"></path><path fill="rgb(249, 249, 249)" fill-opacity=" .85" d="M 3.5 0.5 L 13.5 0.5 C 16.5 0.5 16.5 0.5 16.5 3.5 L 16.5 13.5 C 16.5 16.5 16.5 16.5 13.5 16.5 L 3.5 16.5 C 0.5 16.5 0.5 16.5 0.5 13.5 L 0.5 3.5 C 0.5 0.5 0.5 0.5 3.5 0.5"></path><text x="8"  style="font-size:12px;color:#333333;fill:#333333;" y="20"></text></g></svg>