<svg xmlns="http://www.w3.org/2000/svg" viewBox="508.7 1148.2 100 70"><path fill="none" stroke="#7CB5EC" stroke-width="6" stroke-miterlimit="10" d="M552.6 1165.9h37.9m-48.8-8.8H581m-6.9 26.3h-12.7m23.2 8.7h10.7m-40.6-17.5h17m-43 35h16.6m17.8-8.8h25.2"/><path fill="#CCC" d="M582.5 1155.2h5.7v3.8h-5.7zm9.4 8.8h5.7v3.8h-5.7zm-2.1 34.9h5.7v3.8h-5.7zm6.9-8.7h5.7v3.8h-5.7zm-50 17.4h5.7v3.8h-5.7zm28.8-26.2h5.7v3.8h-5.7zm-53.9 26.2h5.7v3.8h-5.7zm51.5-34.9h5.7v3.8h-5.7zm-38.5-17.5h5.7v3.8h-5.7zm10.9 8.8h5.7v3.8h-5.7zm8.7 17.4h5.7v3.8h-5.7zm23.3 8.8h5.7v3.8h-5.7zm-29.9-17.5h5.7v3.8h-5.7zm8.3 26.2h5.7v3.8h-5.7z"/><path d="M603.7 1151.2v64m-22.6-64v64m-22.6-64v64m-22.6-64v64m-22.7-64v64" fill="none" stroke="#CCC" stroke-width=".25" stroke-miterlimit="10"/></svg>