<svg xmlns:xlink="http://www.w3.org/1999/xlink" version="1.1" style="font-family:'lucida grande', 'lucida sans unicode', arial, helvetica, sans-serif;font-size:8px;" xmlns="http://www.w3.org/2000/svg" width="100" height="80"><desc>Created with Highcharts 4.2.3</desc><defs><clipPath id="highcharts-87"><rect x="0" y="0" width="55" height="80"></rect></clipPath></defs><rect x="0" y="0" width="100" height="80" fill="#FFFFFF" class=" highcharts-background"></rect><g class="highcharts-grid" ></g><g class="highcharts-grid" ><path fill="none" d="M 9.5 10 L 9.5 65" stroke="#D8D8D8" stroke-width="1"  opacity="1"></path><path fill="none" d="M 90.5 10 L 90.5 65" stroke="#D8D8D8" stroke-width="1"  opacity="1"></path></g><g class="highcharts-axis" ><path fill="none" d="M 9.5 10 L 9.5 65" stroke="#C0D0E0" stroke-width="1" ></path></g><g class="highcharts-axis" ></g><g class="highcharts-series-group" ><g class="highcharts-series highcharts-series-0"  transform="translate(90,65) rotate(90) scale(-1,1) scale(1 1)" width="80" height="55" clip-path="url(#highcharts-87)"><rect x="40.5" y="-0.5" width="9" height="26" stroke="#FFFFFF" stroke-width="1" fill="#b05dbf" rx="0" ry="0"></rect><rect x="22.5" y="-0.5" width="9" height="47" stroke="#FFFFFF" stroke-width="1" fill="#b05dbf" rx="0" ry="0"></rect><rect x="4.5" y="-0.5" width="9" height="65" stroke="#FFFFFF" stroke-width="1" fill="#b05dbf" rx="0" ry="0"></rect></g><g class="highcharts-markers highcharts-series-0"  transform="translate(90,65) rotate(90) scale(-1,1) scale(1 1)" width="80" height="55" clip-path="none"></g><g class="highcharts-series highcharts-series-1"  transform="translate(90,65) rotate(90) scale(-1,1) scale(1 1)" width="80" height="55" clip-path="url(#highcharts-87)"><rect x="40.5" y="25.5" width="9" height="55" stroke="#FFFFFF" stroke-width="1" fill="#e5da04" rx="0" ry="0"></rect><rect x="22.5" y="46.5" width="9" height="34" stroke="#FFFFFF" stroke-width="1" fill="#e5da04" rx="0" ry="0"></rect><rect x="4.5" y="64.5" width="9" height="16" stroke="#FFFFFF" stroke-width="1" fill="#e5da04" rx="0" ry="0"></rect></g><g class="highcharts-markers highcharts-series-1"  transform="translate(90,65) rotate(90) scale(-1,1) scale(1 1)" width="80" height="55" clip-path="none"></g></g><g class="highcharts-data-labels highcharts-series-0"  visibility="visible" transform="translate(10,10) scale(1 1)" opacity="1"><g  style="" transform="translate(59,-1)"><text x="5"  style="font-size:11px;font-weight:bold;color:#000000;text-shadow:0 0 6px #ffffff, 0 0 3px #ffffff;fill:#000000;text-rendering:geometricprecision;" y="16"><tspan>4</tspan></text></g><g  style="" transform="translate(48,17)"><text x="5"  style="font-size:11px;font-weight:bold;color:#000000;text-shadow:0 0 6px #ffffff, 0 0 3px #ffffff;fill:#000000;text-rendering:geometricprecision;" y="16"><tspan>8</tspan></text></g><g  style="" transform="translate(36,35)"><text x="5"  style="font-size:11px;font-weight:bold;color:#000000;text-shadow:0 0 6px #ffffff, 0 0 3px #ffffff;fill:#000000;text-rendering:geometricprecision;" y="16"><tspan>12</tspan></text></g></g><g class="highcharts-data-labels highcharts-series-1"  visibility="visible" transform="translate(10,10) scale(1 1)" opacity="1"><g  style="" transform="translate(19,-1)"><text x="5"  style="font-size:11px;font-weight:bold;color:#000000;text-shadow:0 0 6px #ffffff, 0 0 3px #ffffff;fill:#000000;text-rendering:geometricprecision;" y="16"><tspan>9</tspan></text></g><g  style="" transform="translate(8,17)"><text x="5"  style="font-size:11px;font-weight:bold;color:#000000;text-shadow:0 0 6px #ffffff, 0 0 3px #ffffff;fill:#000000;text-rendering:geometricprecision;" y="16"><tspan>6</tspan></text></g><g  style="" transform="translate(-1,35)"><text x="5"  style="font-size:11px;font-weight:bold;color:#000000;text-shadow:0 0 6px #ffffff, 0 0 3px #ffffff;fill:#000000;text-rendering:geometricprecision;" y="16"><tspan>3</tspan></text></g></g><g class="highcharts-axis-labels highcharts-xaxis-labels" ></g><g class="highcharts-axis-labels highcharts-yaxis-labels" ></g><g class="highcharts-tooltip"  style="cursor:default;padding:0;pointer-events:none;white-space:nowrap;" transform="translate(0,-9999)"><path fill="none" d="M 3.5 0.5 L 13.5 0.5 C 16.5 0.5 16.5 0.5 16.5 3.5 L 16.5 13.5 C 16.5 16.5 16.5 16.5 13.5 16.5 L 3.5 16.5 C 0.5 16.5 0.5 16.5 0.5 13.5 L 0.5 3.5 C 0.5 0.5 0.5 0.5 3.5 0.5"  stroke="black" stroke-opacity="0.049999999999999996" stroke-width="5" transform="translate(1, 1)"></path><path fill="none" d="M 3.5 0.5 L 13.5 0.5 C 16.5 0.5 16.5 0.5 16.5 3.5 L 16.5 13.5 C 16.5 16.5 16.5 16.5 13.5 16.5 L 3.5 16.5 C 0.5 16.5 0.5 16.5 0.5 13.5 L 0.5 3.5 C 0.5 0.5 0.5 0.5 3.5 0.5"  stroke="black" stroke-opacity="0.09999999999999999" stroke-width="3" transform="translate(1, 1)"></path><path fill="none" d="M 3.5 0.5 L 13.5 0.5 C 16.5 0.5 16.5 0.5 16.5 3.5 L 16.5 13.5 C 16.5 16.5 16.5 16.5 13.5 16.5 L 3.5 16.5 C 0.5 16.5 0.5 16.5 0.5 13.5 L 0.5 3.5 C 0.5 0.5 0.5 0.5 3.5 0.5"  stroke="black" stroke-opacity="0.15" stroke-width="1" transform="translate(1, 1)"></path><path fill="rgb(249, 249, 249)" fill-opacity=" .85" d="M 3.5 0.5 L 13.5 0.5 C 16.5 0.5 16.5 0.5 16.5 3.5 L 16.5 13.5 C 16.5 16.5 16.5 16.5 13.5 16.5 L 3.5 16.5 C 0.5 16.5 0.5 16.5 0.5 13.5 L 0.5 3.5 C 0.5 0.5 0.5 0.5 3.5 0.5"></path><text x="8"  style="font-size:8px;color:#333333;fill:#333333;" y="20"></text></g></svg>