<svg xmlns="http://www.w3.org/2000/svg" viewBox="508.7 721.9 100 70"><path d="M513.7 788.9v-64m22.5 64v-64m22.5 64v-64m22.5 64v-64m22.5 64v-64" fill="none" stroke="#CCC" stroke-width=".25" stroke-miterlimit="10"/><g fill="none" stroke-width="6" stroke-miterlimit="10"><path stroke="#434348" d="M513.7 737.6h44.6"/><path stroke="#7CB5EC" d="M513.7 729.9h57.6"/></g><g fill="none" stroke-width="6" stroke-miterlimit="10"><path stroke="#434348" d="M513.7 760.7h67.6"/><path stroke="#7CB5EC" d="M513.7 753.1h51.6"/></g><g fill="none" stroke-width="6" stroke-miterlimit="10"><path stroke="#434348" d="M513.7 783.9h77.6"/><path stroke="#7CB5EC" d="M513.7 776.2h37.6"/></g><path d="M573.3 727.9h5.4v4h-5.4zm-13 7.7h5.4v4h-5.4zm23 23.1h5.4v4h-5.4zm-16-7.6h5.4v4h-5.4zm26 30.8h5.4v4h-5.4zm-40-7.7h5.4v4h-5.4z" fill="#CCC"/></svg>