<svg xmlns:xlink="http://www.w3.org/1999/xlink" version="1.1" style="font-family:'lucida grande', 'lucida sans unicode', arial, helvetica, sans-serif;font-size:12px;" xmlns="http://www.w3.org/2000/svg" width="100" height="80"><desc>Created with Highcharts 4.2.3</desc><defs><clipPath id="highcharts-198"><rect x="0" y="0" width="70" height="55"></rect></clipPath></defs><rect x="0" y="0" width="100" height="80" fill="#FFFFFF" class=" highcharts-background"></rect><g class="highcharts-grid" ></g><g class="highcharts-grid" ><path fill="none" d="M 20 65.5 L 90 65.5" stroke="#D8D8D8" stroke-width="1"  opacity="1"></path><path fill="none" d="M 20 10.5 L 90 10.5" stroke="#D8D8D8" stroke-width="1"  opacity="1"></path></g><g class="highcharts-axis" ><path fill="none" d="M 20 65.5 L 90 65.5" stroke="#C0D0E0" stroke-width="1" ></path></g><g class="highcharts-axis" ><text x="10"  text-anchor="middle" transform="translate(0,0) rotate(270 10 37.5)" class=" highcharts-yaxis-title" style="color:#707070;fill:#707070;" y="37.5"></text></g><g class="highcharts-series-group" ><g class="highcharts-series highcharts-series-0"  transform="translate(20,10) scale(1 1)" clip-path="url(#highcharts-198)"><circle cx="63.92156862745098" cy="31.349999999999998" r="5.5" stroke="#2B92BE" stroke-width="1" fill="rgb(43,146,190)" fill-opacity="0.5"></circle><circle cx="62.08884276422866" cy="20.9" r="5.5" stroke="#2B92BE" stroke-width="1" fill="rgb(43,146,190)" fill-opacity="0.5"></circle><circle cx="46.20521861630187" cy="20.349999999999994" r="4.5" stroke="#2B92BE" stroke-width="1" fill="rgb(43,146,190)" fill-opacity="0.5"></circle><circle cx="43.761584132005446" cy="17.324999999999996" r="5.5" stroke="#2B92BE" stroke-width="1" fill="rgb(43,146,190)" fill-opacity="0.5"></circle><circle cx="46.20521861630187" cy="33.825" r="5.5" stroke="#2B92BE" stroke-width="1" fill="rgb(43,146,190)" fill-opacity="0.5"></circle><circle cx="49.870670342746514" cy="14.024999999999999" r="5.5" stroke="#2B92BE" stroke-width="1" fill="rgb(43,146,190)" fill-opacity="0.5"></circle><circle cx="8.939792730781333" cy="15.674999999999997" r="5" stroke="#2B92BE" stroke-width="1" fill="rgb(43,146,190)" fill-opacity="0.5"></circle><circle cx="35.81977205804205" cy="22.275" r="5.5" stroke="#2B92BE" stroke-width="1" fill="rgb(43,146,190)" fill-opacity="0.5"></circle><circle cx="27.877959984078654" cy="34.925" r="5.5" stroke="#2B92BE" stroke-width="1" fill="rgb(43,146,190)" fill-opacity="0.5"></circle><circle cx="39.48522378448669" cy="17.599999999999994" r="5.5" stroke="#2B92BE" stroke-width="1" fill="rgb(43,146,190)" fill-opacity="0.5"></circle></g><g class="highcharts-markers highcharts-series-0"  transform="translate(20,10) scale(1 1)" clip-path="none"></g><g class="highcharts-series highcharts-series-1"  transform="translate(20,10) scale(1 1)" clip-path="url(#highcharts-198)"><circle cx="19.93614791011526" cy="38.5" r="5.5" stroke="#D071C3" stroke-width="1" fill="rgb(208,113,195)" fill-opacity="0.5"></circle><circle cx="5.885249625410798" cy="20.625" r="5.5" stroke="#D071C3" stroke-width="1" fill="rgb(208,113,195)" fill-opacity="0.5"></circle><circle cx="11.383427215077761" cy="26.4" r="4.5" stroke="#D071C3" stroke-width="1" fill="rgb(208,113,195)" fill-opacity="0.5"></circle><circle cx="57.2015737956358" cy="26.124999999999996" r="5.5" stroke="#D071C3" stroke-width="1" fill="rgb(208,113,195)" fill-opacity="0.5"></circle><circle cx="7.717975488633119" cy="40.425" r="5.5" stroke="#D071C3" stroke-width="1" fill="rgb(208,113,195)" fill-opacity="0.5"></circle><circle cx="59.64520827993223" cy="23.924999999999997" r="5.5" stroke="#D071C3" stroke-width="1" fill="rgb(208,113,195)" fill-opacity="0.5"></circle><circle cx="60.25611690100634" cy="32.175" r="5" stroke="#D071C3" stroke-width="1" fill="rgb(208,113,195)" fill-opacity="0.5"></circle><circle cx="63.92156862745098" cy="40.425" r="5.5" stroke="#D071C3" stroke-width="1" fill="rgb(208,113,195)" fill-opacity="0.5"></circle><circle cx="13.82706169937419" cy="22.824999999999996" r="5.5" stroke="#D071C3" stroke-width="1" fill="rgb(208,113,195)" fill-opacity="0.5"></circle><circle cx="37.65249792126437" cy="34.375" r="5.5" stroke="#D071C3" stroke-width="1" fill="rgb(208,113,195)" fill-opacity="0.5"></circle></g><g class="highcharts-markers highcharts-series-1"  transform="translate(20,10) scale(1 1)" clip-path="none"></g><g class="highcharts-series highcharts-series-2"  transform="translate(20,10) scale(1 1)" clip-path="url(#highcharts-198)"></g><g class="highcharts-markers highcharts-series-2"  transform="translate(20,10) scale(1 1)" clip-path="none"></g></g><text x="50" text-anchor="middle" class="highcharts-title"  style="color:#333333;font-size:18px;fill:#333333;width:36px;" y="24"></text><g class="highcharts-axis-labels highcharts-xaxis-labels" ></g><g class="highcharts-axis-labels highcharts-yaxis-labels" ></g><g class="highcharts-tooltip"  style="cursor:default;padding:0;pointer-events:none;white-space:nowrap;" transform="translate(0,-9999)"><path fill="none" d="M 3.5 0.5 L 13.5 0.5 C 16.5 0.5 16.5 0.5 16.5 3.5 L 16.5 13.5 C 16.5 16.5 16.5 16.5 13.5 16.5 L 3.5 16.5 C 0.5 16.5 0.5 16.5 0.5 13.5 L 0.5 3.5 C 0.5 0.5 0.5 0.5 3.5 0.5"  stroke="black" stroke-opacity="0.049999999999999996" stroke-width="5" transform="translate(1, 1)"></path><path fill="none" d="M 3.5 0.5 L 13.5 0.5 C 16.5 0.5 16.5 0.5 16.5 3.5 L 16.5 13.5 C 16.5 16.5 16.5 16.5 13.5 16.5 L 3.5 16.5 C 0.5 16.5 0.5 16.5 0.5 13.5 L 0.5 3.5 C 0.5 0.5 0.5 0.5 3.5 0.5"  stroke="black" stroke-opacity="0.09999999999999999" stroke-width="3" transform="translate(1, 1)"></path><path fill="none" d="M 3.5 0.5 L 13.5 0.5 C 16.5 0.5 16.5 0.5 16.5 3.5 L 16.5 13.5 C 16.5 16.5 16.5 16.5 13.5 16.5 L 3.5 16.5 C 0.5 16.5 0.5 16.5 0.5 13.5 L 0.5 3.5 C 0.5 0.5 0.5 0.5 3.5 0.5"  stroke="black" stroke-opacity="0.15" stroke-width="1" transform="translate(1, 1)"></path><path fill="rgb(249, 249, 249)" fill-opacity=" .85" d="M 3.5 0.5 L 13.5 0.5 C 16.5 0.5 16.5 0.5 16.5 3.5 L 16.5 13.5 C 16.5 16.5 16.5 16.5 13.5 16.5 L 3.5 16.5 C 0.5 16.5 0.5 16.5 0.5 13.5 L 0.5 3.5 C 0.5 0.5 0.5 0.5 3.5 0.5"></path><text x="8"  style="font-size:12px;color:#333333;fill:#333333;" y="20"></text></g></svg>