<svg xmlns="http://www.w3.org/2000/svg" xmlns:xlink="http://www.w3.org/1999/xlink" version="1.1" x="0px" y="0px" viewBox="0 0 100 125" enable-background="new 0 0 100 100" xml:space="preserve"><g><g><path d="M95,97H4.5C3.671,97,3,96.328,3,95.5V5c0-0.829,0.671-1.5,1.5-1.5S6,4.171,6,5v89h89c0.828,0,1.5,0.672,1.5,1.5    S95.828,97,95,97z"/></g><g><path d="M50.5,63.5C42.505,63.5,36,56.995,36,49s6.505-14.5,14.5-14.5S65,41.005,65,49S58.495,63.5,50.5,63.5z M50.5,36.5    C43.607,36.5,38,42.107,38,49s5.607,12.5,12.5,12.5S63,55.893,63,49S57.393,36.5,50.5,36.5z"/></g><g><path d="M23.5,71.5c-4.687,0-8.5-3.813-8.5-8.5s3.813-8.5,8.5-8.5S32,58.313,32,63S28.187,71.5,23.5,71.5z M23.5,56.5    c-3.584,0-6.5,2.916-6.5,6.5s2.916,6.5,6.5,6.5S30,66.584,30,63S27.084,56.5,23.5,56.5z"/></g><g><path d="M76.5,58.5c-4.687,0-8.5-3.813-8.5-8.5c0-4.687,3.813-8.5,8.5-8.5S85,45.313,85,50C85,54.687,81.187,58.5,76.5,58.5z     M76.5,43.5c-3.584,0-6.5,2.916-6.5,6.5s2.916,6.5,6.5,6.5S83,53.584,83,50S80.084,43.5,76.5,43.5z"/></g><g><path d="M51.5,31.5c-4.687,0-8.5-3.813-8.5-8.5s3.813-8.5,8.5-8.5c4.687,0,8.5,3.813,8.5,8.5S56.187,31.5,51.5,31.5z M51.5,16.5    c-3.584,0-6.5,2.916-6.5,6.5s2.916,6.5,6.5,6.5S58,26.584,58,23S55.084,16.5,51.5,16.5z"/></g></g><text x="0" y="115" fill="#000000" font-size="5px" font-weight="bold" font-family="'Helvetica Neue', Helvetica, Arial-Unicode, Arial, Sans-serif">Created by Agus Purwanto</text><text x="0" y="120" fill="#000000" font-size="5px" font-weight="bold" font-family="'Helvetica Neue', Helvetica, Arial-Unicode, Arial, Sans-serif">from the Noun Project</text></svg>