<!DOCTYPE svg PUBLIC "-//W3C//DTD SVG 1.1//EN" "http://www.w3.org/Graphics/SVG/1.1/DTD/svg11.dtd"><svg xmlns:xlink="http://www.w3.org/1999/xlink" version="1.1" style="font-family:'lucida grande', 'lucida sans unicode', arial, helvetica, sans-serif;font-size:8px;" xmlns="http://www.w3.org/2000/svg" width="600" height="400"><desc>Created with Highcharts 4.1.9</desc><defs><clipPath id="highcharts-10"><rect x="0" y="0" width="273" height="497"></rect></clipPath></defs><rect x="0" y="0" width="600" height="400" strokeWidth="0" fill="#FFFFFF" class=" highcharts-background"></rect><g class="highcharts-grid" ></g><g class="highcharts-grid" ><path fill="none" d="M 92.5 42 L 92.5 315" stroke="#D8D8D8" stroke-width="1"  opacity="1"></path><path fill="none" d="M 142.5 42 L 142.5 315" stroke="#D8D8D8" stroke-width="1"  opacity="1"></path><path fill="none" d="M 191.5 42 L 191.5 315" stroke="#D8D8D8" stroke-width="1"  opacity="1"></path><path fill="none" d="M 241.5 42 L 241.5 315" stroke="#D8D8D8" stroke-width="1"  opacity="1"></path><path fill="none" d="M 291.5 42 L 291.5 315" stroke="#D8D8D8" stroke-width="1"  opacity="1"></path><path fill="none" d="M 341.5 42 L 341.5 315" stroke="#D8D8D8" stroke-width="1"  opacity="1"></path><path fill="none" d="M 390.5 42 L 390.5 315" stroke="#D8D8D8" stroke-width="1"  opacity="1"></path><path fill="none" d="M 440.5 42 L 440.5 315" stroke="#D8D8D8" stroke-width="1"  opacity="1"></path><path fill="none" d="M 490.5 42 L 490.5 315" stroke="#D8D8D8" stroke-width="1"  opacity="1"></path><path fill="none" d="M 539.5 42 L 539.5 315" stroke="#D8D8D8" stroke-width="1"  opacity="1"></path><path fill="none" d="M 590.5 42 L 590.5 315" stroke="#D8D8D8" stroke-width="1"  opacity="1"></path></g><g class="highcharts-axis" ><path fill="none" d="M 93 97.5 L 83 97.5" stroke="#C0D0E0" stroke-width="1" opacity="1"></path><path fill="none" d="M 93 151.5 L 83 151.5" stroke="#C0D0E0" stroke-width="1" opacity="1"></path><path fill="none" d="M 93 206.5 L 83 206.5" stroke="#C0D0E0" stroke-width="1" opacity="1"></path><path fill="none" d="M 93 260.5 L 83 260.5" stroke="#C0D0E0" stroke-width="1" opacity="1"></path><path fill="none" d="M 93 315.5 L 83 315.5" stroke="#C0D0E0" stroke-width="1" opacity="1"></path><path fill="none" d="M 93 41.5 L 83 41.5" stroke="#C0D0E0" stroke-width="1" opacity="1"></path><path fill="none" d="M 92.5 42 L 92.5 315" stroke="#C0D0E0" stroke-width="1"  visibility="visible"></path></g><g class="highcharts-axis" ><text x="341.5"  text-anchor="middle" transform="translate(0,0)" class=" highcharts-yaxis-title" style="color:#707070;fill:#707070;" visibility="visible" y="350">Values</text></g><g class="highcharts-series-group" ><g class="highcharts-series highcharts-series-0" visibility="visible"  transform="translate(590,315) rotate(90) scale(-1,1) scale(1 1)" width="497" height="273" clip-path="url(#highcharts-10)"><rect x="218" y="399" width="19" height="99" fill="#7cb5ec" rx="0" ry="0"></rect><rect x="164" y="399" width="18" height="99" fill="#7cb5ec" rx="0" ry="0"></rect><rect x="109" y="399" width="18" height="99" fill="#7cb5ec" rx="0" ry="0"></rect><rect x="55" y="399" width="18" height="99" fill="#7cb5ec" rx="0" ry="0"></rect><rect x="0" y="399" width="18" height="99" fill="#7cb5ec" rx="0" ry="0"></rect></g><g class="highcharts-markers highcharts-series-0" visibility="visible"  transform="translate(590,315) rotate(90) scale(-1,1) scale(1 1)" width="497" height="273" clip-path="none"></g><g class="highcharts-series highcharts-series-1" visibility="visible"  transform="translate(590,315) rotate(90) scale(-1,1) scale(1 1)" width="497" height="273" clip-path="url(#highcharts-10)"><rect x="237" y="158" width="18" height="340" fill="#434348" rx="0" ry="0"></rect><rect x="182" y="230" width="18" height="268" fill="#434348" rx="0" ry="0"></rect><rect x="127" y="216" width="19" height="282" fill="#434348" rx="0" ry="0"></rect><rect x="73" y="92" width="18" height="406" fill="#434348" rx="0" ry="0"></rect><rect x="18" y="122" width="18" height="376" fill="#434348" rx="0" ry="0"></rect></g><g class="highcharts-markers highcharts-series-1" visibility="visible"  transform="translate(590,315) rotate(90) scale(-1,1) scale(1 1)" width="497" height="273" clip-path="none"></g><g class="highcharts-series highcharts-series-2" visibility="visible"  transform="translate(590,315) rotate(90) scale(-1,1) scale(1 1)" width="497" height="273" clip-path="url(#highcharts-10)"><rect x="255" y="142" width="18" height="356" fill="#90ed7d" rx="0" ry="0"></rect><rect x="200" y="214" width="18" height="284" fill="#90ed7d" rx="0" ry="0"></rect><rect x="146" y="202" width="18" height="296" fill="#90ed7d" rx="0" ry="0"></rect><rect x="91" y="61" width="18" height="437" fill="#90ed7d" rx="0" ry="0"></rect><rect x="36" y="102" width="19" height="396" fill="#90ed7d" rx="0" ry="0"></rect></g><g class="highcharts-markers highcharts-series-2" visibility="visible"  transform="translate(590,315) rotate(90) scale(-1,1) scale(1 1)" width="497" height="273" clip-path="none"></g></g><text x="300" text-anchor="middle" class="highcharts-title"  style="color:#333333;font-size:18px;fill:#333333;width:536px;" y="24"><tspan>Chart title</tspan></text><g class="highcharts-legend"  transform="translate(180,362)"><g ><g><g class="highcharts-legend-item"  transform="translate(8,3)"><text x="21" style="color:#333333;font-size:8px;font-weight:bold;cursor:pointer;fill:#333333;" text-anchor="start"  y="15">test</text><rect x="0" y="4" width="16" height="12"  fill="#7cb5ec"></rect></g><g class="highcharts-legend-item"  transform="translate(71,3)"><text x="21" y="15" style="color:#333333;font-size:8px;font-weight:bold;cursor:pointer;fill:#333333;" text-anchor="start" >lowpoint</text><rect x="0" y="4" width="16" height="12"  fill="#434348"></rect></g><g class="highcharts-legend-item"  transform="translate(159,3)"><text x="21" y="15" style="color:#333333;font-size:8px;font-weight:bold;cursor:pointer;fill:#333333;" text-anchor="start" >highpoint</text><rect x="0" y="4" width="16" height="12"  fill="#90ed7d"></rect></g></g></g></g><g class="highcharts-axis-labels highcharts-xaxis-labels" ><text x="78" style="color:#606060;cursor:default;font-size:11px;fill:#606060;width:188px;text-overflow:clip;" text-anchor="end" transform="translate(0,0)" y="75" opacity="1"><tspan>experiment 6</tspan></text><text x="78" style="color:#606060;cursor:default;font-size:11px;fill:#606060;width:188px;text-overflow:clip;" text-anchor="end" transform="translate(0,0)" y="130" opacity="1"><tspan>experiment 7</tspan></text><text x="78" style="color:#606060;cursor:default;font-size:11px;fill:#606060;width:188px;text-overflow:clip;" text-anchor="end" transform="translate(0,0)" y="185" opacity="1"><tspan>experiment 8</tspan></text><text x="78" style="color:#606060;cursor:default;font-size:11px;fill:#606060;width:188px;text-overflow:clip;" text-anchor="end" transform="translate(0,0)" y="239" opacity="1"><tspan>experiment 9</tspan></text><text x="78" style="color:#606060;cursor:default;font-size:11px;fill:#606060;width:188px;text-overflow:clip;" text-anchor="end" transform="translate(0,0)" y="294" opacity="1"><tspan>experiment 10</tspan></text></g><g class="highcharts-axis-labels highcharts-yaxis-labels" ><text x="93" style="color:#606060;cursor:default;font-size:11px;fill:#606060;" text-anchor="middle" transform="translate(0,0)" y="334" opacity="1">0</text><text x="142.7" style="color:#606060;cursor:default;font-size:11px;fill:#606060;" text-anchor="middle" transform="translate(0,0)" y="334" opacity="1">25</text><text x="192.4" style="color:#606060;cursor:default;font-size:11px;fill:#606060;" text-anchor="middle" transform="translate(0,0)" y="334" opacity="1">50</text><text x="242.1" style="color:#606060;cursor:default;font-size:11px;fill:#606060;" text-anchor="middle" transform="translate(0,0)" y="334" opacity="1">75</text><text x="291.8" style="color:#606060;cursor:default;font-size:11px;fill:#606060;" text-anchor="middle" transform="translate(0,0)" y="334" opacity="1">100</text><text x="341.5" style="color:#606060;cursor:default;font-size:11px;fill:#606060;" text-anchor="middle" transform="translate(0,0)" y="334" opacity="1">125</text><text x="391.2" style="color:#606060;cursor:default;font-size:11px;fill:#606060;" text-anchor="middle" transform="translate(0,0)" y="334" opacity="1">150</text><text x="440.9" style="color:#606060;cursor:default;font-size:11px;fill:#606060;" text-anchor="middle" transform="translate(0,0)" y="334" opacity="1">175</text><text x="490.6" style="color:#606060;cursor:default;font-size:11px;fill:#606060;" text-anchor="middle" transform="translate(0,0)" y="334" opacity="1">200</text><text x="540.3" style="color:#606060;cursor:default;font-size:11px;fill:#606060;" text-anchor="middle" transform="translate(0,0)" y="334" opacity="1">225</text><text x="581" style="color:#606060;cursor:default;font-size:11px;fill:#606060;" text-anchor="middle" transform="translate(0,0)" y="334" opacity="1">250</text></g><g class="highcharts-tooltip"  style="cursor:default;padding:0;pointer-events:none;white-space:nowrap;" transform="translate(0,-9999)"><path fill="none" d="M 3.5 0.5 L 13.5 0.5 C 16.5 0.5 16.5 0.5 16.5 3.5 L 16.5 13.5 C 16.5 16.5 16.5 16.5 13.5 16.5 L 3.5 16.5 C 0.5 16.5 0.5 16.5 0.5 13.5 L 0.5 3.5 C 0.5 0.5 0.5 0.5 3.5 0.5"  stroke="black" stroke-opacity="0.049999999999999996" stroke-width="5" transform="translate(1, 1)"></path><path fill="none" d="M 3.5 0.5 L 13.5 0.5 C 16.5 0.5 16.5 0.5 16.5 3.5 L 16.5 13.5 C 16.5 16.5 16.5 16.5 13.5 16.5 L 3.5 16.5 C 0.5 16.5 0.5 16.5 0.5 13.5 L 0.5 3.5 C 0.5 0.5 0.5 0.5 3.5 0.5"  stroke="black" stroke-opacity="0.09999999999999999" stroke-width="3" transform="translate(1, 1)"></path><path fill="none" d="M 3.5 0.5 L 13.5 0.5 C 16.5 0.5 16.5 0.5 16.5 3.5 L 16.5 13.5 C 16.5 16.5 16.5 16.5 13.5 16.5 L 3.5 16.5 C 0.5 16.5 0.5 16.5 0.5 13.5 L 0.5 3.5 C 0.5 0.5 0.5 0.5 3.5 0.5"  stroke="black" stroke-opacity="0.15" stroke-width="1" transform="translate(1, 1)"></path><path fill="rgb(249, 249, 249)" fill-opacity=" .85" d="M 3.5 0.5 L 13.5 0.5 C 16.5 0.5 16.5 0.5 16.5 3.5 L 16.5 13.5 C 16.5 16.5 16.5 16.5 13.5 16.5 L 3.5 16.5 C 0.5 16.5 0.5 16.5 0.5 13.5 L 0.5 3.5 C 0.5 0.5 0.5 0.5 3.5 0.5"></path><text x="8"  style="font-size:8px;color:#333333;fill:#333333;" y="20"></text></g><text x="590" text-anchor="end"  style="cursor:pointer;color:#909090;font-size:9px;fill:#909090;" y="395">Highcharts.com</text></svg>