<?xml version="1.0" encoding="utf-8"?>
<!-- Generator: Adobe Illustrator 19.0.1, SVG Export Plug-In . SVG Version: 6.00 Build 0)  -->
<svg version="1.1" id="Layer_1" xmlns="http://www.w3.org/2000/svg" xmlns:xlink="http://www.w3.org/1999/xlink" x="0px" y="0px"
	 viewBox="-461 322 100 100" style="enable-background:new -461 322 100 100;" xml:space="preserve">
<g>
	<g>
		<path d="M-366,419h-90.5c-0.8,0-1.5-0.7-1.5-1.5V327c0-0.8,0.7-1.5,1.5-1.5s1.5,0.7,1.5,1.5v89h89c0.8,0,1.5,0.7,1.5,1.5
			S-365.2,419-366,419z"/>
	</g>
	<g>
		<path d="M-403,382v34h-16v-34H-403 M-403,380h-16c-1.1,0-2,0.9-2,2v34c0,1.1,0.9,2,2,2h16c1.1,0,2-0.9,2-2v-34
			C-401,380.9-401.9,380-403,380L-403,380z"/>
	</g>
	<g>
		<path d="M-427,362v54h-17v-54H-427 M-427,360h-17c-1.1,0-2,0.9-2,2v54c0,1.1,0.9,2,2,2h17c1.1,0,2-0.9,2-2v-54
			C-425,360.9-425.9,360-427,360L-427,360z"/>
	</g>
	<g>
		<path d="M-378,342v74h-17v-74H-378 M-378,340h-17c-1.1,0-2,0.9-2,2v74c0,1.1,0.9,2,2,2h17c1.1,0,2-0.9,2-2v-74
			C-376,340.9-376.9,340-378,340L-378,340z"/>
	</g>
</g>
</svg>
