<svg xmlns:xlink="http://www.w3.org/1999/xlink" version="1.1" style="font-family:'lucida grande', 'lucida sans unicode', arial, helvetica, sans-serif;font-size:8px;" xmlns="http://www.w3.org/2000/svg" width="100" height="80"><desc>Created with Highcharts 4.2.3</desc><defs><clipPath id="highcharts-75"><rect x="0" y="0" width="80" height="55"></rect></clipPath></defs><rect x="0" y="0" width="100" height="80" fill="#FFFFFF" class=" highcharts-background"></rect><g class="highcharts-grid" ></g><g class="highcharts-grid" ><path fill="none" d="M 10 65.5 L 90 65.5" stroke="#D8D8D8" stroke-width="1"  opacity="1"></path><path fill="none" d="M 10 10.5 L 90 10.5" stroke="#D8D8D8" stroke-width="1"  opacity="1"></path></g><g class="highcharts-axis" ><path fill="none" d="M 10 65.5 L 90 65.5" stroke="#C0D0E0" stroke-width="1" ></path></g><g class="highcharts-axis" ></g><g class="highcharts-series-group" ><g class="highcharts-series highcharts-series-0"  transform="translate(10,10) scale(1 1)" clip-path="url(#highcharts-75)"><rect x="6.5" y="-0.5" width="13" height="22" stroke="#FFFFFF" stroke-width="1" fill="#b05dbf" rx="0" ry="0"></rect><rect x="33.5" y="-0.5" width="13" height="19" stroke="#FFFFFF" stroke-width="1" fill="#b05dbf" rx="0" ry="0"></rect><rect x="59.5" y="-0.5" width="13" height="33" stroke="#FFFFFF" stroke-width="1" fill="#b05dbf" rx="0" ry="0"></rect></g><g class="highcharts-markers highcharts-series-0"  transform="translate(10,10) scale(1 1)" clip-path="none"></g><g class="highcharts-series highcharts-series-1"  transform="translate(10,10) scale(1 1)" clip-path="url(#highcharts-75)"><rect x="6.5" y="21.5" width="13" height="34" stroke="#FFFFFF" stroke-width="1" fill="#e5da04" rx="0" ry="0"></rect><rect x="33.5" y="18.5" width="13" height="37" stroke="#FFFFFF" stroke-width="1" fill="#e5da04" rx="0" ry="0"></rect><rect x="59.5" y="32.5" width="13" height="23" stroke="#FFFFFF" stroke-width="1" fill="#e5da04" rx="0" ry="0"></rect></g><g class="highcharts-markers highcharts-series-1"  transform="translate(10,10) scale(1 1)" clip-path="none"></g></g><g class="highcharts-data-labels highcharts-series-0"  visibility="visible" transform="translate(10,10) scale(1 1)" opacity="1"><g  style="" transform="translate(4,-1)"><text x="5"  style="font-size:11px;font-weight:bold;color:#000000;text-shadow:0 0 6px #ffffff, 0 0 3px #ffffff;fill:#000000;text-rendering:geometricprecision;" y="16"><tspan>7</tspan></text></g><g  style="" transform="translate(31,-2)"><text x="5"  style="font-size:11px;font-weight:bold;color:#000000;text-shadow:0 0 6px #ffffff, 0 0 3px #ffffff;fill:#000000;text-rendering:geometricprecision;" y="16"><tspan>6</tspan></text></g><g  style="" transform="translate(54,5)"><text x="5"  style="font-size:11px;font-weight:bold;color:#000000;text-shadow:0 0 6px #ffffff, 0 0 3px #ffffff;fill:#000000;text-rendering:geometricprecision;" y="16"><tspan>11</tspan></text></g></g><g class="highcharts-data-labels highcharts-series-1"  visibility="visible" transform="translate(10,10) scale(1 1)" opacity="1"><g  style="" transform="translate(1,27)"><text x="5"  style="font-size:11px;font-weight:bold;color:#000000;text-shadow:0 0 6px #ffffff, 0 0 3px #ffffff;fill:#000000;text-rendering:geometricprecision;" y="16"><tspan>11</tspan></text></g><g  style="" transform="translate(28,25)"><text x="5"  style="font-size:11px;font-weight:bold;color:#000000;text-shadow:0 0 6px #ffffff, 0 0 3px #ffffff;fill:#000000;text-rendering:geometricprecision;" y="16"><tspan>12</tspan></text></g><g  style="" transform="translate(57,32)"><text x="5"  style="font-size:11px;font-weight:bold;color:#000000;text-shadow:0 0 6px #ffffff, 0 0 3px #ffffff;fill:#000000;text-rendering:geometricprecision;" y="16"><tspan>8</tspan></text></g></g><g class="highcharts-axis-labels highcharts-xaxis-labels" ></g><g class="highcharts-axis-labels highcharts-yaxis-labels" ></g><g class="highcharts-tooltip"  style="cursor:default;padding:0;pointer-events:none;white-space:nowrap;" transform="translate(0,-9999)"><path fill="none" d="M 3.5 0.5 L 13.5 0.5 C 16.5 0.5 16.5 0.5 16.5 3.5 L 16.5 13.5 C 16.5 16.5 16.5 16.5 13.5 16.5 L 3.5 16.5 C 0.5 16.5 0.5 16.5 0.5 13.5 L 0.5 3.5 C 0.5 0.5 0.5 0.5 3.5 0.5"  stroke="black" stroke-opacity="0.049999999999999996" stroke-width="5" transform="translate(1, 1)"></path><path fill="none" d="M 3.5 0.5 L 13.5 0.5 C 16.5 0.5 16.5 0.5 16.5 3.5 L 16.5 13.5 C 16.5 16.5 16.5 16.5 13.5 16.5 L 3.5 16.5 C 0.5 16.5 0.5 16.5 0.5 13.5 L 0.5 3.5 C 0.5 0.5 0.5 0.5 3.5 0.5"  stroke="black" stroke-opacity="0.09999999999999999" stroke-width="3" transform="translate(1, 1)"></path><path fill="none" d="M 3.5 0.5 L 13.5 0.5 C 16.5 0.5 16.5 0.5 16.5 3.5 L 16.5 13.5 C 16.5 16.5 16.5 16.5 13.5 16.5 L 3.5 16.5 C 0.5 16.5 0.5 16.5 0.5 13.5 L 0.5 3.5 C 0.5 0.5 0.5 0.5 3.5 0.5"  stroke="black" stroke-opacity="0.15" stroke-width="1" transform="translate(1, 1)"></path><path fill="rgb(249, 249, 249)" fill-opacity=" .85" d="M 3.5 0.5 L 13.5 0.5 C 16.5 0.5 16.5 0.5 16.5 3.5 L 16.5 13.5 C 16.5 16.5 16.5 16.5 13.5 16.5 L 3.5 16.5 C 0.5 16.5 0.5 16.5 0.5 13.5 L 0.5 3.5 C 0.5 0.5 0.5 0.5 3.5 0.5"></path><text x="8"  style="font-size:8px;color:#333333;fill:#333333;" y="20"></text></g></svg>