<svg xmlns:xlink="http://www.w3.org/1999/xlink" version="1.1" style="font-family:'lucida grande', 'lucida sans unicode', arial, helvetica, sans-serif;font-size:8px;" xmlns="http://www.w3.org/2000/svg" width="100" height="80"><desc>Created with Highcharts 4.2.3</desc><defs><clipPath id="highcharts-40"><rect x="0" y="0" width="80" height="55"></rect></clipPath></defs><rect x="0" y="0" width="100" height="80" fill="#FFFFFF" class=" highcharts-background"></rect><g class="highcharts-grid" ></g><g class="highcharts-grid" ><path fill="none" d="M 10 65.5 L 90 65.5" stroke="#D8D8D8" stroke-width="1"  opacity="1"></path><path fill="none" d="M 10 9.5 L 90 9.5" stroke="#D8D8D8" stroke-width="1"  opacity="1"></path></g><g class="highcharts-axis" ><path fill="none" d="M 10 65.5 L 90 65.5" stroke="#C0D0E0" stroke-width="1" ></path></g><g class="highcharts-axis" ></g><g class="highcharts-series-group" ><g class="highcharts-series highcharts-series-0"  transform="translate(10,10) scale(1 1)" clip-path="url(#highcharts-40)"><rect x="3.5" y="45.5" width="8" height="10" stroke="#FFFFFF" stroke-width="1" fill="#b05dbf" rx="0" ry="0"></rect><rect x="19.5" y="46.5" width="8" height="9" stroke="#FFFFFF" stroke-width="1" fill="#b05dbf" rx="0" ry="0"></rect><rect x="35.5" y="42.5" width="8" height="13" stroke="#FFFFFF" stroke-width="1" fill="#b05dbf" rx="0" ry="0"></rect><rect x="51.5" y="35.5" width="8" height="20" stroke="#FFFFFF" stroke-width="1" fill="#b05dbf" rx="0" ry="0"></rect><rect x="67.5" y="25.5" width="8" height="30" stroke="#FFFFFF" stroke-width="1" fill="#b05dbf" rx="0" ry="0"></rect></g><g class="highcharts-markers highcharts-series-0"  transform="translate(10,10) scale(1 1)" clip-path="none"></g><g class="highcharts-series highcharts-series-1"  transform="translate(10,10) scale(1 1)" clip-path="url(#highcharts-40)"><g><path fill="none" d="M 7.5 48 L 7.5 44 M 7.5 48 L 7.5 48" stroke="#000000" stroke-width="1"></path><path fill="none" d="M 5.5 44.5 L 9.5 44.5 M 5.5 48.5 L 9.5 48.5" stroke="#000000" stroke-width="1"></path><path fill="none" d="M 0 0" stroke="#000000" stroke-width="2"></path></g><g><path fill="none" d="M 23.5 46 L 23.5 44 M 23.5 46 L 23.5 46" stroke="#000000" stroke-width="1"></path><path fill="none" d="M 21.5 44.5 L 25.5 44.5 M 21.5 46.5 L 25.5 46.5" stroke="#000000" stroke-width="1"></path><path fill="none" d="M 0 0" stroke="#000000" stroke-width="2"></path></g><g><path fill="none" d="M 39.5 44 L 39.5 41 M 39.5 44 L 39.5 44" stroke="#000000" stroke-width="1"></path><path fill="none" d="M 37.5 41.5 L 41.5 41.5 M 37.5 44.5 L 41.5 44.5" stroke="#000000" stroke-width="1"></path><path fill="none" d="M 0 0" stroke="#000000" stroke-width="2"></path></g><g><path fill="none" d="M 55.5 38 L 55.5 33 M 55.5 38 L 55.5 38" stroke="#000000" stroke-width="1"></path><path fill="none" d="M 53.5 33.5 L 57.5 33.5 M 53.5 38.5 L 57.5 38.5" stroke="#000000" stroke-width="1"></path><path fill="none" d="M 0 0" stroke="#000000" stroke-width="2"></path></g><g><path fill="none" d="M 71.5 30 L 71.5 23 M 71.5 30 L 71.5 30" stroke="#000000" stroke-width="1"></path><path fill="none" d="M 69.5 23.5 L 73.5 23.5 M 69.5 30.5 L 73.5 30.5" stroke="#000000" stroke-width="1"></path><path fill="none" d="M 0 0" stroke="#000000" stroke-width="2"></path></g></g><g class="highcharts-markers highcharts-series-1"  transform="translate(10,10) scale(1 1)" clip-path="none"></g></g><g class="highcharts-axis-labels highcharts-xaxis-labels" ></g><g class="highcharts-axis-labels highcharts-yaxis-labels" ></g><g class="highcharts-tooltip"  style="cursor:default;padding:0;pointer-events:none;white-space:nowrap;" transform="translate(0,-9999)"><path fill="none" d="M 3.5 0.5 L 13.5 0.5 C 16.5 0.5 16.5 0.5 16.5 3.5 L 16.5 13.5 C 16.5 16.5 16.5 16.5 13.5 16.5 L 3.5 16.5 C 0.5 16.5 0.5 16.5 0.5 13.5 L 0.5 3.5 C 0.5 0.5 0.5 0.5 3.5 0.5"  stroke="black" stroke-opacity="0.049999999999999996" stroke-width="5" transform="translate(1, 1)"></path><path fill="none" d="M 3.5 0.5 L 13.5 0.5 C 16.5 0.5 16.5 0.5 16.5 3.5 L 16.5 13.5 C 16.5 16.5 16.5 16.5 13.5 16.5 L 3.5 16.5 C 0.5 16.5 0.5 16.5 0.5 13.5 L 0.5 3.5 C 0.5 0.5 0.5 0.5 3.5 0.5"  stroke="black" stroke-opacity="0.09999999999999999" stroke-width="3" transform="translate(1, 1)"></path><path fill="none" d="M 3.5 0.5 L 13.5 0.5 C 16.5 0.5 16.5 0.5 16.5 3.5 L 16.5 13.5 C 16.5 16.5 16.5 16.5 13.5 16.5 L 3.5 16.5 C 0.5 16.5 0.5 16.5 0.5 13.5 L 0.5 3.5 C 0.5 0.5 0.5 0.5 3.5 0.5"  stroke="black" stroke-opacity="0.15" stroke-width="1" transform="translate(1, 1)"></path><path fill="rgb(249, 249, 249)" fill-opacity=" .85" d="M 3.5 0.5 L 13.5 0.5 C 16.5 0.5 16.5 0.5 16.5 3.5 L 16.5 13.5 C 16.5 16.5 16.5 16.5 13.5 16.5 L 3.5 16.5 C 0.5 16.5 0.5 16.5 0.5 13.5 L 0.5 3.5 C 0.5 0.5 0.5 0.5 3.5 0.5"></path><text x="8"  style="font-size:8px;color:#333333;fill:#333333;" y="20"></text></g></svg>