<?xml version="1.0" encoding="utf-8"?>
<!-- Generator: Adobe Illustrator 19.1.0, SVG Export Plug-In . SVG Version: 6.00 Build 0)  -->
<svg version="1.1" id="Layer_1" xmlns="http://www.w3.org/2000/svg" xmlns:xlink="http://www.w3.org/1999/xlink" x="0px" y="0px"
	 viewBox="-545 791.8 100 100" style="enable-background:new -545 791.8 100 100;" xml:space="preserve">
<g>
	<g>
		<path d="M-453,891.8h-90.5c-0.8,0-1.5-0.7-1.5-1.5v-90.5c0-0.8,0.7-1.5,1.5-1.5s1.5,0.7,1.5,1.5v89h89c0.8,0,1.5,0.7,1.5,1.5
			S-452.2,891.8-453,891.8z"/>
	</g>
	<g>
		<path d="M-490,844.8v44h-16v-44H-490 M-490,842.8h-16c-1.1,0-2,0.9-2,2v44c0,1.1,0.9,2,2,2h16c1.1,0,2-0.9,2-2v-44
			C-488,843.7-488.9,842.8-490,842.8L-490,842.8z"/>
	</g>
	<g>
		<path d="M-490,818.8v24h-16v-24H-490 M-490,816.8h-16c-1.1,0-2,0.9-2,2v24c0,1.1,0.9,2,2,2h16c1.1,0,2-0.9,2-2v-24
			C-488,817.7-488.9,816.8-490,816.8L-490,816.8z"/>
	</g>
	<g>
		<path d="M-514,854.8v34h-17v-34H-514 M-514,852.8h-17c-1.1,0-2,0.9-2,2v34c0,1.1,0.9,2,2,2h17c1.1,0,2-0.9,2-2v-34
			C-512,853.7-512.9,852.8-514,852.8L-514,852.8z"/>
	</g>
	<g>
		<path d="M-514,818.8v34h-17v-34H-514 M-514,816.8h-17c-1.1,0-2,0.9-2,2v34c0,1.1,0.9,2,2,2h17c1.1,0,2-0.9,2-2v-34
			C-512,817.7-512.9,816.8-514,816.8L-514,816.8z"/>
	</g>
	<g>
		<path d="M-465,864.8v24h-17v-24H-465 M-465,862.8h-17c-1.1,0-2,0.9-2,2v24c0,1.1,0.9,2,2,2h17c1.1,0,2-0.9,2-2v-24
			C-463,863.7-463.9,862.8-465,862.8L-465,862.8z"/>
	</g>
	<g>
		<path d="M-465,818.8v44h-17v-44H-465 M-465,816.8h-17c-1.1,0-2,0.9-2,2v44c0,1.1,0.9,2,2,2h17c1.1,0,2-0.9,2-2v-44
			C-463,817.7-463.9,816.8-465,816.8L-465,816.8z"/>
	</g>
</g>
</svg>
