<svg xmlns="http://www.w3.org/2000/svg" viewBox="638 1148.2 100 70"><path d="M643 1151.5h90m-90 15.9h90m-90 15.8h90m-90 15.9h90m-90 15.9h90" fill="none" stroke="#CCC" stroke-width=".25" stroke-miterlimit="10"/><path fill="none" stroke="#7CB5EC" stroke-width="6" stroke-miterlimit="10" d="M663.3 1187.4v-26.7M651 1195v-27.6m37 4.8v9m12.3-16.3v-7.5m-24.6 28.5v-12m49.3 30.2v-11.6m-12.3-12.5v-17.8"/><path fill="#CCC" d="M648.3 1162.4h5.4v4h-5.4zm12.3-6.7h5.4v4h-5.4zm49.4 1.5h5.4v4H710zm-12.4-4.8h5.4v4h-5.4zm24.7 35.1h5.4v4h-5.4zm-37-20.3h5.4v4h-5.4zm37 37.9h5.4v4h-5.4zm-49.3-36.2h5.4v4H673zm-24.7 27.1h5.4v4h-5.4zm12.3-7.6h5.4v4h-5.4zm24.7-6.2h5.4v4h-5.4zm12.3-16.3h5.4v4h-5.4zm-24.6 21h5.4v4H673zm37-5.9h5.4v4H710z"/></svg>