<svg xmlns:xlink="http://www.w3.org/1999/xlink" version="1.1" style="font-family:'lucida grande', 'lucida sans unicode', arial, helvetica, sans-serif;font-size:12px;" xmlns="http://www.w3.org/2000/svg" width="100" height="80"><desc>Created with Highcharts 4.2.3</desc><defs><clipPath id="highcharts-130"><rect x="0" y="0" width="70" height="55"></rect></clipPath></defs><rect x="0" y="0" width="100" height="80" fill="#FFFFFF" class=" highcharts-background"></rect><g class="highcharts-grid" ></g><g class="highcharts-grid" ><path fill="none" d="M 20 65.5 L 90 65.5" stroke="#D8D8D8" stroke-width="1"  opacity="1"></path><path fill="none" d="M 20 9.5 L 90 9.5" stroke="#D8D8D8" stroke-width="1"  opacity="1"></path></g><g class="highcharts-axis" ><path fill="none" d="M 20 65.5 L 90 65.5" stroke="#C0D0E0" stroke-width="1" ></path></g><g class="highcharts-axis" ><text x="10"  text-anchor="middle" transform="translate(0,0) rotate(270 10 37.5)" class=" highcharts-yaxis-title" style="color:#707070;fill:#707070;" y="37.5"></text></g><g class="highcharts-series-group" ><g class="highcharts-series highcharts-series-0"  transform="translate(20,10) scale(1 1)" clip-path="url(#highcharts-130)"><rect x="3.5" y="17.5" width="7" height="38" stroke="#FFFFFF" stroke-width="1" fill="#57D8AF" rx="0" ry="0"></rect><rect x="17.5" y="41.5" width="7" height="14" stroke="#FFFFFF" stroke-width="1" fill="#BE50A7" rx="0" ry="0"></rect><rect x="31.5" y="29.5" width="7" height="26" stroke="#FFFFFF" stroke-width="1" fill="#E43891" rx="0" ry="0"></rect><rect x="45.5" y="28.5" width="7" height="27" stroke="#FFFFFF" stroke-width="1" fill="#E5DA04" rx="0" ry="0"></rect><rect x="59.5" y="47.5" width="7" height="8" stroke="#FFFFFF" stroke-width="1" fill="#443939" rx="0" ry="0"></rect></g><g class="highcharts-markers highcharts-series-0"  transform="translate(20,10) scale(1 1)" clip-path="none"></g></g><text x="50" text-anchor="middle" class="highcharts-title"  style="color:#333333;font-size:18px;fill:#333333;width:36px;" y="24"></text><g class="highcharts-axis-labels highcharts-xaxis-labels" ></g><g class="highcharts-axis-labels highcharts-yaxis-labels" ></g><g class="highcharts-tooltip"  style="cursor:default;padding:0;pointer-events:none;white-space:nowrap;" transform="translate(0,-9999)"><path fill="none" d="M 3.5 0.5 L 13.5 0.5 C 16.5 0.5 16.5 0.5 16.5 3.5 L 16.5 13.5 C 16.5 16.5 16.5 16.5 13.5 16.5 L 3.5 16.5 C 0.5 16.5 0.5 16.5 0.5 13.5 L 0.5 3.5 C 0.5 0.5 0.5 0.5 3.5 0.5"  stroke="black" stroke-opacity="0.049999999999999996" stroke-width="5" transform="translate(1, 1)"></path><path fill="none" d="M 3.5 0.5 L 13.5 0.5 C 16.5 0.5 16.5 0.5 16.5 3.5 L 16.5 13.5 C 16.5 16.5 16.5 16.5 13.5 16.5 L 3.5 16.5 C 0.5 16.5 0.5 16.5 0.5 13.5 L 0.5 3.5 C 0.5 0.5 0.5 0.5 3.5 0.5"  stroke="black" stroke-opacity="0.09999999999999999" stroke-width="3" transform="translate(1, 1)"></path><path fill="none" d="M 3.5 0.5 L 13.5 0.5 C 16.5 0.5 16.5 0.5 16.5 3.5 L 16.5 13.5 C 16.5 16.5 16.5 16.5 13.5 16.5 L 3.5 16.5 C 0.5 16.5 0.5 16.5 0.5 13.5 L 0.5 3.5 C 0.5 0.5 0.5 0.5 3.5 0.5"  stroke="black" stroke-opacity="0.15" stroke-width="1" transform="translate(1, 1)"></path><path fill="rgb(249, 249, 249)" fill-opacity=" .85" d="M 3.5 0.5 L 13.5 0.5 C 16.5 0.5 16.5 0.5 16.5 3.5 L 16.5 13.5 C 16.5 16.5 16.5 16.5 13.5 16.5 L 3.5 16.5 C 0.5 16.5 0.5 16.5 0.5 13.5 L 0.5 3.5 C 0.5 0.5 0.5 0.5 3.5 0.5"></path><text x="8"  style="font-size:12px;color:#333333;fill:#333333;" y="20"></text></g></svg>