<svg xmlns:xlink="http://www.w3.org/1999/xlink" version="1.1" style="font-family:'lucida grande', 'lucida sans unicode', arial, helvetica, sans-serif;font-size:8px;" xmlns="http://www.w3.org/2000/svg" width="100" height="80"><desc>Created with Highcharts 4.2.3</desc><defs><clipPath id="highcharts-78"><rect x="0" y="0" width="80" height="55"></rect></clipPath></defs><rect x="0" y="0" width="100" height="80" fill="#FFFFFF" class=" highcharts-background"></rect><g class="highcharts-grid" ></g><g class="highcharts-grid" ><path fill="none" d="M 10 65.5 L 90 65.5" stroke="#D8D8D8" stroke-width="1"  opacity="1"></path><path fill="none" d="M 10 9.5 L 90 9.5" stroke="#D8D8D8" stroke-width="1"  opacity="1"></path></g><g class="highcharts-axis" ><path fill="none" d="M 10 65.5 L 90 65.5" stroke="#C0D0E0" stroke-width="1" ></path></g><g class="highcharts-axis" ></g><g class="highcharts-series-group" ><g class="highcharts-series highcharts-series-0"  transform="translate(10,10) scale(1 1)" clip-path="url(#highcharts-78)"><rect x="1.5" y="44" width="4" height="4.125" stroke="#FFFFFF" stroke-width="1" fill="#b05dbf" rx="0" ry="0"></rect><rect x="7.5" y="44" width="4" height="2.75" stroke="#FFFFFF" stroke-width="1" fill="#b05dbf" rx="0" ry="0"></rect><rect x="14.5" y="41.25" width="4" height="2.75" stroke="#FFFFFF" stroke-width="1" fill="#b05dbf" rx="0" ry="0"></rect><rect x="21.5" y="33" width="4" height="5.5" stroke="#FFFFFF" stroke-width="1" fill="#b05dbf" rx="0" ry="0"></rect><rect x="27.5" y="28.875" width="4" height="5.5" stroke="#FFFFFF" stroke-width="1" fill="#b05dbf" rx="0" ry="0"></rect><rect x="34.5" y="23.375" width="4" height="6.875" stroke="#FFFFFF" stroke-width="1" fill="#b05dbf" rx="0" ry="0"></rect><rect x="41.5" y="16.5" width="4" height="15.125" stroke="#FFFFFF" stroke-width="1" fill="#b05dbf" rx="0" ry="0"></rect><rect x="47.5" y="11" width="4" height="12.375" stroke="#FFFFFF" stroke-width="1" fill="#b05dbf" rx="0" ry="0"></rect><rect x="54.5" y="13.75" width="4" height="11" stroke="#FFFFFF" stroke-width="1" fill="#b05dbf" rx="0" ry="0"></rect><rect x="61.5" y="22" width="4" height="12.375" stroke="#FFFFFF" stroke-width="1" fill="#b05dbf" rx="0" ry="0"></rect><rect x="67.5" y="35.75" width="4" height="8.25" stroke="#FFFFFF" stroke-width="1" fill="#b05dbf" rx="0" ry="0"></rect><rect x="74.5" y="39.875" width="4" height="6.875" stroke="#FFFFFF" stroke-width="1" fill="#b05dbf" rx="0" ry="0"></rect></g><g class="highcharts-markers highcharts-series-0"  transform="translate(10,10) scale(1 1)" clip-path="none"></g></g><g class="highcharts-axis-labels highcharts-xaxis-labels" ></g><g class="highcharts-axis-labels highcharts-yaxis-labels" ></g><g class="highcharts-tooltip"  style="cursor:default;padding:0;pointer-events:none;white-space:nowrap;" transform="translate(0,-9999)"><path fill="none" d="M 3.5 0.5 L 13.5 0.5 C 16.5 0.5 16.5 0.5 16.5 3.5 L 16.5 13.5 C 16.5 16.5 16.5 16.5 13.5 16.5 L 3.5 16.5 C 0.5 16.5 0.5 16.5 0.5 13.5 L 0.5 3.5 C 0.5 0.5 0.5 0.5 3.5 0.5"  stroke="black" stroke-opacity="0.049999999999999996" stroke-width="5" transform="translate(1, 1)"></path><path fill="none" d="M 3.5 0.5 L 13.5 0.5 C 16.5 0.5 16.5 0.5 16.5 3.5 L 16.5 13.5 C 16.5 16.5 16.5 16.5 13.5 16.5 L 3.5 16.5 C 0.5 16.5 0.5 16.5 0.5 13.5 L 0.5 3.5 C 0.5 0.5 0.5 0.5 3.5 0.5"  stroke="black" stroke-opacity="0.09999999999999999" stroke-width="3" transform="translate(1, 1)"></path><path fill="none" d="M 3.5 0.5 L 13.5 0.5 C 16.5 0.5 16.5 0.5 16.5 3.5 L 16.5 13.5 C 16.5 16.5 16.5 16.5 13.5 16.5 L 3.5 16.5 C 0.5 16.5 0.5 16.5 0.5 13.5 L 0.5 3.5 C 0.5 0.5 0.5 0.5 3.5 0.5"  stroke="black" stroke-opacity="0.15" stroke-width="1" transform="translate(1, 1)"></path><path fill="rgb(249, 249, 249)" fill-opacity=" .85" d="M 3.5 0.5 L 13.5 0.5 C 16.5 0.5 16.5 0.5 16.5 3.5 L 16.5 13.5 C 16.5 16.5 16.5 16.5 13.5 16.5 L 3.5 16.5 C 0.5 16.5 0.5 16.5 0.5 13.5 L 0.5 3.5 C 0.5 0.5 0.5 0.5 3.5 0.5"></path><text x="8"  style="font-size:8px;color:#333333;fill:#333333;" y="20"></text></g></svg>