<svg xmlns="http://www.w3.org/2000/svg" viewBox="766 721.9 100 70"><path d="M771 725.1h90M771 741h90m-90 15.9h90m-90 15.9h90m-90 15.8h90" fill="none" stroke="#CCC" stroke-width=".25" stroke-miterlimit="10"/><g fill="none" stroke-width="6" stroke-miterlimit="10"><path stroke="#434348" d="M786.7 788.6V774"/><path stroke="#7CB5EC" d="M779 788.6V761"/></g><g fill="none" stroke-width="6" stroke-miterlimit="10"><path stroke="#434348" d="M819.8 788.6V751"/><path stroke="#7CB5EC" d="M812.2 788.6V767"/></g><g fill="none" stroke-width="6" stroke-miterlimit="10"><path stroke="#434348" d="M853 788.6V741"/><path stroke="#7CB5EC" d="M845.3 788.6V781"/></g><path fill="#CCC" d="M776.3 756.1h5.4v4h-5.4zM784 769h5.4v4H784zm25.5-7h5.4v4h-5.4zm7.6-16h5.4v4h-5.4zm25.5 30h5.4v4h-5.4zm7.7-40h5.4v4h-5.4z"/></svg>