<svg xmlns="http://www.w3.org/2000/svg" viewBox="766 889.7 100 70"><path d="M771 892.9h90m-90 15.9h90m-90 15.9h90m-90 15.9h90m-90 15.8h90" fill="none" stroke="#CCC" stroke-width=".25" stroke-miterlimit="10"/><path fill="none" stroke="#434348" stroke-width="12" stroke-miterlimit="10" d="M782.8 956.4v-28.6m33.2 28.6v-38.6"/><path fill="none" stroke="#7CB5EC" stroke-width="12" stroke-miterlimit="10" d="M816 917.8v-24.9m-33.2 34.9v-34.9m66.3 18.9v-18.9"/><path fill="none" stroke="#434348" stroke-width="12" stroke-miterlimit="10" d="M849.1 956.4v-44.6"/><path d="M780.1 940.1h5.4v4h-5.4zm0-30.3h5.4v4h-5.4zm33.2-5.4h5.4v4h-5.4zm0 30.7h5.4v4h-5.4zm33.1-3.7h5.4v4h-5.4zm0-31h5.4v4h-5.4z" fill="#CCC"/></svg>