<?xml version="1.0" encoding="utf-8"?>
<!-- Generator: Adobe Illustrator 19.1.0, SVG Export Plug-In . SVG Version: 6.00 Build 0)  -->
<svg version="1.1" id="Layer_1" xmlns="http://www.w3.org/2000/svg" xmlns:xlink="http://www.w3.org/1999/xlink" x="0px" y="0px"
	 viewBox="-545 791.8 100 100" style="enable-background:new -545 791.8 100 100;" xml:space="preserve">
<g>
	<g>
		<path d="M-453,891.8h-90.5c-0.8,0-1.5-0.7-1.5-1.5v-90.5c0-0.8,0.7-1.5,1.5-1.5s1.5,0.7,1.5,1.5v89h89c0.8,0,1.5,0.7,1.5,1.5
			S-452.2,891.8-453,891.8z"/>
	</g>
	<g>
		<path d="M-490,854.8v34h-16v-34H-490 M-490,852.8h-16c-1.1,0-2,0.9-2,2v34c0,1.1,0.9,2,2,2h16c1.1,0,2-0.9,2-2v-34
			C-488,853.7-488.9,852.8-490,852.8L-490,852.8z"/>
	</g>
	<g>
		<path d="M-490,838.8v14h-16v-14H-490 M-490,836.8h-16c-1.1,0-2,0.9-2,2v14c0,1.1,0.9,2,2,2h16c1.1,0,2-0.9,2-2v-14
			C-488,837.7-488.9,836.8-490,836.8L-490,836.8z"/>
	</g>
	<g>
		<path d="M-514,864.8v24h-17v-24H-514 M-514,862.8h-17c-1.1,0-2,0.9-2,2v24c0,1.1,0.9,2,2,2h17c1.1,0,2-0.9,2-2v-24
			C-512,863.7-512.9,862.8-514,862.8L-514,862.8z"/>
	</g>
	<g>
		<path d="M-514,818.8v44h-17v-44H-514 M-514,816.8h-17c-1.1,0-2,0.9-2,2v44c0,1.1,0.9,2,2,2h17c1.1,0,2-0.9,2-2v-44
			C-512,817.7-512.9,816.8-514,816.8L-514,816.8z"/>
	</g>
	<g>
		<path d="M-465,874.8v14h-17v-14H-465 M-465,872.8h-17c-1.1,0-2,0.9-2,2v14c0,1.1,0.9,2,2,2h17c1.1,0,2-0.9,2-2v-14
			C-463,873.7-463.9,872.8-465,872.8L-465,872.8z"/>
	</g>
	<g>
		<path d="M-465,828.8v44h-17v-44H-465 M-465,826.8h-17c-1.1,0-2,0.9-2,2v44c0,1.1,0.9,2,2,2h17c1.1,0,2-0.9,2-2v-44
			C-463,827.7-463.9,826.8-465,826.8L-465,826.8z"/>
	</g>
</g>
</svg>
