<svg xmlns="http://www.w3.org/2000/svg" viewBox="766 803.7 100 70"><path d="M771 806.9h90m-90 15.9h90m-90 15.9h90m-90 15.9h90m-90 15.8h90" fill="none" stroke="#CCC" stroke-width=".25" stroke-miterlimit="10"/><path fill="none" stroke="#434348" stroke-width="12" stroke-miterlimit="10" d="M782.8 870.4v-10.6m33.2 10.6v-28.6"/><path fill="none" stroke="#7CB5EC" stroke-width="12" stroke-miterlimit="10" d="M816 841.8v-26.6m-33.2 44.6v-11.6m66.3-10.4v-13.6"/><path fill="none" stroke="#434348" stroke-width="12" stroke-miterlimit="10" d="M849.1 870.4v-32.6"/><path d="M780.1 863.9h5.4v4h-5.4zm0-11.8h5.4v4h-5.4zm33.2-25.6h5.4v4h-5.4zm0 28.1h5.4v4h-5.4zm33.1-2h5.4v4h-5.4zm0-23.6h5.4v4h-5.4z" fill="#CCC"/></svg>