<svg version="1.2" baseProfile="tiny" xmlns="http://www.w3.org/2000/svg" viewBox="1513 530.2 100 70"><path fill="none" stroke="#000" stroke-width=".25" stroke-miterlimit="10" d="M1563 539.2v13.6"/><path d="M1562.2 539.1h1.6v.2h-1.6zm0 13.5h1.6v.2h-1.6z"/><path fill="none" stroke="#000" stroke-width=".25" stroke-miterlimit="10" d="M1538 547.4v10.7"/><path d="M1537.2 547.2h1.6v.2h-1.6zm0 10.8h1.6v.2h-1.6z"/><path fill="none" stroke="#000" stroke-width=".25" stroke-miterlimit="10" d="M1588 559.9v16.2"/><path d="M1587.2 559.7h1.6v.2h-1.6zm0 16.3h1.6v.2h-1.6z"/><path fill="none" stroke="#000" stroke-width=".25" stroke-miterlimit="10" d="M1608 553.9v7.2"/><path d="M1607.2 553.7h1.6v.2h-1.6zm0 7.3h1.6v.2h-1.6z"/><path fill="none" stroke="#000" stroke-width=".25" stroke-miterlimit="10" d="M1518 575.8v10.6"/><path d="M1517.2 575.6h1.6v.2h-1.6zm0 10.7h1.6v.2h-1.6z"/><g fill="none" stroke-miterlimit="10"><path d="M1518 533.5h90m-90 15.9h90m-90 15.8h90m-90 15.9h90m-90 15.9h90" stroke="#CCC" stroke-width=".25"/><path stroke="#000" d="M1518 580.9l20-28.2 25-6.7 25 22 20-10.5"/></g></svg>