<svg version="1.1" id="Layer_1" xmlns="http://www.w3.org/2000/svg" xmlns:xlink="http://www.w3.org/1999/xlink" x="0px" y="0px"
	 viewBox="0 0 80 80" style="enable-background:new 0 0 80 80;" xml:space="preserve">
<style type="text/css">
	.st0{fill:none;stroke:#000000;stroke-width:2;stroke-linecap:round;stroke-miterlimit:10;}
	.st1{fill:none;}
	.st2{fill:none;stroke:#000000;stroke-miterlimit:10;}
	.st3{fill:none;stroke:#8EEED4;stroke-miterlimit:10;}
	.st4{fill:none;stroke:#989898;stroke-miterlimit:10;}
	.st5{fill:#989898;}
</style>
<g>
	<polyline class="st0" points="72,78 2,78 2,8 	"/>
	<rect class="st1" width="80" height="80"/>
</g>
<g>
	<g>
		<line class="st4" x1="42.5" y1="14" x2="42.5" y2="32"/>
		<g>
			<rect x="40" y="14" class="st5" width="5" height="1"/>
		</g>
		<g>
			<rect x="40" y="31" class="st5" width="5" height="1"/>
		</g>
	</g>
</g>
<g>
	<g>
		<line class="st4" x1="56.5" y1="38" x2="56.5" y2="64"/>
		<g>
			<rect x="54" y="38" class="st5" width="5" height="1"/>
		</g>
		<g>
			<rect x="54" y="63" class="st5" width="5" height="1"/>
		</g>
	</g>
</g>
<g>
	<g>
		<line class="st4" x1="70.5" y1="21" x2="70.5" y2="38"/>
		<g>
			<rect x="68" y="21" class="st5" width="5" height="1"/>
		</g>
		<g>
			<rect x="68" y="37" class="st5" width="5" height="1"/>
		</g>
	</g>
</g>
<g>
	<g>
		<line class="st4" x1="28.5" y1="31" x2="28.5" y2="56"/>
		<g>
			<rect x="26" y="31" class="st5" width="5" height="1"/>
		</g>
		<g>
			<rect x="26" y="55" class="st5" width="5" height="1"/>
		</g>
	</g>
</g>
<g>
	<g>
		<line class="st4" x1="14.5" y1="27" x2="14.5" y2="48"/>
		<g>
			<rect x="12" y="27" class="st5" width="5" height="1"/>
		</g>
		<g>
			<rect x="12" y="47" class="st5" width="5" height="1"/>
		</g>
	</g>
</g>
<polyline class="st2" points="1.8,64.2 15,37 29,43.8 43,23 57,51 71,29.2 "/>
</svg>