<svg version="1.2" baseProfile="tiny" xmlns="http://www.w3.org/2000/svg" viewBox="1509.5 721.9 100 70"><path fill="#EEE" d="M1540.4 723.9c-.5 0-.9.4-.9.9v6.8c0 .5.4.9.9.9h4c.5 0 .9-.4.9-.9v-6.8c0-.5-.4-.9-.9-.9h-4zm33.5 0c-.5 0-.9.4-.9.9v6.8c0 .5.4.9.9.9h4c.5 0 .9-.4.9-.9v-6.8c0-.5-.4-.9-.9-.9h-4zm-42.8 3.1c-1 0-1.9.9-1.9 1.9v7.9c0 1 .8 1.9 1.9 1.9h56.1c1 0 1.9-.8 1.9-1.9v-7.9c0-1-.8-1.9-1.9-1.9h-6.8v5.2c0 1-.8 1.9-1.9 1.9h-5.1c-1 0-1.9-.9-1.9-1.9V727h-24.6v5.2c0 1-.8 1.9-1.9 1.9h-5.1c-1 0-1.9-.9-1.9-1.9V727h-6.9zm0 15.5c-1 0-1.9.8-1.9 1.9v37.4c0 1 .8 1.9 1.9 1.9h35.8c-.5-.8-.9-1.6-1.3-2.4h-32.2c-1 0-1.7-.7-1.7-1.6v-33c0-.9.7-1.6 1.7-1.6h51.5c1 0 1.7.7 1.7 1.6v9.8c.8.2 1.6.5 2.4.8v-12.8c0-1-.8-1.9-1.9-1.9h-56zm50.7 15.2c-1.8 0-3.7.4-5.5 1.1-8.3 3.2-12.5 12.5-9.3 20.8 3.2 8.3 12.5 12.5 20.8 9.3 8.3-3.2 12.5-12.5 9.3-20.8-2.5-6.5-8.7-10.4-15.3-10.4zm0 4.9c.7 0 1.2.5 1.2 1.1v9.9c0 .3 0 .6-.2.9 0 0 0 .1-.1.1l-.1.1c-.3.2-.6.3-.9.3h-10.1c-.6 0-1.2-.5-1.2-1.2s.5-1.2 1.2-1.2h9.1v-8.9c0-.5.5-1.1 1.1-1.1z"/><path d="M1514.5 725.1h90m-90 15.9h90m-90 15.9h90m-90 15.9h90m-90 15.8h90" fill="none" stroke="#CCC" stroke-width=".25" stroke-miterlimit="10"/><path fill="none" stroke="#000" stroke-miterlimit="10" d="M1514.5 772.5l20-28.1 25-6.8 25 22 20-10.5"/></svg>