<svg version="1.1" id="Laag_1" xmlns="http://www.w3.org/2000/svg" xmlns:xlink="http://www.w3.org/1999/xlink" x="0px" y="0px"
	 viewBox="0 0 247.8 61.6" enable-background="new 0 0 247.8 61.6" xml:space="preserve">
<circle fill="#C6F4C3" cx="237.8" cy="25.1" r="5.8"/>
<g>
	<path fill="#ffffff" d="M24,6v6.8H10v5.5H24v6.4H10v5.5H24V37H2.8V6H24z"/>
	<path fill="#ffffff" d="M36.6,31.5L34.7,37h-7.6L37.7,6h10.5l10.7,31h-7.7l-1.9-5.5H36.6z M46.9,24.7l-4-11.6l-4,11.6H46.9z"/>
	<path fill="#ffffff" d="M59.6,28.6c2.8,1.2,5.4,2.1,8.6,2.1c1.9,0,3.3-0.4,4.1-0.9c0.9-0.5,1.3-1.2,1.3-1.9c0-1.1-0.9-1.9-2.3-2.5
		c-0.7-0.3-1.5-0.6-2.4-0.9c-1.8-0.6-3.7-1.3-5.5-2.3c-1.8-1-3.3-2.3-4.1-4.3c-0.4-1-0.7-2.1-0.7-3.5c0-3.5,1.5-5.7,3.8-7
		s5.1-1.8,7.8-1.8c3.2,0,6,0.7,7.8,1.3v6.2L78,13.2c-0.5-0.2-1.6-0.4-2.9-0.6c-1.3-0.2-2.8-0.4-4.3-0.4c-1.3,0-2.6,0.1-3.6,0.5
		s-1.6,0.9-1.6,1.8c0,1.1,1,1.9,2.4,2.5c0.7,0.4,1.6,0.7,2.5,1c1.9,0.7,3.9,1.4,5.8,2.3c1.9,1,3.4,2.3,4.3,4.1
		c0.4,0.9,0.7,2,0.7,3.2c0,3.2-1.7,5.6-4.2,7.3c-2.5,1.7-5.8,2.5-9.1,2.5c-3.1,0-6.1-0.8-8.4-2.4V28.6z"/>
	<path fill="#ffffff" d="M83.3,6h7.2l5.8,11.8L102.1,6h7.3l-9.4,19.4V37h-7.2V25.4L83.3,6z"/>
	<path fill="#ffffff" d="M129.3,34.1v2.2c-2,0.8-3.8,1.2-5.7,1.2c-2.9,0-5.7-0.9-7.8-3s-3.4-5.3-3.4-9.8c0-4.5,1.3-7.6,3.3-9.6c2-2,4.8-2.9,7.8-2.9
		c1.9,0,3.7,0.3,5.7,1.2v2.1l-0.2,0.3c-1.7-0.7-3.3-0.9-5-0.9c-2.4,0-4.6,0.6-6.2,2.2c-1.6,1.5-2.6,4-2.6,7.6s1,6.2,2.6,7.9
		c1.6,1.7,3.8,2.5,6.2,2.5c1.6,0,3.3-0.3,5-0.9L129.3,34.1z"/>
	<path fill="#ffffff" d="M138.6,3.4v11.4c2.3-1.5,4.8-2.7,7.5-2.7c1.9,0,3.9,0.6,5.4,1.8c1.5,1.3,2.5,3.2,2.5,6v17h-2.7v-16c0-2.2-0.7-3.7-1.7-4.8
		c-1-1-2.4-1.5-3.9-1.5c-1.2,0-2.5,0.3-3.7,0.8c-1.2,0.5-2.4,1.2-3.3,2V37h-2.7V3.9l2.4-0.5H138.6z"/>
	<path fill="#ffffff" d="M177.2,28.8c0,1.4,0.3,2.8,0.9,3.9c0.6,1.1,1.6,1.9,2.9,2.2l-1.5,2.5c-1.8-0.6-3.1-2-3.9-3.8c-0.6,1.1-1.6,2-2.8,2.7
		c-1.2,0.7-2.8,1.1-4.5,1.1c-1.6,0-3.6-0.4-5.1-1.5c-1.6-1.1-2.7-3-2.7-6c0-2.3,0.7-4,2.2-5.2s3.9-1.8,7.2-1.8
		c1.2,0,2.7,0.1,4.9,0.3v-3.4c0-1.9-0.7-3.2-1.6-4c-1-0.8-2.3-1.1-3.6-1.1c-1.8,0-4.4,0.5-6.6,1.6l-0.7-2.5c2.3-1.1,5-1.7,7.4-1.7
		c2.1,0,4,0.5,5.5,1.7c1.4,1.2,2.3,3.3,2.3,6.3V28.8z M174.5,25.6c-1.8-0.2-2.7-0.2-3.8-0.2c-1.4,0-3.3,0-4.9,0.6
		c-1.6,0.6-2.8,1.7-2.8,3.8c0,1.3,0.5,2.6,1.4,3.5c0.9,0.9,2.2,1.5,3.9,1.5c2.6,0,4.7-1.3,6.1-4V25.6z"/>
	<path fill="#ffffff" d="M187.6,12.6l0.8,2.5c1.8-2,3.9-3,6.1-3c1.2,0,2.2,0.3,3.3,0.7l-0.9,2.4c-1.2-0.4-1.7-0.6-2.7-0.6c-2.4,0-4.2,1.2-5.9,3.4
		V37h-2.7V12.6H187.6z"/>
	<path fill="#ffffff" d="M215.1,36.6c-1.7,0.6-3.2,0.9-4.6,0.9c-1.3,0-3.1-0.3-4.6-1.4c-1.5-1.2-2.6-3.2-2.6-6.8v-14h-2.7v-2.7h2.7V8.2l2.4-0.4h0.3
		v4.9h6v2.7h-6v12.5c0,2.6,0.4,4.3,1.3,5.4c0.8,1.1,2,1.6,3.4,1.6c1.1,0,2.3-0.3,3.7-0.8L215.1,36.6z"/>
</g>
<g>
	<path fill="#97CCC2" d="M4,46.5v3.3C4.7,49.3,5.4,49,6.2,49c0.5,0,1.1,0.2,1.6,0.5c0.4,0.4,0.7,0.9,0.7,1.7v5H7.7v-4.7
		c0-0.6-0.2-1.1-0.5-1.4c-0.3-0.3-0.7-0.4-1.1-0.4c-0.4,0-0.7,0.1-1.1,0.2c-0.4,0.2-0.7,0.4-1,0.6v5.7H3.3v-9.6L4,46.5L4,46.5z"/>
	<path fill="#97CCC2" d="M11.6,47.4c0-0.2,0.1-0.3,0.2-0.4c0.1-0.1,0.3-0.2,0.4-0.2s0.3,0.1,0.4,0.2c0.1,0.1,0.2,0.2,0.2,0.4
		c0,0.1-0.1,0.3-0.2,0.4c-0.1,0.1-0.3,0.2-0.4,0.2s-0.3-0.1-0.4-0.2C11.7,47.7,11.6,47.5,11.6,47.4z M11.8,56.2v-7.1h0.8v7.1H11.8z"
		/>
	<path fill="#97CCC2" d="M18.8,54.8c1,0,1.7,0.2,2.1,0.6c0.5,0.4,0.7,0.9,0.7,1.4c0,0.7-0.5,1.4-1.2,1.9s-1.6,0.8-2.5,0.8
		c-0.8,0-1.5-0.3-1.9-0.7c-0.5-0.4-0.7-1-0.7-1.5c0-0.7,0.3-1.4,0.9-1.9c-0.4-0.2-0.6-0.6-0.6-1c0-0.4,0.2-0.9,0.5-1.3
		c-0.4-0.4-0.6-1-0.6-1.6c0-0.7,0.3-1.3,0.7-1.7c0.5-0.4,1.1-0.7,1.9-0.7c0.6,0,1.1,0.2,1.5,0.4c0.3-0.2,0.6-0.4,0.9-0.6
		c0.3-0.1,0.6-0.2,0.8-0.2l0.3,0.7c-0.4,0-0.9,0.2-1.3,0.6c0.3,0.4,0.5,0.9,0.5,1.4c0,0.7-0.3,1.3-0.7,1.7s-1.1,0.7-1.9,0.7
		c-0.6,0-1-0.1-1.4-0.4c-0.2,0.2-0.3,0.5-0.3,0.6c0,0.1,0.1,0.3,0.2,0.4c0.1,0.1,0.4,0.2,0.6,0.2H18.8z M16.8,55.5
		c-0.5,0.5-0.8,1.1-0.8,1.7c0,0.4,0.2,0.8,0.5,1.1s0.8,0.5,1.5,0.5c0.8,0,1.5-0.2,2-0.6s0.8-0.8,0.8-1.3c0-0.6-0.3-0.9-0.8-1.1
		s-1.3-0.2-2.1-0.2H16.8z M18.1,49.8c-0.6,0-1.1,0.2-1.4,0.5c-0.3,0.3-0.5,0.7-0.5,1.1s0.2,0.8,0.5,1.1s0.8,0.5,1.4,0.5
		c0.6,0,1.1-0.2,1.4-0.5s0.4-0.7,0.4-1.1s-0.2-0.8-0.5-1.1C19.1,50,18.7,49.8,18.1,49.8z"/>
	<path fill="#97CCC2" d="M24.7,46.5v3.3c0.7-0.4,1.4-0.8,2.2-0.8c0.5,0,1.1,0.2,1.6,0.5c0.4,0.4,0.7,0.9,0.7,1.7v5h-0.8v-4.7
		c0-0.6-0.2-1.1-0.5-1.4c-0.3-0.3-0.7-0.4-1.1-0.4c-0.4,0-0.7,0.1-1.1,0.2c-0.4,0.2-0.7,0.4-1,0.6v5.7h-0.8v-9.6L24.7,46.5
		L24.7,46.5z"/>
	<path fill="#97CCC2" d="M36.7,55.4V56c-0.6,0.2-1.1,0.3-1.7,0.3c-0.9,0-1.7-0.3-2.3-0.9s-1-1.5-1-2.9c0-1.3,0.4-2.2,1-2.8
		s1.4-0.8,2.3-0.8c0.6,0,1.1,0.1,1.7,0.3V50L36.7,50c-0.5-0.2-1-0.3-1.5-0.3c-0.7,0-1.4,0.2-1.8,0.6s-0.8,1.2-0.8,2.2
		s0.3,1.8,0.8,2.3s1.1,0.7,1.8,0.7C35.7,55.6,36.2,55.5,36.7,55.4L36.7,55.4z"/>
	<path fill="#97CCC2" d="M40.2,46.5v3.3c0.7-0.4,1.4-0.8,2.2-0.8c0.5,0,1.1,0.2,1.6,0.5c0.4,0.4,0.7,0.9,0.7,1.7v5h-0.8v-4.7
		c0-0.6-0.2-1.1-0.5-1.4c-0.3-0.3-0.7-0.4-1.1-0.4c-0.4,0-0.7,0.1-1.1,0.2c-0.4,0.2-0.7,0.4-1,0.6v5.7h-0.8v-9.6L40.2,46.5
		L40.2,46.5z"/>
	<path fill="#97CCC2" d="M52.3,53.9c0,0.4,0.1,0.8,0.3,1.1s0.5,0.6,0.8,0.6l-0.4,0.7c-0.5-0.2-0.9-0.6-1.1-1.1
		c-0.2,0.3-0.5,0.6-0.8,0.8s-0.8,0.3-1.3,0.3c-0.5,0-1-0.1-1.5-0.4c-0.5-0.3-0.8-0.9-0.8-1.8c0-0.7,0.2-1.2,0.6-1.5s1.1-0.5,2.1-0.5
		c0.4,0,0.8,0,1.4,0.1v-1c0-0.5-0.2-0.9-0.5-1.2s-0.7-0.3-1.1-0.3c-0.5,0-1.3,0.2-1.9,0.5l-0.2-0.7c0.7-0.3,1.4-0.5,2.2-0.5
		c0.6,0,1.2,0.1,1.6,0.5c0.4,0.4,0.7,1,0.7,1.8V53.9z M51.5,52.9c-0.5-0.1-0.8-0.1-1.1-0.1c-0.4,0-1,0-1.4,0.2
		c-0.5,0.2-0.8,0.5-0.8,1.1c0,0.4,0.1,0.8,0.4,1c0.3,0.3,0.6,0.4,1.1,0.4c0.8,0,1.4-0.4,1.8-1.2V52.9z"/>
	<path fill="#97CCC2" d="M56.1,49.1l0.2,0.7c0.5-0.6,1.1-0.9,1.8-0.9c0.3,0,0.6,0.1,1,0.2l-0.3,0.7c-0.3-0.1-0.5-0.2-0.8-0.2
		c-0.7,0-1.2,0.3-1.7,1v5.5h-0.8v-7.1H56.1z"/>
	<path fill="#97CCC2" d="M64.9,56.1c-0.5,0.2-0.9,0.3-1.3,0.3c-0.4,0-0.9-0.1-1.3-0.4s-0.8-0.9-0.8-2v-4.1h-0.8v-0.8h0.8v-1.3
		l0.7-0.1h0.1v1.4H64v0.8h-1.7v3.7c0,0.7,0.1,1.3,0.4,1.6c0.2,0.3,0.6,0.5,1,0.5c0.3,0,0.7-0.1,1.1-0.2L64.9,56.1z"/>
	<path fill="#97CCC2" d="M66.6,55.4c0.2,0.1,0.4,0.1,0.7,0.2c0.3,0,0.5,0.1,0.8,0.1c0.4,0,0.9-0.1,1.3-0.3c0.4-0.2,0.7-0.5,0.7-1
		c0-0.5-0.4-0.8-0.9-1.1c-0.3-0.1-0.5-0.3-0.8-0.4c-0.6-0.2-1.1-0.6-1.5-1.1c-0.2-0.2-0.3-0.6-0.3-0.9c0-0.6,0.3-1.1,0.7-1.4
		c0.4-0.3,1-0.5,1.7-0.5c0.5,0,0.9,0.1,1.3,0.2v0.7l0,0c-0.3-0.1-0.8-0.2-1.3-0.2c-0.4,0-0.8,0.1-1,0.2c-0.3,0.2-0.4,0.4-0.4,0.8
		c0,0.4,0.2,0.7,0.5,0.9c0.3,0.2,0.8,0.4,1.2,0.6c0.4,0.2,0.9,0.4,1.2,0.7c0.3,0.3,0.5,0.7,0.5,1.3c0,0.7-0.3,1.3-0.9,1.6
		c-0.5,0.4-1.2,0.6-2,0.6c-0.5,0-1-0.1-1.5-0.3L66.6,55.4L66.6,55.4z"/>
	<path fill="#97CCC2" d="M76.2,51.9v0.8h-3.4v-0.8H76.2z"/>
	<path fill="#97CCC2" d="M79.4,49.1l0.2,0.6c0.5-0.5,1.2-0.8,2-0.8c1,0,1.7,0.4,2.2,1.1s0.8,1.6,0.8,2.6c0,1.1-0.4,2-1,2.7
		s-1.5,1-2.5,1c-0.4,0-1-0.1-1.5-0.2v3.2h-0.8V49.1H79.4z M79.6,55.3c0.5,0.2,1,0.3,1.5,0.3c0.7,0,1.4-0.3,1.9-0.8s0.8-1.3,0.8-2.2
		c0-0.8-0.2-1.5-0.6-2s-1-0.9-1.8-0.9c-0.8,0-1.4,0.3-1.8,0.9V55.3z"/>
	<path fill="#97CCC2" d="M86.7,52.7c0-1,0.3-2,0.9-2.6S89,49,89.9,49c1,0,1.8,0.4,2.3,1.1c0.5,0.7,0.9,1.6,0.9,2.6
		c0,1-0.3,1.9-0.9,2.6s-1.4,1.1-2.3,1.1c-1,0-1.8-0.4-2.3-1.1S86.7,53.7,86.7,52.7z M87.5,52.6c0,0.8,0.2,1.6,0.6,2.1
		c0.4,0.5,1,0.9,1.8,0.9c0.8,0,1.4-0.3,1.8-0.8c0.4-0.5,0.6-1.2,0.6-2.1c0-0.8-0.2-1.6-0.6-2.1c-0.4-0.5-1-0.9-1.8-0.9
		c-0.8,0-1.4,0.3-1.8,0.8S87.5,51.8,87.5,52.6z"/>
	<path fill="#97CCC2" d="M101.7,56.2h-0.9l-1.7-5.7l-1.7,5.7h-0.9l-2.2-7.1h0.9l1.8,5.7l1.7-5.7h0.8l1.7,5.7l1.8-5.7h0.9L101.7,56.2
		z"/>
	<path fill="#97CCC2" d="M110.4,52.9H106c0,0.9,0.3,1.6,0.8,2.1c0.5,0.5,1.1,0.7,1.8,0.7c0.3,0,0.6,0,0.9-0.1
		c0.3-0.1,0.6-0.2,0.9-0.4l0,0v0.7c-0.7,0.4-1.4,0.5-2,0.5c-0.9,0-1.7-0.3-2.3-0.9s-1-1.6-1-2.9c0-1,0.2-1.9,0.7-2.6s1.2-1,2.3-1
		c0.7,0,1.2,0.2,1.5,0.5c0.3,0.3,0.5,0.7,0.6,1.2s0.1,1,0.1,1.4V52.9z M109.6,52.1c0-0.6-0.1-1.2-0.3-1.6c-0.2-0.4-0.6-0.7-1.3-0.7
		c-0.7,0-1.1,0.2-1.5,0.7c-0.3,0.4-0.5,1-0.6,1.7H109.6z"/>
	<path fill="#97CCC2" d="M113.7,49.1l0.2,0.7c0.5-0.6,1.1-0.9,1.8-0.9c0.3,0,0.6,0.1,1,0.2l-0.3,0.7c-0.3-0.1-0.5-0.2-0.8-0.2
		c-0.7,0-1.2,0.3-1.7,1v5.5h-0.8v-7.1H113.7z"/>
	<path fill="#9ABF99" d="M123.9,47.4c0-0.2,0.1-0.3,0.2-0.4c0.1-0.1,0.3-0.2,0.4-0.2s0.3,0.1,0.4,0.2c0.1,0.1,0.2,0.2,0.2,0.4
		c0,0.1-0.1,0.3-0.2,0.4c-0.1,0.1-0.3,0.2-0.4,0.2s-0.3-0.1-0.4-0.2C124,47.7,123.9,47.5,123.9,47.4z M124.1,56.2v-7.1h0.8v7.1
		H124.1z"/>
	<path fill="#9ABF99" d="M128.9,49.1l0.2,0.7c0.7-0.4,1.4-0.8,2.2-0.8c0.5,0,1.1,0.2,1.6,0.5c0.4,0.4,0.7,0.9,0.7,1.7v5h-0.8v-4.7
		c0-0.6-0.2-1.1-0.5-1.4s-0.7-0.4-1.1-0.4c-0.4,0-0.7,0.1-1.1,0.2c-0.4,0.2-0.7,0.4-1,0.6v5.7h-0.8v-7.1H128.9z"/>
	<path fill="#9ABF99" d="M143.6,55l2-5.8h0.9l-3.1,8.9c-0.2,0.5-0.5,0.9-0.8,1.1s-0.7,0.3-1.1,0.3c-0.5,0-1-0.1-1.4-0.4l0.4-0.9
		c0.3,0.2,0.6,0.3,0.9,0.3c0.6,0,1.1-0.3,1.3-1l0.4-1.3l-2.4-7.1h0.9L143.6,55z"/>
	<path fill="#9ABF99" d="M148.1,52.7c0-1,0.3-2,0.9-2.6s1.4-1.1,2.3-1.1c1,0,1.8,0.4,2.3,1.1c0.5,0.7,0.9,1.6,0.9,2.6
		c0,1-0.3,1.9-0.9,2.6s-1.4,1.1-2.3,1.1c-1,0-1.8-0.4-2.3-1.1S148.1,53.7,148.1,52.7z M148.9,52.6c0,0.8,0.2,1.6,0.6,2.1
		c0.4,0.5,1,0.9,1.8,0.9c0.8,0,1.4-0.3,1.8-0.8c0.4-0.5,0.6-1.2,0.6-2.1c0-0.8-0.2-1.6-0.6-2.1c-0.4-0.5-1-0.9-1.8-0.9
		c-0.8,0-1.4,0.3-1.8,0.8S148.9,51.8,148.9,52.6z"/>
	<path fill="#9ABF99" d="M161.9,56.2l-0.2-0.7c-0.3,0.2-0.7,0.4-1.1,0.6s-0.8,0.2-1.2,0.2c-0.5,0-1.1-0.2-1.6-0.5
		c-0.4-0.4-0.7-0.9-0.7-1.7v-5h0.8v4.7c0,0.6,0.2,1.1,0.5,1.4c0.3,0.3,0.7,0.4,1.1,0.4c0.4,0,0.7-0.1,1.1-0.3c0.3-0.2,0.7-0.4,1-0.6
		v-5.7h0.8v7.1H161.9z"/>
	<path fill="#9ABF99" d="M166.4,49.1l0.2,0.7c0.5-0.6,1.1-0.9,1.8-0.9c0.3,0,0.6,0.1,1,0.2l-0.3,0.7c-0.3-0.1-0.5-0.2-0.8-0.2
		c-0.7,0-1.2,0.3-1.7,1v5.5h-0.8v-7.1H166.4z"/>
	<path fill="#9ABF99" d="M177.6,46.5v3.3c0.7-0.4,1.4-0.8,2.2-0.8c0.5,0,1.1,0.2,1.6,0.5c0.4,0.4,0.7,0.9,0.7,1.7v5h-0.8v-4.7
		c0-0.6-0.2-1.1-0.5-1.4c-0.3-0.3-0.7-0.4-1.1-0.4c-0.4,0-0.7,0.1-1.1,0.2c-0.4,0.2-0.7,0.4-1,0.6v5.7h-0.8v-9.6L177.6,46.5
		L177.6,46.5z"/>
	<path fill="#9ABF99" d="M189.7,53.9c0,0.4,0.1,0.8,0.3,1.1s0.5,0.6,0.8,0.6l-0.4,0.7c-0.5-0.2-0.9-0.6-1.1-1.1
		c-0.2,0.3-0.5,0.6-0.8,0.8s-0.8,0.3-1.3,0.3c-0.5,0-1-0.1-1.5-0.4c-0.5-0.3-0.8-0.9-0.8-1.8c0-0.7,0.2-1.2,0.6-1.5s1.1-0.5,2.1-0.5
		c0.4,0,0.8,0,1.4,0.1v-1c0-0.5-0.2-0.9-0.5-1.2s-0.7-0.3-1.1-0.3c-0.5,0-1.3,0.2-1.9,0.5l-0.2-0.7c0.7-0.3,1.4-0.5,2.2-0.5
		c0.6,0,1.2,0.1,1.6,0.5c0.4,0.4,0.7,1,0.7,1.8V53.9z M188.9,52.9c-0.5-0.1-0.8-0.1-1.1-0.1c-0.4,0-1,0-1.4,0.2
		c-0.5,0.2-0.8,0.5-0.8,1.1c0,0.4,0.1,0.8,0.4,1c0.3,0.3,0.6,0.4,1.1,0.4c0.8,0,1.4-0.4,1.8-1.2V52.9z"/>
	<path fill="#9ABF99" d="M193.8,49.1l0.2,0.7c0.7-0.4,1.4-0.8,2.2-0.8c0.5,0,1.1,0.2,1.6,0.5c0.4,0.4,0.7,0.9,0.7,1.7v5h-0.8v-4.7
		c0-0.6-0.2-1.1-0.5-1.4s-0.7-0.4-1.1-0.4c-0.4,0-0.7,0.1-1.1,0.2c-0.4,0.2-0.7,0.4-1,0.6v5.7h-0.8v-7.1H193.8z"/>
	<path fill="#9ABF99" d="M206.9,56.2h-0.6l-0.2-0.6c-0.5,0.5-1.2,0.8-2,0.8c-0.9,0-1.7-0.4-2.2-1.1c-0.5-0.7-0.8-1.6-0.8-2.7
		c0-1,0.3-1.9,0.8-2.5s1.4-1,2.7-1c0.5,0,1,0.1,1.5,0.2v-2.6l0.7-0.1h0.1V56.2z M206.2,50.1c-0.5-0.2-1-0.4-1.5-0.4
		c-0.8,0-1.4,0.2-1.9,0.7s-0.8,1.2-0.8,2.2c0,0.8,0.2,1.5,0.6,2c0.4,0.5,1,0.9,1.8,0.9c0.8,0,1.4-0.3,1.9-0.9V50.1z"/>
	<path fill="#9ABF99" d="M209.7,55.4c0.2,0.1,0.4,0.1,0.7,0.2s0.5,0.1,0.8,0.1c0.4,0,0.9-0.1,1.3-0.3c0.4-0.2,0.7-0.5,0.7-1
		c0-0.5-0.4-0.8-0.9-1.1c-0.3-0.1-0.5-0.3-0.8-0.4c-0.6-0.2-1.1-0.6-1.5-1.1c-0.2-0.2-0.3-0.6-0.3-0.9c0-0.6,0.3-1.1,0.7-1.4
		s1-0.5,1.7-0.5c0.5,0,0.9,0.1,1.3,0.2v0.7l0,0c-0.3-0.1-0.8-0.2-1.3-0.2c-0.4,0-0.8,0.1-1,0.2c-0.3,0.2-0.4,0.4-0.4,0.8
		c0,0.4,0.2,0.7,0.5,0.9c0.3,0.2,0.8,0.4,1.2,0.6c0.4,0.2,0.9,0.4,1.2,0.7c0.3,0.3,0.5,0.7,0.5,1.3c0,0.7-0.3,1.3-0.9,1.6
		c-0.5,0.4-1.2,0.6-2,0.6c-0.5,0-1-0.1-1.5-0.3L209.7,55.4L209.7,55.4z"/>
</g>
<circle fill="#97CCC2" cx="231.8" cy="31.1" r="5.8"/>
</svg>
