<svg version="1.2" baseProfile="tiny" xmlns="http://www.w3.org/2000/svg" viewBox="1911.5 641.6 100 70"><path d="M1916.5 644.8h90m-90 15.9h90m-90 15.9h90m-90 15.8h90m-90 15.9h90" fill="none" stroke="#CCC" stroke-width=".25" stroke-miterlimit="10"/><g fill="#CCC"><path d="M1984.9 662.7c-4.2-7.1-21.7-18.4-31.9-11.9 0 .1.1.1.1.1-2.1-.7-5.1-.7-7.7 2.3-4 4.9-.9 8.2-.9 8.2s1.4 1.7.1 2.8c-1.3 1.2-4.6 4.1-3.7 5.3.9 1.2 1.7-.7 2.2-.2.5.5-1.4 1.6-.6 2.3.8.8 2.8-.9 3.6.2.8 1.1-1.5 2.3-.9 2.9.7.6 2.8-.5 3.6.4.7.8-1.1 2.1-.5 2.8.6.7 2.4-.5 3.3.4.9.9-1.1 2.2-.5 2.8.6.6 2-1.2 2.7-.5.7.6-.6 2.6.1 3.1.6.5 1.6-1 2.7-2.4.6-.8 1.2-2 1.3-1.2.4 2.5 2.1 4.3 2.1 4.3-2.4 2.9-3.7 10.9-6.2 11.6-.6.2-1.9-.4-1.9-.4.4-1.8 1.6-2.5.6-3.4-1-.9-1.7.8-2.5.3-.9-.4.6-1.8-.3-2.5-.9-.7-1.9 1.4-2.7 1.2-.7-.2-.1-2.8-.8-3.1-.7-.4-1.4 2.1-2.1 1.8s.6-2.5-.3-3.1-1.2 1.7-2.1 1.4c-.9-.3-.5-2.4-1.3-2.4-.7.1-.8 1.6-1.8 1.4-1-.2-.6-1.7-1.4-1.8-.9-.1-1.2.3-1.3 2.4-.1 2.1-2.1 2.6-2.1 5.4 0 2.8 3.9 3.2 7.6 4.6 3.7 1.3 11.2 6.6 13.5 6.4 2.3-.2 4.9-9.3 5.5-11.2.7-1.9-.5-2.7 2.2-2.5.4 0 .7 0 .9-.2 4 2.3 11.4 4.4 18.8-3 10.2-10.2 7.5-16.3 2.6-24.6zm-35.4.6c-.6-.1-1.2-.4-1.7-.7-.2-.2-.5-.4-.7-.6-.5-.4-1-.8-1.5-1.4-1.7-2.1-.9-5.2 1.3-6.8 2.2-1.6 4.5-2.6 6.9.1 2 2.2 2.1 6.6-1.1 8.2-.1 0-1 .7-1.5 1-.5.2-1.1.3-1.7.2zm3.8 9.6c-1 .1-.1-2.2-1-1.3-.9.9-2-.4-1-1s-2.3-1.4.1-1.7c2.4-.3 4.1-1 4.4-.6.3.4-1.5 4.5-2.5 4.6zm17.1 5c-.1.1-.3.3-.5.4-.3.4-.7.8-1.1 1.1-.5.4-1.2.7-1.9.9-.7.2-1.4.2-2.1.1-.5-.1-1.1-.3-1.5-.5-.9-.2-1.8-.6-2.6-1.4-3-3-.9-8.2 2.4-10 3.3-1.8 6.9.7 8.1 2.2 1.3 1.6 1.3 5.1-.8 7.2z"/><path d="M1965.3 678.1c-.5 0-1-.4-1-.9s.4-1 .9-1 1 .4 1 .9c0 .6-.4 1-.9 1zm-16-23c.5 0 1 .4 1 .9s-.4 1-.9 1-1-.4-1-.9.4-1 .9-1z"/></g></svg>