<?xml version="1.0" encoding="utf-8"?>
<!-- Generator: Adobe Illustrator 19.0.1, SVG Export Plug-In . SVG Version: 6.00 Build 0)  -->
<svg version="1.1" id="Layer_1" xmlns="http://www.w3.org/2000/svg" xmlns:xlink="http://www.w3.org/1999/xlink" x="0px" y="0px"
	 viewBox="-461 322 100 100" style="enable-background:new -461 322 100 100;" xml:space="preserve">
<g>
	<g>
		<path d="M-411,420.5c-26.7,0-48.5-21.8-48.5-48.5s21.8-48.5,48.5-48.5c26.7,0,48.5,21.8,48.5,48.5
			C-362.5,398.7-384.3,420.5-411,420.5z M-411,326.5c-25.1,0-45.5,20.4-45.5,45.5s20.4,45.5,45.5,45.5s45.5-20.4,45.5-45.5
			S-385.9,326.5-411,326.5z"/>
	</g>
	<g>
		<path d="M-378.2,406.8c-0.3,0-0.5-0.1-0.7-0.3l-33.8-33.8c-0.2-0.2-0.3-0.4-0.3-0.7v-47c0-0.6,0.4-1,1-1s1,0.4,1,1v46.6l33.5,33.5
			c0.4,0.4,0.4,1,0,1.4C-377.7,406.7-378,406.8-378.2,406.8z"/>
	</g>
	<g>
		<path d="M-364,373h-48c-0.6,0-1-0.4-1-1s0.4-1,1-1h48c0.6,0,1,0.4,1,1S-363.4,373-364,373z"/>
	</g>
</g>
</svg>
