<svg version="1.1" id="Layer_1" xmlns="http://www.w3.org/2000/svg" xmlns:xlink="http://www.w3.org/1999/xlink" x="0px" y="0px"
	 viewBox="510 0 100 80" style="enable-background:new 510 0 100 80;" xml:space="preserve">
<style type="text/css">
	.st0{fill:#FFFFFF;}
	.st1{fill:#57D8AF;stroke:#FFFFFF;stroke-width:0.2558;stroke-linejoin:round;}
	.st2{fill:#BE50A7;stroke:#FFFFFF;stroke-width:0.2558;stroke-linejoin:round;}
	.st3{fill:#E43891;stroke:#FFFFFF;stroke-width:0.2558;stroke-linejoin:round;}
	.st4{fill:#E5DA04;stroke:#FFFFFF;stroke-width:0.2558;stroke-linejoin:round;}
	.st5{fill:#443939;stroke:#FFFFFF;stroke-width:0.2558;stroke-linejoin:round;}
	.st6{font-family:'Arial-BoldMT';}
	.st7{font-size:4px;}
	.st8{fill:none;stroke:#000000;stroke-width:5;stroke-opacity:5.000000e-02;}
	.st9{fill:none;stroke:#000000;stroke-width:3;stroke-opacity:0.1;}
	.st10{fill:none;stroke:#000000;stroke-opacity:0.15;}
	.st11{fill:#F9F9F9;fill-opacity:0.85;}
</style>
<desc>Created with Highcharts 4.2.3</desc>
<rect x="510" class="st0" width="100" height="80"/>
<g>
	<g transform="translate(10,10) scale(1 1)">
		<path class="st1" d="M504.6,50.7c0-16.5,8.9-31.7,23.4-39.7l11,19.8c-7.2,4-11.7,11.6-11.7,19.9L504.6,50.7z"/>
		<path class="st2" d="M528,11c5-2.8,10.6-4.6,16.3-5.3l2.9,22.5c-2.9,0.4-5.6,1.3-8.2,2.7L528,11z"/>
		<path class="st3" d="M544.3,5.7c10.7-1.3,21.6,1.2,30.6,7.1l-12.5,19c-4.5-3-9.9-4.2-15.3-3.5L544.3,5.7z"/>
		<path class="st4" d="M575,12.8c9.7,6.4,16.6,16.3,19.3,27.6l-22.1,5.2c-1.3-5.7-4.8-10.6-9.6-13.8L575,12.8z"/>
		<path class="st5" d="M594.2,40.5c0.8,3.4,1.2,6.8,1.2,10.2l-22.7,0c0-1.7-0.2-3.4-0.6-5.1L594.2,40.5z"/>
	</g>
	<g transform="translate(10,10) scale(1 1)">
	</g>
</g>
<g transform="translate(10,10) scale(1 1)">
	<g transform="translate(136,186)">
		<text transform="matrix(1 0 0 1 375.8803 -152.9307)" class="st0 st6 st7">Chrome</text>
	</g>
	<g transform="translate(234,121)">
		<text transform="matrix(1 0 0 1 302.9522 -104.5595)" class="st0 st6 st7">IE</text>
	</g>
	<g transform="translate(299,118)">
		<text transform="matrix(1 0 0 1 254.5811 -102.3271)" class="st0 st6 st7">Firefox</text>
	</g>
	<g transform="translate(390,177)">
		<text transform="matrix(1 0 0 1 183.8613 -146.2325)" class="st0 st6 st7">Safari</text>
	</g>
	<g transform="translate(414,244)">
		<text transform="matrix(1 0 0 1 167.0039 -196.0918)" class="st0 st6 st7">Opera</text>
	</g>
</g>
<g transform="translate(0,-9999)">
	<path class="st8" d="M264.5-158.5h10c3,0,3,0,3,3v10c0,3,0,3-3,3h-10c-3,0-3,0-3-3v-10C261.5-158.5,261.5-158.5,264.5-158.5"/>
	<path class="st9" d="M264.5-158.5h10c3,0,3,0,3,3v10c0,3,0,3-3,3h-10c-3,0-3,0-3-3v-10C261.5-158.5,261.5-158.5,264.5-158.5"/>
	<path class="st10" d="M264.5-158.5h10c3,0,3,0,3,3v10c0,3,0,3-3,3h-10c-3,0-3,0-3-3v-10C261.5-158.5,261.5-158.5,264.5-158.5"/>
	<path class="st11" d="M263.5-159.5h10c3,0,3,0,3,3v10c0,3,0,3-3,3h-10c-3,0-3,0-3-3v-10C260.5-159.5,260.5-159.5,263.5-159.5"/>
</g>
</svg>
