<svg version="1.1" id="Layer_1" xmlns="http://www.w3.org/2000/svg" xmlns:xlink="http://www.w3.org/1999/xlink" x="0px" y="0px"
	 viewBox="510 0 100 80" style="enable-background:new 510 0 100 80;" xml:space="preserve">
<style type="text/css">
	.st0{fill:#FFFFFF;}
	.st1{fill:#57D8AF;stroke:#FFFFFF;stroke-width:0.1872;stroke-linejoin:round;}
	.st2{fill:#BE50A7;stroke:#FFFFFF;stroke-width:0.1872;stroke-linejoin:round;}
	.st3{fill:#E43891;stroke:#FFFFFF;stroke-width:0.1872;stroke-linejoin:round;}
	.st4{fill:#E5DA04;stroke:#FFFFFF;stroke-width:0.1872;stroke-linejoin:round;}
	.st5{fill:#443939;stroke:#FFFFFF;stroke-width:0.1872;stroke-linejoin:round;}
	.st6{enable-background:new    ;}
	.st7{fill:#333333;}
	.st8{fill:#57D8AF;}
	.st9{fill:#BE50A7;}
	.st10{fill:#E43891;}
	.st11{fill:#E5DA04;}
	.st12{fill:#443939;}
	.st13{fill:none;stroke:#000000;stroke-width:5;stroke-opacity:5.000000e-02;}
	.st14{fill:none;stroke:#000000;stroke-width:3;stroke-opacity:0.1;}
	.st15{fill:none;stroke:#000000;stroke-opacity:0.15;}
	.st16{fill:#F9F9F9;fill-opacity:0.85;}
</style>
<desc>Created with Highcharts 4.2.3</desc>
<rect x="510" class="st0" width="100" height="80"/>
<g>
	<g transform="translate(10,10) scale(1 1)">
		<path class="st1" d="M550-8c16.4,0,29.8,13.3,29.8,29.8S566.4,51.5,550,51.5c-12.8,0-24.1-8.1-28.2-20.2l28.2-9.5l0,0L550-8z"/>
		<path class="st2" d="M521.8,31.3c-1.3-3.7-1.8-7.6-1.5-11.6l29.7,2.1l0,0L521.8,31.3z"/>
		<path class="st3" d="M520.3,19.7c0.8-12,8.9-22.4,20.3-26.2l9.3,28.3l0,0L520.3,19.7z"/>
		<path class="st4" d="M540.7-6.5c2.2-0.7,4.5-1.2,6.8-1.4l2.5,29.7l0,0L540.7-6.5z"/>
		<path class="st5" d="M547.6-7.9C548.4-8,549.2-8,550-8l0,29.8l0,0L547.6-7.9z"/>
	</g>
	<g transform="translate(10,10) scale(1 1)">
	</g>
</g>
<g>
	<g transform="translate(8,3)">
		<g class="st6">
			<path class="st7" d="M515.4,64.6l0.6,0.1c-0.1,0.5-0.3,0.8-0.6,1.1c-0.3,0.2-0.7,0.4-1.1,0.4c-0.5,0-0.8-0.1-1.1-0.3
				s-0.5-0.5-0.7-0.8s-0.2-0.7-0.2-1.2c0-0.4,0.1-0.8,0.3-1.2s0.4-0.6,0.7-0.8c0.3-0.2,0.7-0.3,1-0.3c0.4,0,0.8,0.1,1.1,0.3
				s0.5,0.5,0.6,0.9l-0.6,0.1c-0.1-0.3-0.2-0.5-0.4-0.7s-0.4-0.2-0.7-0.2c-0.3,0-0.6,0.1-0.8,0.2s-0.4,0.4-0.5,0.6
				c-0.1,0.3-0.1,0.5-0.1,0.8c0,0.4,0.1,0.7,0.2,1c0.1,0.3,0.3,0.5,0.5,0.6s0.5,0.2,0.7,0.2c0.3,0,0.6-0.1,0.8-0.3
				S515.3,65,515.4,64.6z"/>
			<path class="st7" d="M516.6,66.1v-4.3h0.5v1.5c0.2-0.3,0.6-0.4,0.9-0.4c0.2,0,0.4,0,0.6,0.1c0.2,0.1,0.3,0.2,0.4,0.4
				s0.1,0.4,0.1,0.7v2h-0.5v-2c0-0.3-0.1-0.5-0.2-0.6c-0.1-0.1-0.3-0.2-0.5-0.2c-0.2,0-0.3,0-0.4,0.1s-0.2,0.2-0.3,0.3
				s-0.1,0.3-0.1,0.6v1.7H516.6z"/>
			<path class="st7" d="M519.9,66.1V63h0.5v0.5c0.1-0.2,0.2-0.4,0.3-0.4s0.2-0.1,0.3-0.1c0.2,0,0.4,0.1,0.5,0.2l-0.2,0.5
				c-0.1-0.1-0.3-0.1-0.4-0.1c-0.1,0-0.2,0-0.3,0.1c-0.1,0.1-0.2,0.2-0.2,0.3c-0.1,0.2-0.1,0.4-0.1,0.6v1.6H519.9z"/>
			<path class="st7" d="M521.7,64.5c0-0.6,0.2-1,0.5-1.3c0.3-0.2,0.6-0.3,1-0.3c0.4,0,0.8,0.1,1,0.4c0.3,0.3,0.4,0.7,0.4,1.2
				c0,0.4-0.1,0.7-0.2,0.9s-0.3,0.4-0.5,0.5s-0.5,0.2-0.8,0.2c-0.4,0-0.8-0.1-1.1-0.4S521.7,65.1,521.7,64.5z M522.3,64.5
				c0,0.4,0.1,0.7,0.3,0.9s0.4,0.3,0.7,0.3c0.3,0,0.5-0.1,0.7-0.3s0.3-0.5,0.3-0.9c0-0.4-0.1-0.7-0.3-0.9s-0.4-0.3-0.7-0.3
				c-0.3,0-0.5,0.1-0.7,0.3S522.3,64.1,522.3,64.5z"/>
			<path class="st7" d="M525.3,66.1V63h0.5v0.4c0.1-0.2,0.2-0.3,0.4-0.4c0.2-0.1,0.3-0.1,0.6-0.1c0.2,0,0.4,0,0.6,0.1
				s0.3,0.2,0.3,0.4c0.2-0.4,0.6-0.5,1-0.5c0.3,0,0.5,0.1,0.7,0.3c0.2,0.2,0.2,0.4,0.2,0.8v2.1h-0.5v-2c0-0.2,0-0.4-0.1-0.5
				c0-0.1-0.1-0.2-0.2-0.2s-0.2-0.1-0.3-0.1c-0.2,0-0.4,0.1-0.5,0.2s-0.2,0.4-0.2,0.7v1.8h-0.5v-2c0-0.2,0-0.4-0.1-0.5
				s-0.2-0.2-0.4-0.2c-0.1,0-0.3,0-0.4,0.1s-0.2,0.2-0.3,0.3s-0.1,0.4-0.1,0.7v1.6H525.3z"/>
			<path class="st7" d="M532.4,65.1l0.5,0.1c-0.1,0.3-0.2,0.6-0.5,0.7s-0.5,0.3-0.9,0.3c-0.5,0-0.8-0.1-1.1-0.4s-0.4-0.7-0.4-1.2
				c0-0.5,0.1-0.9,0.4-1.2s0.6-0.4,1-0.4c0.4,0,0.8,0.1,1,0.4s0.4,0.7,0.4,1.2c0,0,0,0.1,0,0.1h-2.3c0,0.3,0.1,0.6,0.3,0.8
				s0.4,0.3,0.7,0.3c0.2,0,0.4-0.1,0.5-0.2S532.3,65.3,532.4,65.1z M530.6,64.2h1.7c0-0.3-0.1-0.5-0.2-0.6c-0.2-0.2-0.4-0.3-0.7-0.3
				c-0.2,0-0.4,0.1-0.6,0.2S530.7,64,530.6,64.2z"/>
		</g>
		<rect x="507.7" y="63.9" class="st8" width="3.2" height="2.4"/>
	</g>
	<g>
		<g>
			<g>
				<path class="st7" d="M558.7,69.1v-4.3h0.6v4.3H558.7z"/>
				<path class="st7" d="M560.3,69.1v-4.3h3.1v0.5h-2.5v1.3h2.4v0.5h-2.4v1.5h2.6v0.5H560.3z"/>
			</g>
		</g>
		<rect x="553.9" y="66.9" class="st9" width="3.2" height="2.4"/>
	</g>
	<g transform="translate(149.375,3)">
		<g class="st6">
			<path class="st7" d="M433.4,66.1v-4.3h2.9v0.5H434v1.3h2v0.5h-2v2H433.4z"/>
			<path class="st7" d="M437,62.4v-0.6h0.5v0.6H437z M437,66.1V63h0.5v3.1H437z"/>
			<path class="st7" d="M438.3,66.1V63h0.5v0.5c0.1-0.2,0.2-0.4,0.3-0.4c0.1-0.1,0.2-0.1,0.3-0.1c0.2,0,0.4,0.1,0.5,0.2l-0.2,0.5
				c-0.1-0.1-0.3-0.1-0.4-0.1c-0.1,0-0.2,0-0.3,0.1c-0.1,0.1-0.2,0.2-0.2,0.3c-0.1,0.2-0.1,0.4-0.1,0.6v1.6H438.3z"/>
			<path class="st7" d="M442.4,65.1l0.5,0.1c-0.1,0.3-0.2,0.6-0.5,0.7s-0.5,0.3-0.9,0.3c-0.5,0-0.8-0.1-1.1-0.4
				c-0.3-0.3-0.4-0.7-0.4-1.2c0-0.5,0.1-0.9,0.4-1.2s0.6-0.4,1-0.4c0.4,0,0.8,0.1,1,0.4s0.4,0.7,0.4,1.2c0,0,0,0.1,0,0.1h-2.3
				c0,0.3,0.1,0.6,0.3,0.8s0.4,0.3,0.7,0.3c0.2,0,0.4-0.1,0.5-0.2S442.3,65.3,442.4,65.1z M440.7,64.2h1.7c0-0.3-0.1-0.5-0.2-0.6
				c-0.2-0.2-0.4-0.3-0.7-0.3c-0.2,0-0.4,0.1-0.6,0.2C440.8,63.8,440.7,64,440.7,64.2z"/>
			<path class="st7" d="M443.8,66.1v-2.7h-0.5V63h0.5v-0.3c0-0.2,0-0.4,0.1-0.5c0.1-0.1,0.1-0.2,0.3-0.3c0.1-0.1,0.3-0.1,0.5-0.1
				c0.1,0,0.3,0,0.5,0.1l-0.1,0.5c-0.1,0-0.2,0-0.3,0c-0.2,0-0.3,0-0.3,0.1s-0.1,0.2-0.1,0.4V63h0.6v0.4h-0.6v2.7H443.8z"/>
			<path class="st7" d="M445.1,64.5c0-0.6,0.2-1,0.5-1.3c0.3-0.2,0.6-0.3,1-0.3c0.4,0,0.8,0.1,1,0.4c0.3,0.3,0.4,0.7,0.4,1.2
				c0,0.4-0.1,0.7-0.2,0.9c-0.1,0.2-0.3,0.4-0.5,0.5c-0.2,0.1-0.5,0.2-0.8,0.2c-0.4,0-0.8-0.1-1.1-0.4S445.1,65.1,445.1,64.5z
				 M445.6,64.5c0,0.4,0.1,0.7,0.3,0.9s0.4,0.3,0.7,0.3c0.3,0,0.5-0.1,0.7-0.3s0.3-0.5,0.3-0.9c0-0.4-0.1-0.7-0.3-0.9
				c-0.2-0.2-0.4-0.3-0.7-0.3c-0.3,0-0.5,0.1-0.7,0.3S445.6,64.1,445.6,64.5z"/>
			<path class="st7" d="M448.3,66.1l1.1-1.6l-1.1-1.5h0.7l0.5,0.7c0.1,0.1,0.2,0.3,0.2,0.3c0.1-0.1,0.2-0.2,0.2-0.3l0.5-0.7h0.6
				l-1.1,1.5l1.2,1.6h-0.6l-0.6-1l-0.2-0.3l-0.8,1.2H448.3z"/>
		</g>
		<rect x="428.7" y="63.9" class="st10" width="3.2" height="2.4"/>
	</g>
</g>
<g>
	<g transform="translate(233.375,3)">
		<g class="st6">
			<path class="st7" d="M306.1,73.2l0.5,0c0,0.2,0.1,0.4,0.2,0.5c0.1,0.1,0.2,0.2,0.4,0.3c0.2,0.1,0.4,0.1,0.7,0.1
				c0.2,0,0.4,0,0.6-0.1s0.3-0.2,0.4-0.3c0.1-0.1,0.1-0.2,0.1-0.4c0-0.1,0-0.3-0.1-0.4c-0.1-0.1-0.2-0.2-0.4-0.3
				c-0.1,0-0.4-0.1-0.8-0.2c-0.4-0.1-0.7-0.2-0.8-0.3c-0.2-0.1-0.4-0.2-0.5-0.4c-0.1-0.2-0.2-0.3-0.2-0.5c0-0.2,0.1-0.4,0.2-0.6
				c0.1-0.2,0.3-0.3,0.5-0.4s0.5-0.1,0.8-0.1c0.3,0,0.6,0.1,0.8,0.2c0.2,0.1,0.4,0.3,0.6,0.5s0.2,0.4,0.2,0.7l-0.5,0
				c0-0.3-0.1-0.5-0.3-0.6s-0.4-0.2-0.7-0.2c-0.3,0-0.6,0.1-0.8,0.2c-0.2,0.1-0.2,0.3-0.2,0.5c0,0.2,0.1,0.3,0.2,0.4
				c0.1,0.1,0.4,0.2,0.9,0.3c0.5,0.1,0.8,0.2,1,0.3c0.2,0.1,0.4,0.3,0.6,0.4c0.1,0.2,0.2,0.4,0.2,0.6c0,0.2-0.1,0.4-0.2,0.6
				c-0.1,0.2-0.3,0.4-0.6,0.5c-0.2,0.1-0.5,0.2-0.8,0.2c-0.4,0-0.7-0.1-1-0.2s-0.5-0.3-0.6-0.5C306.2,73.8,306.1,73.5,306.1,73.2z"
				/>
			<path class="st7" d="M312.3,74.2c-0.2,0.2-0.4,0.3-0.6,0.4s-0.4,0.1-0.6,0.1c-0.3,0-0.6-0.1-0.8-0.2c-0.2-0.2-0.3-0.4-0.3-0.6
				c0-0.2,0-0.3,0.1-0.4c0.1-0.1,0.2-0.2,0.3-0.3c0.1-0.1,0.2-0.1,0.4-0.2c0.1,0,0.3-0.1,0.5-0.1c0.4-0.1,0.7-0.1,0.9-0.2
				c0-0.1,0-0.1,0-0.1c0-0.2,0-0.4-0.1-0.5c-0.1-0.1-0.3-0.2-0.6-0.2c-0.2,0-0.4,0-0.5,0.1c-0.1,0.1-0.2,0.2-0.3,0.5l-0.5-0.1
				c0-0.2,0.1-0.4,0.2-0.5s0.3-0.2,0.5-0.3c0.2-0.1,0.4-0.1,0.7-0.1c0.3,0,0.5,0,0.6,0.1s0.3,0.1,0.4,0.2s0.1,0.2,0.2,0.4
				c0,0.1,0,0.3,0,0.5v0.7c0,0.5,0,0.8,0,0.9c0,0.1,0.1,0.3,0.1,0.4h-0.6C312.3,74.5,312.3,74.4,312.3,74.2z M312.2,73
				c-0.2,0.1-0.5,0.1-0.9,0.2c-0.2,0-0.4,0.1-0.5,0.1s-0.2,0.1-0.2,0.2c0,0.1-0.1,0.2-0.1,0.3c0,0.1,0.1,0.3,0.2,0.4
				c0.1,0.1,0.3,0.1,0.5,0.1c0.2,0,0.4,0,0.5-0.1c0.2-0.1,0.3-0.2,0.3-0.4c0.1-0.1,0.1-0.3,0.1-0.5V73z"/>
			<path class="st7" d="M313.7,74.6v-2.7h-0.5v-0.4h0.5v-0.3c0-0.2,0-0.4,0.1-0.5c0.1-0.1,0.1-0.2,0.3-0.3c0.1-0.1,0.3-0.1,0.5-0.1
				c0.1,0,0.3,0,0.5,0.1l-0.1,0.5c-0.1,0-0.2,0-0.3,0c-0.2,0-0.3,0-0.3,0.1s-0.1,0.2-0.1,0.4v0.3h0.6v0.4h-0.6v2.7H313.7z"/>
			<path class="st7" d="M317.3,74.2c-0.2,0.2-0.4,0.3-0.6,0.4s-0.4,0.1-0.6,0.1c-0.3,0-0.6-0.1-0.8-0.2c-0.2-0.2-0.3-0.4-0.3-0.6
				c0-0.2,0-0.3,0.1-0.4c0.1-0.1,0.2-0.2,0.3-0.3c0.1-0.1,0.2-0.1,0.4-0.2c0.1,0,0.3-0.1,0.5-0.1c0.4-0.1,0.7-0.1,0.9-0.2
				c0-0.1,0-0.1,0-0.1c0-0.2,0-0.4-0.1-0.5c-0.1-0.1-0.3-0.2-0.6-0.2c-0.2,0-0.4,0-0.5,0.1c-0.1,0.1-0.2,0.2-0.3,0.5l-0.5-0.1
				c0-0.2,0.1-0.4,0.2-0.5s0.3-0.2,0.5-0.3c0.2-0.1,0.4-0.1,0.7-0.1c0.3,0,0.5,0,0.6,0.1s0.3,0.1,0.4,0.2s0.1,0.2,0.2,0.4
				c0,0.1,0,0.3,0,0.5v0.7c0,0.5,0,0.8,0,0.9c0,0.1,0.1,0.3,0.1,0.4h-0.6C317.3,74.5,317.3,74.4,317.3,74.2z M317.2,73
				c-0.2,0.1-0.5,0.1-0.9,0.2c-0.2,0-0.4,0.1-0.5,0.1s-0.2,0.1-0.2,0.2c0,0.1-0.1,0.2-0.1,0.3c0,0.1,0.1,0.3,0.2,0.4
				c0.1,0.1,0.3,0.1,0.5,0.1c0.2,0,0.4,0,0.5-0.1c0.2-0.1,0.3-0.2,0.3-0.4c0.1-0.1,0.1-0.3,0.1-0.5V73z"/>
			<path class="st7" d="M318.6,74.6v-3.1h0.5V72c0.1-0.2,0.2-0.4,0.3-0.4c0.1-0.1,0.2-0.1,0.3-0.1c0.2,0,0.4,0.1,0.5,0.2l-0.2,0.5
				c-0.1-0.1-0.3-0.1-0.4-0.1c-0.1,0-0.2,0-0.3,0.1c-0.1,0.1-0.2,0.2-0.2,0.3c-0.1,0.2-0.1,0.4-0.1,0.6v1.6H318.6z"/>
			<path class="st7" d="M320.6,70.9v-0.6h0.5v0.6H320.6z M320.6,74.6v-3.1h0.5v3.1H320.6z"/>
		</g>
		<rect x="301.7" y="72.4" class="st11" width="3.2" height="2.4"/>
	</g>
	<g transform="translate(309.671875,3)">
		<g class="st6">
			<path class="st7" d="M261.3,72.5c0-0.7,0.2-1.3,0.6-1.7s0.9-0.6,1.5-0.6c0.4,0,0.8,0.1,1.1,0.3s0.6,0.5,0.7,0.8
				c0.2,0.3,0.3,0.7,0.3,1.2c0,0.4-0.1,0.8-0.3,1.2s-0.4,0.6-0.7,0.8s-0.7,0.3-1,0.3c-0.4,0-0.8-0.1-1.1-0.3s-0.6-0.5-0.7-0.8
				S261.3,72.9,261.3,72.5z M261.9,72.5c0,0.5,0.1,0.9,0.4,1.2c0.3,0.3,0.6,0.4,1,0.4c0.4,0,0.8-0.2,1.1-0.5s0.4-0.7,0.4-1.3
				c0-0.3-0.1-0.7-0.2-0.9c-0.1-0.3-0.3-0.5-0.5-0.6c-0.2-0.1-0.5-0.2-0.8-0.2c-0.4,0-0.7,0.1-1,0.4C262,71.4,261.9,71.9,261.9,72.5
				z"/>
			<path class="st7" d="M266,75.8v-4.3h0.5v0.4c0.1-0.2,0.2-0.3,0.4-0.4c0.1-0.1,0.3-0.1,0.5-0.1c0.3,0,0.5,0.1,0.7,0.2
				s0.4,0.3,0.5,0.6c0.1,0.2,0.2,0.5,0.2,0.8c0,0.3-0.1,0.6-0.2,0.9c-0.1,0.3-0.3,0.5-0.5,0.6c-0.2,0.1-0.4,0.2-0.7,0.2
				c-0.2,0-0.3,0-0.5-0.1c-0.1-0.1-0.3-0.2-0.3-0.3v1.5H266z M266.5,73.1c0,0.4,0.1,0.7,0.2,0.9s0.4,0.3,0.6,0.3
				c0.2,0,0.4-0.1,0.6-0.3c0.2-0.2,0.3-0.5,0.3-0.9c0-0.4-0.1-0.7-0.2-0.9s-0.4-0.3-0.6-0.3c-0.2,0-0.4,0.1-0.6,0.3
				C266.6,72.4,266.5,72.7,266.5,73.1z"/>
			<path class="st7" d="M271.5,73.6l0.5,0.1c-0.1,0.3-0.2,0.6-0.5,0.7s-0.5,0.3-0.9,0.3c-0.5,0-0.8-0.1-1.1-0.4
				c-0.3-0.3-0.4-0.7-0.4-1.2c0-0.5,0.1-0.9,0.4-1.2s0.6-0.4,1-0.4c0.4,0,0.8,0.1,1,0.4s0.4,0.7,0.4,1.2c0,0,0,0.1,0,0.1h-2.3
				c0,0.3,0.1,0.6,0.3,0.8s0.4,0.3,0.7,0.3c0.2,0,0.4-0.1,0.5-0.2S271.4,73.8,271.5,73.6z M269.8,72.7h1.7c0-0.3-0.1-0.5-0.2-0.6
				c-0.2-0.2-0.4-0.3-0.7-0.3c-0.2,0-0.4,0.1-0.6,0.2C269.9,72.3,269.8,72.5,269.8,72.7z"/>
			<path class="st7" d="M272.7,74.6v-3.1h0.5V72c0.1-0.2,0.2-0.4,0.3-0.4c0.1-0.1,0.2-0.1,0.3-0.1c0.2,0,0.4,0.1,0.5,0.2l-0.2,0.5
				c-0.1-0.1-0.3-0.1-0.4-0.1c-0.1,0-0.2,0-0.3,0.1c-0.1,0.1-0.2,0.2-0.2,0.3c-0.1,0.2-0.1,0.4-0.1,0.6v1.6H272.7z"/>
			<path class="st7" d="M276.7,74.2c-0.2,0.2-0.4,0.3-0.6,0.4s-0.4,0.1-0.6,0.1c-0.3,0-0.6-0.1-0.8-0.2c-0.2-0.2-0.3-0.4-0.3-0.6
				c0-0.2,0-0.3,0.1-0.4c0.1-0.1,0.2-0.2,0.3-0.3c0.1-0.1,0.2-0.1,0.4-0.2c0.1,0,0.3-0.1,0.5-0.1c0.4-0.1,0.7-0.1,0.9-0.2
				c0-0.1,0-0.1,0-0.1c0-0.2,0-0.4-0.1-0.5c-0.1-0.1-0.3-0.2-0.6-0.2c-0.2,0-0.4,0-0.5,0.1c-0.1,0.1-0.2,0.2-0.3,0.5l-0.5-0.1
				c0-0.2,0.1-0.4,0.2-0.5s0.3-0.2,0.5-0.3c0.2-0.1,0.4-0.1,0.7-0.1c0.3,0,0.5,0,0.6,0.1s0.3,0.1,0.4,0.2s0.1,0.2,0.2,0.4
				c0,0.1,0,0.3,0,0.5v0.7c0,0.5,0,0.8,0,0.9c0,0.1,0.1,0.3,0.1,0.4h-0.6C276.8,74.5,276.8,74.4,276.7,74.2z M276.7,73
				c-0.2,0.1-0.5,0.1-0.9,0.2c-0.2,0-0.4,0.1-0.5,0.1s-0.2,0.1-0.2,0.2c0,0.1-0.1,0.2-0.1,0.3c0,0.1,0.1,0.3,0.2,0.4
				c0.1,0.1,0.3,0.1,0.5,0.1c0.2,0,0.4,0,0.5-0.1c0.2-0.1,0.3-0.2,0.3-0.4c0.1-0.1,0.1-0.3,0.1-0.5V73z"/>
		</g>
		<rect x="256.8" y="72.4" class="st12" width="3.2" height="2.4"/>
	</g>
</g>
<g transform="translate(0,-9999)">
	<path class="st13" d="M264.5-158.5h10c3,0,3,0,3,3v10c0,3,0,3-3,3h-10c-3,0-3,0-3-3v-10C261.5-158.5,261.5-158.5,264.5-158.5"/>
	<path class="st14" d="M264.5-158.5h10c3,0,3,0,3,3v10c0,3,0,3-3,3h-10c-3,0-3,0-3-3v-10C261.5-158.5,261.5-158.5,264.5-158.5"/>
	<path class="st15" d="M264.5-158.5h10c3,0,3,0,3,3v10c0,3,0,3-3,3h-10c-3,0-3,0-3-3v-10C261.5-158.5,261.5-158.5,264.5-158.5"/>
	<path class="st16" d="M263.5-159.5h10c3,0,3,0,3,3v10c0,3,0,3-3,3h-10c-3,0-3,0-3-3v-10C260.5-159.5,260.5-159.5,263.5-159.5"/>
</g>
</svg>
