<svg xmlns:xlink="http://www.w3.org/1999/xlink" version="1.1" style="font-family:'lucida grande', 'lucida sans unicode', arial, helvetica, sans-serif;font-size:12px;" xmlns="http://www.w3.org/2000/svg" width="100" height="80"><desc>Created with Highcharts 4.2.3</desc><defs><clipPath id="highcharts-228"><rect x="0" y="0" width="70" height="55"></rect></clipPath></defs><rect x="0" y="0" width="100" height="80" fill="#FFFFFF" class=" highcharts-background"></rect><g class="highcharts-grid" ></g><g class="highcharts-grid" ><path fill="none" d="M 20 65.5 L 90 65.5" stroke="#D8D8D8" stroke-width="1"  opacity="1"></path><path fill="none" d="M 20 9.5 L 90 9.5" stroke="#D8D8D8" stroke-width="1"  opacity="1"></path></g><g class="highcharts-axis" ><path fill="none" d="M 20 65.5 L 90 65.5" stroke="#C0D0E0" stroke-width="1" ></path></g><g class="highcharts-axis" ><text x="10"  text-anchor="middle" transform="translate(0,0) rotate(270 10 37.5)" class=" highcharts-yaxis-title" style="color:#707070;fill:#707070;" y="37.5"></text></g><g class="highcharts-series-group" ><g class="highcharts-series highcharts-series-0"  transform="translate(20,10) scale(1 1)" clip-path="url(#highcharts-228)"></g><g class="highcharts-markers highcharts-series-0"  transform="translate(20,10) scale(1 1)" clip-path="none"><path fill="#2B92BE" d="M 41 14.424999999999997 C 46.328 14.424999999999997 46.328 22.424999999999997 41 22.424999999999997 C 35.672 22.424999999999997 35.672 14.424999999999997 41 14.424999999999997 Z"></path><path fill="#2B92BE" d="M 31 30.924999999999997 C 36.328 30.924999999999997 36.328 38.925 31 38.925 C 25.672 38.925 25.672 30.924999999999997 31 30.924999999999997 Z"></path><path fill="#2B92BE" d="M 0 30.512500000000003 C 5.328 30.512500000000003 5.328 38.5125 0 38.5125 C -5.328 38.5125 -5.328 30.512500000000003 0 30.512500000000003 Z"></path><path fill="#2B92BE" d="M 19 30.375 C 24.328 30.375 24.328 38.375 19 38.375 C 13.672 38.375 13.672 30.375 19 30.375 Z"></path><path fill="#2B92BE" d="M 9 35.875 C 14.328 35.875 14.328 43.875 9 43.875 C 3.6719999999999997 43.875 3.6719999999999997 35.875 9 35.875 Z"></path><path fill="#2B92BE" d="M 38 21.78125 C 43.328 21.78125 43.328 29.78125 38 29.78125 C 32.672 29.78125 32.672 21.78125 38 21.78125 Z"></path><path fill="#2B92BE" d="M 35 27.487499999999997 C 40.328 27.487499999999997 40.328 35.4875 35 35.4875 C 29.672 35.4875 29.672 27.487499999999997 35 27.487499999999997 Z"></path><path fill="#2B92BE" d="M 38 26.799999999999997 C 43.328 26.799999999999997 43.328 34.8 38 34.8 C 32.672 34.8 32.672 26.799999999999997 38 26.799999999999997 Z"></path><path fill="#2B92BE" d="M 19 13.049999999999997 C 24.328 13.049999999999997 24.328 21.049999999999997 19 21.049999999999997 C 13.672 21.049999999999997 13.672 13.049999999999997 19 13.049999999999997 Z"></path><path fill="#2B92BE" d="M 43 18.825000000000003 C 48.328 18.825000000000003 48.328 26.825000000000003 43 26.825000000000003 C 37.672 26.825000000000003 37.672 18.825000000000003 43 18.825000000000003 Z"></path><path fill="#2B92BE" d="M 28 16.762500000000003 C 33.328 16.762500000000003 33.328 24.762500000000003 28 24.762500000000003 C 22.672 24.762500000000003 22.672 16.762500000000003 28 16.762500000000003 Z"></path><path fill="#2B92BE" d="M 18 32.025 C 23.328 32.025 23.328 40.025 18 40.025 C 12.672 40.025 12.672 32.025 18 32.025 Z"></path><path fill="#2B92BE" d="M 34 24.1875 C 39.328 24.1875 39.328 32.1875 34 32.1875 C 28.672 32.1875 28.672 24.1875 34 24.1875 Z"></path><path fill="#2B92BE" d="M 13 27.9 C 18.328 27.9 18.328 35.9 13 35.9 C 7.672 35.9 7.672 27.9 13 27.9 Z"></path><path fill="#2B92BE" d="M 15 21.4375 C 20.328 21.4375 20.328 29.4375 15 29.4375 C 9.672 29.4375 9.672 21.4375 15 21.4375 Z"></path><path fill="#2B92BE" d="M 18 30.924999999999997 C 23.328 30.924999999999997 23.328 38.925 18 38.925 C 12.672 38.925 12.672 30.924999999999997 18 30.924999999999997 Z"></path><path fill="#2B92BE" d="M 30 24.1875 C 35.328 24.1875 35.328 32.1875 30 32.1875 C 24.672 32.1875 24.672 24.1875 30 24.1875 Z"></path><path fill="#2B92BE" d="M 21 29.275 C 26.328 29.275 26.328 37.275 21 37.275 C 15.672 37.275 15.672 29.275 21 29.275 Z"></path></g><g class="highcharts-series highcharts-series-1"  transform="translate(20,10) scale(1 1)" clip-path="url(#highcharts-228)"></g><g class="highcharts-markers highcharts-series-1"  transform="translate(20,10) scale(1 1)" clip-path="none"><path fill="#D071C3" d="M 36 16.625 L 40 20.625 36 24.625 32 20.625 Z"></path><path fill="#D071C3" d="M 68 0.26250000000000284 L 72 4.262500000000003 68 8.262500000000003 64 4.262500000000003 Z"></path><path fill="#D071C3" d="M 55 10.025000000000006 L 59 14.025000000000006 55 18.025000000000006 51 14.025000000000006 Z"></path><path fill="#D071C3" d="M 40 15.9375 L 44 19.9375 40 23.9375 36 19.9375 Z"></path><path fill="#D071C3" d="M 43 13.462500000000006 L 47 17.462500000000006 43 21.462500000000006 39 17.462500000000006 Z"></path><path fill="#D071C3" d="M 67 2.875 L 71 6.875 67 10.875 63 6.875 Z"></path><path fill="#D071C3" d="M 46 7.275000000000006 L 50 11.275000000000006 46 15.275000000000006 42 11.275000000000006 Z"></path><path fill="#D071C3" d="M 49 12.087500000000006 L 53 16.087500000000006 49 20.087500000000006 45 16.087500000000006 Z"></path><path fill="#D071C3" d="M 55 8.650000000000006 L 59 12.650000000000006 55 16.650000000000006 51 12.650000000000006 Z"></path><path fill="#D071C3" d="M 41 22.125 L 45 26.125 41 30.125 37 26.125 Z"></path><path fill="#D071C3" d="M 55 10.849999999999994 L 59 14.849999999999994 55 18.849999999999994 51 14.849999999999994 Z"></path><path fill="#D071C3" d="M 55 5.349999999999994 L 59 9.349999999999994 55 13.349999999999994 51 9.349999999999994 Z"></path><path fill="#D071C3" d="M 51 13.325000000000003 L 55 17.325000000000003 51 21.325000000000003 47 17.325000000000003 Z"></path><path fill="#D071C3" d="M 59 10.575000000000003 L 63 14.575000000000003 59 18.575000000000003 55 14.575000000000003 Z"></path><path fill="#D071C3" d="M 58 14.837500000000006 L 62 18.837500000000006 58 22.837500000000006 54 18.837500000000006 Z"></path><path fill="#D071C3" d="M 69 9.268749999999997 L 73 13.268749999999997 69 17.268749999999997 65 13.268749999999997 Z"></path><path fill="#D071C3" d="M 42 15.387500000000003 L 46 19.387500000000003 42 23.387500000000003 38 19.387500000000003 Z"></path><path fill="#D071C3" d="M 40 19.650000000000006 L 44 23.650000000000006 40 27.650000000000006 36 23.650000000000006 Z"></path></g></g><text x="50" text-anchor="middle" class="highcharts-title"  style="color:#333333;font-size:18px;fill:#333333;width:36px;" y="24"></text><g class="highcharts-axis-labels highcharts-xaxis-labels" ></g><g class="highcharts-axis-labels highcharts-yaxis-labels" ></g><g class="highcharts-tooltip"  style="cursor:default;padding:0;pointer-events:none;white-space:nowrap;" transform="translate(0,-9999)"><path fill="none" d="M 3.5 0.5 L 13.5 0.5 C 16.5 0.5 16.5 0.5 16.5 3.5 L 16.5 13.5 C 16.5 16.5 16.5 16.5 13.5 16.5 L 3.5 16.5 C 0.5 16.5 0.5 16.5 0.5 13.5 L 0.5 3.5 C 0.5 0.5 0.5 0.5 3.5 0.5"  stroke="black" stroke-opacity="0.049999999999999996" stroke-width="5" transform="translate(1, 1)"></path><path fill="none" d="M 3.5 0.5 L 13.5 0.5 C 16.5 0.5 16.5 0.5 16.5 3.5 L 16.5 13.5 C 16.5 16.5 16.5 16.5 13.5 16.5 L 3.5 16.5 C 0.5 16.5 0.5 16.5 0.5 13.5 L 0.5 3.5 C 0.5 0.5 0.5 0.5 3.5 0.5"  stroke="black" stroke-opacity="0.09999999999999999" stroke-width="3" transform="translate(1, 1)"></path><path fill="none" d="M 3.5 0.5 L 13.5 0.5 C 16.5 0.5 16.5 0.5 16.5 3.5 L 16.5 13.5 C 16.5 16.5 16.5 16.5 13.5 16.5 L 3.5 16.5 C 0.5 16.5 0.5 16.5 0.5 13.5 L 0.5 3.5 C 0.5 0.5 0.5 0.5 3.5 0.5"  stroke="black" stroke-opacity="0.15" stroke-width="1" transform="translate(1, 1)"></path><path fill="rgb(249, 249, 249)" fill-opacity=" .85" d="M 3.5 0.5 L 13.5 0.5 C 16.5 0.5 16.5 0.5 16.5 3.5 L 16.5 13.5 C 16.5 16.5 16.5 16.5 13.5 16.5 L 3.5 16.5 C 0.5 16.5 0.5 16.5 0.5 13.5 L 0.5 3.5 C 0.5 0.5 0.5 0.5 3.5 0.5"></path><text x="8"  style="font-size:12px;color:#333333;fill:#333333;" y="20"></text></g></svg>