<svg version="1.1" id="Layer_1" xmlns="http://www.w3.org/2000/svg" xmlns:xlink="http://www.w3.org/1999/xlink" x="0px" y="0px"
	 viewBox="-461 322 100 100" style="enable-background:new -461 322 100 100;" xml:space="preserve">
<g>
	<g>
		<path d="M-375,417.5c-0.4,0-0.9-0.2-1.2-0.5l-34.8-42.6l-34.8,42.6c-0.5,0.6-1.5,0.7-2.1,0.2c-0.6-0.5-0.7-1.5-0.2-2.1l36-44
			c0.6-0.7,1.8-0.7,2.3,0l36,44c0.5,0.6,0.4,1.6-0.2,2.1C-374.3,417.4-374.7,417.5-375,417.5z"/>
	</g>
	<g>
		<path d="M-411.4,374c-0.2,0-0.5-0.1-0.7-0.2l-45.6-23.5c-0.7-0.4-1-1.3-0.6-2c0.4-0.7,1.3-1,2-0.6l44.9,23.2l44.7-23.2
			c0.7-0.4,1.6-0.1,2,0.6s0.1,1.6-0.6,2l-45.4,23.5C-411,374-411.2,374-411.4,374z"/>
	</g>
	<g>
		<path d="M-411.5,374.5c-0.8,0-1.5-0.7-1.5-1.5v-49c0-0.8,0.7-1.5,1.5-1.5s1.5,0.7,1.5,1.5v49C-410,373.8-410.7,374.5-411.5,374.5z
			"/>
	</g>
	<g>
		<path d="M-412,339.1l32,17.8l-6.8,45.1H-436l-6.4-45.1L-412,339.1 M-412,337.1c-0.3,0-0.7,0.1-1,0.3l-30.5,17.5
			c-0.7,0.4-1.1,1.2-1,2l6.4,45.1c0.1,1,1,2,2,2h49.2c1,0,1.8-1,2-1.9l6.8-44.9c0.1-0.8-0.3-1.7-1-2.1l-32-17.6
			C-411.3,337.2-411.7,337.1-412,337.1L-412,337.1z"/>
	</g>
	<g>
		<path d="M-411.8,349.1l21.7,12.2l-4.6,30.7h-33.4l-4.4-30.7L-411.8,349.1 M-411.8,347.1c-0.3,0-0.7,0.1-1,0.3l-20.7,11.9
			c-0.7,0.4-1.1,1.2-1,2l4.4,30.7c0.1,1,1,2,2,2h33.4c1,0,1.8-1,2-1.9l4.6-30.6c0.1-0.8-0.3-1.7-1-2.1l-21.7-12
			C-411.1,347.2-411.4,347.1-411.8,347.1L-411.8,347.1z"/>
	</g>
	<g>
		<path d="M-411.5,358.1l12.5,7.1l-2.7,17.8h-19.2l-2.5-17.8L-411.5,358.1 M-411.5,356.1c-0.3,0-0.7,0.1-1,0.3l-11.9,6.8
			c-0.7,0.4-1.1,1.2-1,2l2.5,17.8c0.1,1,1,2,2,2h19.2c1,0,1.8-1,2-1.9l2.7-17.6c0.1-0.8-0.3-1.7-1-2.1l-12.5-6.9
			C-410.9,356.2-411.2,356.1-411.5,356.1L-411.5,356.1z"/>
	</g>
</g>
</svg>
