<svg xmlns:xlink="http://www.w3.org/1999/xlink" version="1.1" style="font-family:'lucida grande', 'lucida sans unicode', arial, helvetica, sans-serif;font-size:8px;" xmlns="http://www.w3.org/2000/svg" width="100" height="80"><desc>Created with Highcharts 4.2.3</desc><defs><clipPath id="highcharts-49"><rect x="0" y="0" width="80" height="55"></rect></clipPath></defs><rect x="0" y="0" width="100" height="80" fill="#FFFFFF" class=" highcharts-background"></rect><g class="highcharts-grid" ></g><g class="highcharts-grid" ><path fill="none" d="M 10 65.5 L 90 65.5" stroke="#D8D8D8" stroke-width="1"  opacity="1"></path><path fill="none" d="M 10 9.5 L 90 9.5" stroke="#D8D8D8" stroke-width="1"  opacity="1"></path></g><g class="highcharts-axis" ><path fill="none" d="M 10 65.5 L 90 65.5" stroke="#C0D0E0" stroke-width="1" ></path></g><g class="highcharts-axis" ></g><g class="highcharts-series-group" ><g class="highcharts-series highcharts-series-0"  transform="translate(10,10) scale(1 1)" clip-path="url(#highcharts-49)"><path fill="none" d="M 0.7843137254901962 46.75 C 0.7843137254901962 46.75 12.549019607843139 35.75 20.3921568627451 35.75 C 28.23529411764706 35.75 32.15686274509804 38.5 40 38.5 C 47.84313725490196 38.5 51.76470588235294 28.599999999999998 59.6078431372549 24.75 C 67.45098039215686 20.9 79.2156862745098 19.25 79.2156862745098 19.25" stroke="#d071c3" stroke-width="2"  stroke-linejoin="round" stroke-linecap="round"></path></g><g class="highcharts-markers highcharts-series-0"  transform="translate(10,10) scale(1 1)" clip-path="none"></g><g class="highcharts-series highcharts-series-1"  transform="translate(10,10) scale(1 1)" clip-path="url(#highcharts-49)"><path fill="none" d="M 0.7843137254901962 55 C 0.7843137254901962 55 12.549019607843139 27.5 20.3921568627451 24.75 C 28.23529411764706 22 32.15686274509804 22 40 22 C 47.84313725490196 22 51.76470588235294 33 59.6078431372549 33 C 67.45098039215686 33 79.2156862745098 27.5 79.2156862745098 27.5" stroke="#39b9be" stroke-width="2"  stroke-linejoin="round" stroke-linecap="round"></path></g><g class="highcharts-markers highcharts-series-1"  transform="translate(10,10) scale(1 1)" clip-path="none"></g></g><g class="highcharts-data-labels highcharts-series-0"  visibility="visible" transform="translate(10,10) scale(1 1)" opacity="1"><g  style="" transform="translate(-5,24)"><text x="5"  style="font-size:11px;font-weight:bold;color:#000000;text-shadow:0 0 6px #ffffff, 0 0 3px #ffffff;fill:#000000;text-rendering:geometricprecision;" y="16"><tspan>3</tspan></text></g><g  style="" transform="translate(12,13)"><text x="5"  style="font-size:11px;font-weight:bold;color:#000000;text-shadow:0 0 6px #ffffff, 0 0 3px #ffffff;fill:#000000;text-rendering:geometricprecision;" y="16"><tspan>7</tspan></text></g><g  style="" transform="translate(31,16)"><text x="5"  style="font-size:11px;font-weight:bold;color:#000000;text-shadow:0 0 6px #ffffff, 0 0 3px #ffffff;fill:#000000;text-rendering:geometricprecision;" y="16"><tspan>6</tspan></text></g><g  style="" transform="translate(47,2)"><text x="5"  style="font-size:11px;font-weight:bold;color:#000000;text-shadow:0 0 6px #ffffff, 0 0 3px #ffffff;fill:#000000;text-rendering:geometricprecision;" y="16"><tspan>11</tspan></text></g><g  style="" transform="translate(60,-4)" opacity="0" visibility="hidden"><text x="5"  style="font-size:11px;font-weight:bold;color:#000000;text-shadow:0 0 6px #ffffff, 0 0 3px #ffffff;fill:#000000;text-rendering:geometricprecision;" y="16"><tspan>13</tspan></text></g></g><g class="highcharts-data-labels highcharts-series-1"  visibility="visible" transform="translate(10,10) scale(1 1)" opacity="1"><g  style="" transform="translate(-5,32)" opacity="0" visibility="hidden"><text x="5"  style="font-size:11px;font-weight:bold;color:#000000;text-shadow:0 0 6px #ffffff, 0 0 3px #ffffff;fill:#000000;text-rendering:geometricprecision;" y="16"><tspan>0</tspan></text></g><g  style="" transform="translate(8,2)" opacity="0" visibility="hidden"><text x="5"  style="font-size:11px;font-weight:bold;color:#000000;text-shadow:0 0 6px #ffffff, 0 0 3px #ffffff;fill:#000000;text-rendering:geometricprecision;" y="16"><tspan>11</tspan></text></g><g  style="" transform="translate(28,-1)"><text x="5"  style="font-size:11px;font-weight:bold;color:#000000;text-shadow:0 0 6px #ffffff, 0 0 3px #ffffff;fill:#000000;text-rendering:geometricprecision;" y="16"><tspan>12</tspan></text></g><g  style="" transform="translate(51,10)" opacity="0" visibility="hidden"><text x="5"  style="font-size:11px;font-weight:bold;color:#000000;text-shadow:0 0 6px #ffffff, 0 0 3px #ffffff;fill:#000000;text-rendering:geometricprecision;" y="16"><tspan>8</tspan></text></g><g  style="" transform="translate(60,5)" opacity="0" visibility="hidden"><text x="5"  style="font-size:11px;font-weight:bold;color:#000000;text-shadow:0 0 6px #ffffff, 0 0 3px #ffffff;fill:#000000;text-rendering:geometricprecision;" y="16"><tspan>10</tspan></text></g></g><g class="highcharts-axis-labels highcharts-xaxis-labels" ></g><g class="highcharts-axis-labels highcharts-yaxis-labels" ></g><g class="highcharts-tooltip"  style="cursor:default;padding:0;pointer-events:none;white-space:nowrap;" transform="translate(0,-9999)"><path fill="none" d="M 3.5 0.5 L 13.5 0.5 C 16.5 0.5 16.5 0.5 16.5 3.5 L 16.5 13.5 C 16.5 16.5 16.5 16.5 13.5 16.5 L 3.5 16.5 C 0.5 16.5 0.5 16.5 0.5 13.5 L 0.5 3.5 C 0.5 0.5 0.5 0.5 3.5 0.5"  stroke="black" stroke-opacity="0.049999999999999996" stroke-width="5" transform="translate(1, 1)"></path><path fill="none" d="M 3.5 0.5 L 13.5 0.5 C 16.5 0.5 16.5 0.5 16.5 3.5 L 16.5 13.5 C 16.5 16.5 16.5 16.5 13.5 16.5 L 3.5 16.5 C 0.5 16.5 0.5 16.5 0.5 13.5 L 0.5 3.5 C 0.5 0.5 0.5 0.5 3.5 0.5"  stroke="black" stroke-opacity="0.09999999999999999" stroke-width="3" transform="translate(1, 1)"></path><path fill="none" d="M 3.5 0.5 L 13.5 0.5 C 16.5 0.5 16.5 0.5 16.5 3.5 L 16.5 13.5 C 16.5 16.5 16.5 16.5 13.5 16.5 L 3.5 16.5 C 0.5 16.5 0.5 16.5 0.5 13.5 L 0.5 3.5 C 0.5 0.5 0.5 0.5 3.5 0.5"  stroke="black" stroke-opacity="0.15" stroke-width="1" transform="translate(1, 1)"></path><path fill="rgb(249, 249, 249)" fill-opacity=" .85" d="M 3.5 0.5 L 13.5 0.5 C 16.5 0.5 16.5 0.5 16.5 3.5 L 16.5 13.5 C 16.5 16.5 16.5 16.5 13.5 16.5 L 3.5 16.5 C 0.5 16.5 0.5 16.5 0.5 13.5 L 0.5 3.5 C 0.5 0.5 0.5 0.5 3.5 0.5"></path><text x="8"  style="font-size:8px;color:#333333;fill:#333333;" y="20"></text></g></svg>