<svg version="1.2" baseProfile="tiny" xmlns="http://www.w3.org/2000/svg" viewBox="1767 721.9 100 70"><path d="M1772 725.1h90m-90 15.9h90m-90 15.9h90m-90 15.9h90m-90 15.8h90" fill="none" stroke="#CCC" stroke-width=".25" stroke-miterlimit="10"/><path fill="none" stroke="#000" stroke-miterlimit="10" d="M1772 772.5l17.9-25.2c1.3-1.9 3.3-3.2 5.5-3.8l16.4-4.4c3.2-.9 6.7-.1 9.2 2.1l15.8 13.9c3.1 2.7 7.6 3.3 11.2 1.3l13.9-7.3"/><circle fill="#FFF" cx="1817" cy="738.6" r="3"/><circle fill="#FF4136" cx="1817" cy="738.6" r="2"/><circle fill="#FFF" cx="1792" cy="744.5" r="3"/><circle fill="#FF4136" cx="1792" cy="744.5" r="2"/><circle fill="#FFF" cx="1842" cy="757.4" r="3"/><circle fill="#FF4136" cx="1842" cy="757.4" r="2"/><circle fill="#FFF" cx="1862" cy="749.1" r="3"/><circle fill="#FF4136" cx="1862" cy="749.1" r="2"/><circle fill="#FFF" cx="1772" cy="772.5" r="3"/><circle fill="#FF4136" cx="1772" cy="772.5" r="2"/></svg>