<svg version="1.1" id="Layer_1" xmlns="http://www.w3.org/2000/svg" xmlns:xlink="http://www.w3.org/1999/xlink" x="0px" y="0px"
	 viewBox="-461 322 100 100" style="enable-background:new -461 322 100 100;" xml:space="preserve">
<g>
	<g>
		<path d="M-366,419h-90.5c-0.8,0-1.5-0.7-1.5-1.5V327c0-0.8,0.7-1.5,1.5-1.5s1.5,0.7,1.5,1.5v89h89c0.8,0,1.5,0.7,1.5,1.5
			S-365.2,419-366,419z"/>
	</g>
	<g>
		<path d="M-456,385c-0.3,0-0.5-0.1-0.7-0.3c-0.4-0.4-0.4-1,0-1.4l23-23c0.4-0.4,1-0.4,1.4,0l21.3,21.3l38.3-41.2
			c0.4-0.4,1-0.4,1.4-0.1s0.4,1,0.1,1.4l-39,42c-0.2,0.2-0.4,0.3-0.7,0.3c-0.3,0-0.5-0.1-0.7-0.3l-21.3-21.3l-22.3,22.3
			C-455.5,384.9-455.7,385-456,385z"/>
	</g>
	<g>
		<path d="M-456,404c-0.3,0-0.5-0.1-0.7-0.3c-0.4-0.4-0.4-1,0-1.4l23-23c0.4-0.4,1-0.4,1.4,0l21.3,21.3l38.3-41.2
			c0.4-0.4,1-0.4,1.4-0.1s0.4,1,0.1,1.4l-39,42c-0.2,0.2-0.4,0.3-0.7,0.3c-0.3,0-0.5-0.1-0.7-0.3l-21.3-21.3l-22.3,22.3
			C-455.5,403.9-455.7,404-456,404z"/>
	</g>
</g>
</svg>
