<?xml version="1.0" encoding="utf-8"?>
<!-- Generator: Adobe Illustrator 19.1.0, SVG Export Plug-In . SVG Version: 6.00 Build 0)  -->
<svg version="1.2" baseProfile="tiny" xmlns="http://www.w3.org/2000/svg" xmlns:xlink="http://www.w3.org/1999/xlink" x="0px"
	 y="0px" viewBox="221.5 721.2 100 70" xml:space="preserve">
<g id="Layer_1">
</g>
<g id="not_x5F_found">
</g>
<g id="line_charts">
</g>
<g id="area_charts">
</g>
<g id="bar_charts">
</g>
<g id="column_charts">
</g>
<g id="_x33_D_charts">
	<polyline fill="none" stroke="#CCCCCC" stroke-width="0.25" stroke-miterlimit="10" points="230.9,766.8 238,759.3 310.1,763 	"/>
	<polyline fill="none" stroke="#CCCCCC" stroke-width="0.25" stroke-miterlimit="10" points="230.5,751.2 237.6,743.7 309.7,747.5 	
		"/>
	<polyline fill="none" stroke="#CCCCCC" stroke-width="0.25" stroke-miterlimit="10" points="255.3,783.7 262.4,776.1 261.2,729.4 	
		"/>
	<polyline fill="none" stroke="#CCCCCC" stroke-width="0.25" stroke-miterlimit="10" points="279.4,784.9 286.5,777.4 285.2,730.6 	
		"/>
	<polyline fill="none" stroke="#CCCCCC" stroke-width="0.25" stroke-miterlimit="10" points="303.4,786.2 310.5,778.6 238.4,774.8 
		231.3,782.4 	"/>
	<g>
		<g>
			<g>
				<polygon fill="#5B85AE" points="244.5,768.6 244.8,779.3 239,779 238.7,768.3 				"/>
			</g>
			<g>
				<polygon fill="#5982AA" points="244.5,768.6 247.1,765.8 247.4,776.5 244.8,779.3 				"/>
			</g>
			<g>
				<polygon fill="#577FA6" points="238.7,768.3 241.3,765.5 247.1,765.8 244.5,768.6 				"/>
			</g>
		</g>
		<g>
			<g>
				<polygon fill="#313135" points="252.5,737.3 253.7,779.8 247.9,779.5 246.7,737 				"/>
			</g>
			<g>
				<polygon fill="#303034" points="252.5,737.3 255.2,734.5 256.3,777 253.7,779.8 				"/>
			</g>
			<g>
				<polygon fill="#2F2F33" points="246.7,737 249.4,734.2 255.2,734.5 252.5,737.3 				"/>
			</g>
		</g>
		<g>
			<g>
				<polygon fill="#5B85AE" points="268.2,749.8 269,780.6 263.2,780.3 262.4,749.5 				"/>
			</g>
			<g>
				<polygon fill="#5982AA" points="268.2,749.8 270.8,747 271.6,777.8 269,780.6 				"/>
			</g>
			<g>
				<polygon fill="#577FA6" points="262.4,749.5 265,746.7 270.8,747 268.2,749.8 				"/>
			</g>
		</g>
		<g>
			<g>
				<polygon fill="#313135" points="277.4,761 277.9,781.1 272.1,780.8 271.6,760.7 				"/>
			</g>
			<g>
				<polygon fill="#303034" points="277.4,761 280,758.2 280.5,778.3 277.9,781.1 				"/>
			</g>
			<g>
				<polygon fill="#2F2F33" points="271.6,760.7 274.2,757.9 280,758.2 277.4,761 				"/>
			</g>
		</g>
		<g>
			<g>
				<polygon fill="#5B85AE" points="292.1,738.4 293.2,781.9 287.4,781.6 286.3,738.1 				"/>
			</g>
			<g>
				<polygon fill="#5982AA" points="292.1,738.4 294.7,735.6 295.9,779.1 293.2,781.9 				"/>
			</g>
			<g>
				<polygon fill="#577FA6" points="286.3,738.1 288.9,735.3 294.7,735.6 292.1,738.4 				"/>
			</g>
		</g>
		<g>
			<g>
				<polygon fill="#313135" points="301.9,771.6 302.1,782.3 296.4,782 296.1,771.3 				"/>
			</g>
			<g>
				<polygon fill="#303034" points="301.9,771.6 304.5,768.8 304.8,779.6 302.1,782.3 				"/>
			</g>
			<g>
				<polygon fill="#2F2F33" points="296.1,771.3 298.7,768.5 304.5,768.8 301.9,771.6 				"/>
			</g>
		</g>
	</g>
	<line fill="none" stroke="#CCCCCC" stroke-width="0.25" stroke-miterlimit="10" x1="238.4" y1="774.8" x2="237.2" y2="728.1"/>
	<polyline fill="none" stroke="#CCCCCC" stroke-width="0.25" stroke-miterlimit="10" points="310.5,778.6 309.3,731.9 237.2,728.1 
		230.1,735.6 	"/>
</g>
</svg>
