<?xml version="1.0" encoding="utf-8"?>
<!-- Generator: Adobe Illustrator 19.1.0, SVG Export Plug-In . SVG Version: 6.00 Build 0)  -->
<svg version="1.1" xmlns="http://www.w3.org/2000/svg" xmlns:xlink="http://www.w3.org/1999/xlink" x="0px" y="0px"
	 viewBox="1056 1076.4 100 70" enable-background="new 1056 1076.4 100 70" xml:space="preserve">
<g id="Layer_1">
</g>
<g id="not_x5F_found">
</g>
<g id="line_charts">
</g>
<g id="area_charts">
	<g>
		<g>
			<line fill="none" stroke="#CCCCCC" stroke-width="0.25" stroke-miterlimit="10" x1="1061" y1="1079.6" x2="1151" y2="1079.6"/>
			<line fill="none" stroke="#CCCCCC" stroke-width="0.25" stroke-miterlimit="10" x1="1061" y1="1095.5" x2="1151" y2="1095.5"/>
			<line fill="none" stroke="#CCCCCC" stroke-width="0.25" stroke-miterlimit="10" x1="1061" y1="1111.4" x2="1151" y2="1111.4"/>
			<line fill="none" stroke="#CCCCCC" stroke-width="0.25" stroke-miterlimit="10" x1="1061" y1="1127.2" x2="1151" y2="1127.2"/>
			<line fill="none" stroke="#CCCCCC" stroke-width="0.25" stroke-miterlimit="10" x1="1061" y1="1143.1" x2="1151" y2="1143.1"/>
		</g>
		<polygon opacity="0.7" fill="#7CB5EC" points="1131,1110.1 1106,1096.4 1081,1108.9 1061,1110 1061,1140.4 1081,1117.2 1106,1099 
			1131,1141 1151,1132.1 1151,1103.6 		"/>
		<polyline fill="none" stroke="#7CB5EC" stroke-miterlimit="10" points="1061,1110 1081,1108.9 1106,1096.4 1131,1110.1 
			1151,1103.6 		"/>
		<polyline fill="none" stroke="#7CB5EC" stroke-miterlimit="10" points="1061,1140.4 1081,1117.2 1106,1099 1131,1141 1151,1132.1 
					"/>
	</g>
</g>
</svg>
