<?xml version="1.0" encoding="utf-8"?>
<!-- Generator: Adobe Illustrator 19.1.0, SVG Export Plug-In . SVG Version: 6.00 Build 0)  -->
<svg version="1.1" xmlns="http://www.w3.org/2000/svg" xmlns:xlink="http://www.w3.org/1999/xlink" x="0px" y="0px"
	 viewBox="1056 976.3 100 70" enable-background="new 1056 976.3 100 70" xml:space="preserve">
<g id="Layer_1">
</g>
<g id="not_x5F_found">
</g>
<g id="line_charts">
</g>
<g id="area_charts">
	<g>
		<g>
			<line fill="none" stroke="#CCCCCC" stroke-width="0.25" stroke-miterlimit="10" x1="1061" y1="1043.3" x2="1061" y2="979.3"/>
			
				<line fill="none" stroke="#CCCCCC" stroke-width="0.25" stroke-miterlimit="10" x1="1083.5" y1="1043.3" x2="1083.5" y2="979.3"/>
			<line fill="none" stroke="#CCCCCC" stroke-width="0.25" stroke-miterlimit="10" x1="1106" y1="1043.3" x2="1106" y2="979.3"/>
			
				<line fill="none" stroke="#CCCCCC" stroke-width="0.25" stroke-miterlimit="10" x1="1128.5" y1="1043.3" x2="1128.5" y2="979.3"/>
			<line fill="none" stroke="#CCCCCC" stroke-width="0.25" stroke-miterlimit="10" x1="1151" y1="1043.3" x2="1151" y2="979.3"/>
		</g>
		<polygon opacity="0.7" fill="#7CB5EC" points="1125.9,979.3 1095,993.5 1076.8,1011.3 1119,1029 1114.2,1043.3 1061,1043.3 
			1061,979.3 		"/>
		<polyline fill="none" stroke="#7CB5EC" stroke-miterlimit="10" points="1125.9,979.3 1095,993.5 1076.8,1011.3 1119,1029 
			1114.2,1043.3 		"/>
		<polygon opacity="0.75" fill="#434348" points="1076.8,979.3 1108,993.5 1132.5,1011.3 1075.9,1029 1088,1043.3 1061,1043.3 
			1061,979.3 		"/>
		<polyline fill="none" stroke="#434348" stroke-miterlimit="10" points="1076.8,979.3 1108,993.5 1132.5,1011.3 1075.9,1029 
			1088,1043.3 		"/>
		<g>
			<rect x="1113.2" y="991.1" fill="#CCCCCC" width="5.4" height="4"/>
			<rect x="1127" y="979.3" fill="#CCCCCC" width="5.4" height="4"/>
			<rect x="1117.8" y="1039.3" fill="#CCCCCC" width="5.4" height="4"/>
			<rect x="1120.5" y="1027.1" fill="#CCCCCC" width="5.4" height="4"/>
			<rect x="1135.5" y="1009.3" fill="#CCCCCC" width="5.4" height="4"/>
		</g>
	</g>
</g>
</svg>
