<?xml version="1.0" encoding="utf-8"?>
<!-- Generator: Adobe Illustrator 19.1.0, SVG Export Plug-In . SVG Version: 6.00 Build 0)  -->
<svg version="1.1" xmlns="http://www.w3.org/2000/svg" xmlns:xlink="http://www.w3.org/1999/xlink" x="0px" y="0px"
	 viewBox="1056 1164.4 100 70" enable-background="new 1056 1164.4 100 70" xml:space="preserve">
<g id="Layer_1">
</g>
<g id="not_x5F_found">
</g>
<g id="line_charts">
</g>
<g id="area_charts">
	<g>
		<g>
			<line fill="none" stroke="#CCCCCC" stroke-width="0.25" stroke-miterlimit="10" x1="1061" y1="1167.6" x2="1151" y2="1167.6"/>
			<line fill="none" stroke="#CCCCCC" stroke-width="0.25" stroke-miterlimit="10" x1="1061" y1="1183.5" x2="1151" y2="1183.5"/>
			<line fill="none" stroke="#CCCCCC" stroke-width="0.25" stroke-miterlimit="10" x1="1061" y1="1199.4" x2="1151" y2="1199.4"/>
			<line fill="none" stroke="#CCCCCC" stroke-width="0.25" stroke-miterlimit="10" x1="1061" y1="1215.2" x2="1151" y2="1215.2"/>
			<line fill="none" stroke="#CCCCCC" stroke-width="0.25" stroke-miterlimit="10" x1="1061" y1="1231.1" x2="1151" y2="1231.1"/>
		</g>
		<path fill="#EEEEEE" d="M1086.9,1166.4c-0.5,0-0.9,0.4-0.9,0.9v6.8c0,0.5,0.4,0.9,0.9,0.9h4c0.5,0,0.9-0.4,0.9-0.9v-6.8
			c0-0.5-0.4-0.9-0.9-0.9H1086.9z M1120.4,1166.4c-0.5,0-0.9,0.4-0.9,0.9v6.8c0,0.5,0.4,0.9,0.9,0.9h4c0.5,0,0.9-0.4,0.9-0.9v-6.8
			c0-0.5-0.4-0.9-0.9-0.9H1120.4z M1077.6,1169.4c-1,0-1.9,0.9-1.9,1.9v7.9c0,1,0.8,1.9,1.9,1.9h56.1c1,0,1.9-0.8,1.9-1.9v-7.9
			c0-1-0.8-1.9-1.9-1.9h-6.8v5.2c0,1-0.8,1.9-1.9,1.9h-5.1c-1,0-1.9-0.9-1.9-1.9v-5.2h-24.6v5.2c0,1-0.8,1.9-1.9,1.9h-5.1
			c-1,0-1.9-0.9-1.9-1.9v-5.2H1077.6z M1077.6,1185c-1,0-1.9,0.8-1.9,1.9v37.4c0,1,0.8,1.9,1.9,1.9h35.8c-0.5-0.8-0.9-1.6-1.3-2.4
			h-32.2c-1,0-1.7-0.7-1.7-1.6v-33c0-0.9,0.7-1.6,1.7-1.6h51.5c1,0,1.7,0.7,1.7,1.6v9.8c0.8,0.2,1.6,0.5,2.4,0.8v-12.8
			c0-1-0.8-1.9-1.9-1.9H1077.6z M1128.3,1200.2c-1.8,0-3.7,0.4-5.5,1.1c-8.3,3.2-12.5,12.5-9.3,20.8c3.2,8.3,12.5,12.5,20.8,9.3
			c8.3-3.2,12.5-12.5,9.3-20.8C1141.1,1204.1,1134.9,1200.1,1128.3,1200.2z M1128.3,1205C1128.3,1205,1128.3,1205,1128.3,1205
			c0.7,0,1.2,0.5,1.2,1.1c0,0,0,0,0,0l0,9.9c0,0.3,0,0.6-0.2,0.9c0,0,0,0,0,0c0,0,0,0.1-0.1,0.1c0,0,0,0-0.1,0.1
			c-0.3,0.2-0.6,0.3-0.9,0.3h-10.1c-0.6,0-1.2-0.5-1.2-1.2c0-0.6,0.5-1.2,1.2-1.2h9.1v-8.9C1127.2,1205.6,1127.7,1205.1,1128.3,1205
			z"/>
		<polygon opacity="0.7" fill="#7CB5EC" points="1061,1183 1081,1205.9 1106,1219.4 1131,1188.1 1151,1191.6 1151,1231.1 
			1061,1231.1 		"/>
		<polyline fill="none" stroke="#7CB5EC" stroke-miterlimit="10" points="1061,1183 1081,1205.9 1106,1219.4 1131,1188.1 
			1151,1191.6 		"/>
	</g>
</g>
</svg>
