<?xml version="1.0" encoding="utf-8"?>
<!-- Generator: Adobe Illustrator 19.1.0, SVG Export Plug-In . SVG Version: 6.00 Build 0)  -->
<svg version="1.1" xmlns="http://www.w3.org/2000/svg" xmlns:xlink="http://www.w3.org/1999/xlink" x="0px" y="0px"
	 viewBox="1056 806.9 100 70" enable-background="new 1056 806.9 100 70" xml:space="preserve">
<g id="Layer_1">
</g>
<g id="not_x5F_found">
</g>
<g id="line_charts">
</g>
<g id="area_charts">
	<g>
		<g>
			<line fill="none" stroke="#CCCCCC" stroke-width="0.25" stroke-miterlimit="10" x1="1061" y1="810.1" x2="1151" y2="810.1"/>
			<line fill="none" stroke="#CCCCCC" stroke-width="0.25" stroke-miterlimit="10" x1="1061" y1="826" x2="1151" y2="826"/>
			<line fill="none" stroke="#CCCCCC" stroke-width="0.25" stroke-miterlimit="10" x1="1061" y1="841.9" x2="1151" y2="841.9"/>
			<line fill="none" stroke="#CCCCCC" stroke-width="0.25" stroke-miterlimit="10" x1="1061" y1="857.8" x2="1151" y2="857.8"/>
			<line fill="none" stroke="#CCCCCC" stroke-width="0.25" stroke-miterlimit="10" x1="1061" y1="873.6" x2="1151" y2="873.6"/>
		</g>
		<polygon opacity="0.7" fill="#7CB5EC" points="1061,840.5 1081,839.4 1106,826.9 1131,840.6 1151,834.1 1151,873.6 1061,873.6 		
			"/>
		<polyline fill="none" stroke="#7CB5EC" stroke-miterlimit="10" points="1061,840.5 1081,839.4 1106,826.9 1131,840.6 1151,834.1 
					"/>
		<polygon opacity="0.75" fill="#434348" points="1061,870.9 1081,847.8 1106,829.6 1131,871.6 1151,862.6 1151,873.6 1061,873.6 		
			"/>
		<polyline fill="none" stroke="#434348" stroke-miterlimit="10" points="1061,870.9 1081,847.8 1106,829.6 1131,871.6 1151,862.6 
					"/>
	</g>
</g>
</svg>
