<?xml version="1.0" encoding="utf-8"?>
<!-- Generator: Adobe Illustrator 19.1.0, SVG Export Plug-In . SVG Version: 6.00 Build 0)  -->
<svg version="1.1" xmlns="http://www.w3.org/2000/svg" xmlns:xlink="http://www.w3.org/1999/xlink" x="0px" y="0px"
	 viewBox="1192.5 893.9 100 70" enable-background="new 1192.5 893.9 100 70" xml:space="preserve">
<g id="Layer_1">
</g>
<g id="not_x5F_found">
</g>
<g id="line_charts">
</g>
<g id="area_charts">
	<g>
		<g>
			<line fill="none" stroke="#CCCCCC" stroke-width="0.25" stroke-miterlimit="10" x1="1197.5" y1="960.9" x2="1197.5" y2="896.9"/>
			<line fill="none" stroke="#CCCCCC" stroke-width="0.25" stroke-miterlimit="10" x1="1220" y1="960.9" x2="1220" y2="896.9"/>
			<line fill="none" stroke="#CCCCCC" stroke-width="0.25" stroke-miterlimit="10" x1="1242.5" y1="960.9" x2="1242.5" y2="896.9"/>
			<line fill="none" stroke="#CCCCCC" stroke-width="0.25" stroke-miterlimit="10" x1="1265" y1="960.9" x2="1265" y2="896.9"/>
			<line fill="none" stroke="#CCCCCC" stroke-width="0.25" stroke-miterlimit="10" x1="1287.5" y1="960.9" x2="1287.5" y2="896.9"/>
		</g>
		<polygon opacity="0.7" fill="#7CB5EC" points="1262.4,896.9 1231.5,911.1 1213.3,928.9 1255.5,946.7 1250.7,960.9 1197.5,960.9 
			1197.5,896.9 		"/>
		<polyline fill="none" stroke="#7CB5EC" stroke-miterlimit="10" points="1262.4,896.9 1231.5,911.1 1213.3,928.9 1255.5,946.7 
			1250.7,960.9 		"/>
		<polygon opacity="0.75" fill="#434348" points="1213.3,896.9 1244.5,911.1 1269,928.9 1212.4,946.7 1224.5,960.9 1197.5,960.9 
			1197.5,896.9 		"/>
		<polyline fill="none" stroke="#434348" stroke-miterlimit="10" points="1213.3,896.9 1244.5,911.1 1269,928.9 1212.4,946.7 
			1224.5,960.9 		"/>
	</g>
</g>
</svg>
