<?xml version="1.0" encoding="utf-8"?>
<!-- Generator: Adobe Illustrator 19.1.0, SVG Export Plug-In . SVG Version: 6.00 Build 0)  -->
<svg version="1.1" xmlns="http://www.w3.org/2000/svg" xmlns:xlink="http://www.w3.org/1999/xlink" x="0px" y="0px"
	 viewBox="508.7 1148.2 100 70" enable-background="new 508.7 1148.2 100 70" xml:space="preserve">
<g id="Layer_1">
</g>
<g id="not_x5F_found">
</g>
<g id="line_charts">
</g>
<g id="area_charts">
</g>
<g id="Layer_6">
	<g>
		<line fill="none" stroke="#7CB5EC" stroke-width="6" stroke-miterlimit="10" x1="552.6" y1="1165.9" x2="590.5" y2="1165.9"/>
		<line fill="none" stroke="#7CB5EC" stroke-width="6" stroke-miterlimit="10" x1="541.7" y1="1157.1" x2="581" y2="1157.1"/>
		<line fill="none" stroke="#7CB5EC" stroke-width="6" stroke-miterlimit="10" x1="574.1" y1="1183.4" x2="561.4" y2="1183.4"/>
		<line fill="none" stroke="#7CB5EC" stroke-width="6" stroke-miterlimit="10" x1="584.6" y1="1192.1" x2="595.3" y2="1192.1"/>
		<line fill="none" stroke="#7CB5EC" stroke-width="6" stroke-miterlimit="10" x1="554.7" y1="1174.6" x2="571.7" y2="1174.6"/>
		<line fill="none" stroke="#7CB5EC" stroke-width="6" stroke-miterlimit="10" x1="528.7" y1="1209.6" x2="545.3" y2="1209.6"/>
		<line fill="none" stroke="#7CB5EC" stroke-width="6" stroke-miterlimit="10" x1="563.1" y1="1200.8" x2="588.3" y2="1200.8"/>
		<rect x="582.5" y="1155.2" fill="#CCCCCC" width="5.7" height="3.8"/>
		<rect x="591.9" y="1164" fill="#CCCCCC" width="5.7" height="3.8"/>
		<rect x="589.8" y="1198.9" fill="#CCCCCC" width="5.7" height="3.8"/>
		<rect x="596.7" y="1190.2" fill="#CCCCCC" width="5.7" height="3.8"/>
		<rect x="546.7" y="1207.6" fill="#CCCCCC" width="5.7" height="3.8"/>
		<rect x="575.5" y="1181.4" fill="#CCCCCC" width="5.7" height="3.8"/>
		<rect x="521.6" y="1207.6" fill="#CCCCCC" width="5.7" height="3.8"/>
		<rect x="573.1" y="1172.7" fill="#CCCCCC" width="5.7" height="3.8"/>
		<rect x="534.6" y="1155.2" fill="#CCCCCC" width="5.7" height="3.8"/>
		<rect x="545.5" y="1164" fill="#CCCCCC" width="5.7" height="3.8"/>
		<rect x="554.2" y="1181.4" fill="#CCCCCC" width="5.7" height="3.8"/>
		<rect x="577.5" y="1190.2" fill="#CCCCCC" width="5.7" height="3.8"/>
		<rect x="547.6" y="1172.7" fill="#CCCCCC" width="5.7" height="3.8"/>
		<rect x="555.9" y="1198.9" fill="#CCCCCC" width="5.7" height="3.8"/>
	</g>
</g>
<g id="column_charts">
	<g>
		<line fill="none" stroke="#CCCCCC" stroke-width="0.25" stroke-miterlimit="10" x1="603.7" y1="1151.2" x2="603.7" y2="1215.2"/>
		<line fill="none" stroke="#CCCCCC" stroke-width="0.25" stroke-miterlimit="10" x1="581.1" y1="1151.2" x2="581.1" y2="1215.2"/>
		<line fill="none" stroke="#CCCCCC" stroke-width="0.25" stroke-miterlimit="10" x1="558.5" y1="1151.2" x2="558.5" y2="1215.2"/>
		<line fill="none" stroke="#CCCCCC" stroke-width="0.25" stroke-miterlimit="10" x1="535.9" y1="1151.2" x2="535.9" y2="1215.2"/>
		<line fill="none" stroke="#CCCCCC" stroke-width="0.25" stroke-miterlimit="10" x1="513.2" y1="1151.2" x2="513.2" y2="1215.2"/>
	</g>
</g>
</svg>
