<?xml version="1.0" encoding="utf-8"?>
<!-- Generator: Adobe Illustrator 19.1.0, SVG Export Plug-In . SVG Version: 6.00 Build 0)  -->
<svg version="1.1" xmlns="http://www.w3.org/2000/svg" xmlns:xlink="http://www.w3.org/1999/xlink" x="0px" y="0px"
	 viewBox="508.7 721.9 100 70" enable-background="new 508.7 721.9 100 70" xml:space="preserve">
<g id="Layer_1">
</g>
<g id="not_x5F_found">
</g>
<g id="line_charts">
</g>
<g id="area_charts">
</g>
<g id="Layer_6">
	<g>
		<g>
			<line fill="none" stroke="#CCCCCC" stroke-width="0.25" stroke-miterlimit="10" x1="513.7" y1="788.9" x2="513.7" y2="724.9"/>
			<line fill="none" stroke="#CCCCCC" stroke-width="0.25" stroke-miterlimit="10" x1="536.2" y1="788.9" x2="536.2" y2="724.9"/>
			<line fill="none" stroke="#CCCCCC" stroke-width="0.25" stroke-miterlimit="10" x1="558.7" y1="788.9" x2="558.7" y2="724.9"/>
			<line fill="none" stroke="#CCCCCC" stroke-width="0.25" stroke-miterlimit="10" x1="581.2" y1="788.9" x2="581.2" y2="724.9"/>
			<line fill="none" stroke="#CCCCCC" stroke-width="0.25" stroke-miterlimit="10" x1="603.7" y1="788.9" x2="603.7" y2="724.9"/>
		</g>
		<g>
			<g>
				<line fill="none" stroke="#434348" stroke-width="6" stroke-miterlimit="10" x1="513.7" y1="737.6" x2="558.3" y2="737.6"/>
				<line fill="none" stroke="#7CB5EC" stroke-width="6" stroke-miterlimit="10" x1="513.7" y1="729.9" x2="571.3" y2="729.9"/>
			</g>
			<g>
				<line fill="none" stroke="#434348" stroke-width="6" stroke-miterlimit="10" x1="513.7" y1="760.7" x2="581.3" y2="760.7"/>
				<line fill="none" stroke="#7CB5EC" stroke-width="6" stroke-miterlimit="10" x1="513.7" y1="753.1" x2="565.3" y2="753.1"/>
			</g>
			<g>
				<line fill="none" stroke="#434348" stroke-width="6" stroke-miterlimit="10" x1="513.7" y1="783.9" x2="591.3" y2="783.9"/>
				<line fill="none" stroke="#7CB5EC" stroke-width="6" stroke-miterlimit="10" x1="513.7" y1="776.2" x2="551.3" y2="776.2"/>
			</g>
			<g>
				<rect x="573.3" y="727.9" fill="#CCCCCC" width="5.4" height="4"/>
				<rect x="560.3" y="735.6" fill="#CCCCCC" width="5.4" height="4"/>
				<rect x="583.3" y="758.7" fill="#CCCCCC" width="5.4" height="4"/>
				<rect x="567.3" y="751.1" fill="#CCCCCC" width="5.4" height="4"/>
				<rect x="593.3" y="781.9" fill="#CCCCCC" width="5.4" height="4"/>
				<rect x="553.3" y="774.2" fill="#CCCCCC" width="5.4" height="4"/>
			</g>
		</g>
	</g>
</g>
<g id="column_charts">
</g>
</svg>
