<?xml version="1.0" encoding="utf-8"?>
<!-- Generator: Adobe Illustrator 19.1.0, SVG Export Plug-In . SVG Version: 6.00 Build 0)  -->
<svg version="1.1" xmlns="http://www.w3.org/2000/svg" xmlns:xlink="http://www.w3.org/1999/xlink" x="0px" y="0px"
	 viewBox="389.8 803.7 100 70" enable-background="new 389.8 803.7 100 70" xml:space="preserve">
<g id="Layer_1">
</g>
<g id="not_x5F_found">
</g>
<g id="line_charts">
</g>
<g id="area_charts">
</g>
<g id="Layer_6">
	<g>
		<g>
			<line fill="none" stroke="#CCCCCC" stroke-width="0.25" stroke-miterlimit="10" x1="394.8" y1="870.7" x2="394.8" y2="806.7"/>
			<line fill="none" stroke="#CCCCCC" stroke-width="0.25" stroke-miterlimit="10" x1="417.3" y1="870.7" x2="417.3" y2="806.7"/>
			<line fill="none" stroke="#CCCCCC" stroke-width="0.25" stroke-miterlimit="10" x1="439.8" y1="870.7" x2="439.8" y2="806.7"/>
			<line fill="none" stroke="#CCCCCC" stroke-width="0.25" stroke-miterlimit="10" x1="462.3" y1="870.7" x2="462.3" y2="806.7"/>
			<line fill="none" stroke="#CCCCCC" stroke-width="0.25" stroke-miterlimit="10" x1="484.8" y1="870.7" x2="484.8" y2="806.7"/>
		</g>
		<g>
			<line fill="none" stroke="#434348" stroke-width="12" stroke-miterlimit="10" x1="394.8" y1="815.4" x2="405.4" y2="815.4"/>
			<line fill="none" stroke="#434348" stroke-width="12" stroke-miterlimit="10" x1="394.8" y1="838.7" x2="423.4" y2="838.7"/>
			<line fill="none" stroke="#7CB5EC" stroke-width="12" stroke-miterlimit="10" x1="423.4" y1="838.7" x2="450" y2="838.7"/>
			<line fill="none" stroke="#7CB5EC" stroke-width="12" stroke-miterlimit="10" x1="405.4" y1="815.4" x2="417" y2="815.4"/>
			<line fill="none" stroke="#7CB5EC" stroke-width="12" stroke-miterlimit="10" x1="427.4" y1="861.8" x2="441" y2="861.8"/>
			<line fill="none" stroke="#434348" stroke-width="12" stroke-miterlimit="10" x1="394.8" y1="861.8" x2="427.4" y2="861.8"/>
		</g>
		<g>
			<rect x="409.1" y="813.4" fill="#CCCCCC" width="5.4" height="4"/>
			<rect x="397.4" y="813.4" fill="#CCCCCC" width="5.4" height="4"/>
			<rect x="434" y="836.7" fill="#CCCCCC" width="5.4" height="4"/>
			<rect x="406.4" y="836.7" fill="#CCCCCC" width="5.4" height="4"/>
			<rect x="431.5" y="859.8" fill="#CCCCCC" width="5.4" height="4"/>
			<rect x="409.1" y="859.8" fill="#CCCCCC" width="5.4" height="4"/>
		</g>
	</g>
</g>
<g id="column_charts">
</g>
</svg>
