<?xml version="1.0" encoding="utf-8"?>
<!-- Generator: Adobe Illustrator 19.1.0, SVG Export Plug-In . SVG Version: 6.00 Build 0)  -->
<svg version="1.1" xmlns="http://www.w3.org/2000/svg" xmlns:xlink="http://www.w3.org/1999/xlink" x="0px" y="0px"
	 viewBox="389.8 889.7 100 70" enable-background="new 389.8 889.7 100 70" xml:space="preserve">
<g id="Layer_1">
</g>
<g id="not_x5F_found">
</g>
<g id="line_charts">
</g>
<g id="area_charts">
</g>
<g id="Layer_6">
	<g>
		<g>
			<line fill="none" stroke="#CCCCCC" stroke-width="0.25" stroke-miterlimit="10" x1="394.8" y1="956.7" x2="394.8" y2="892.7"/>
			<line fill="none" stroke="#CCCCCC" stroke-width="0.25" stroke-miterlimit="10" x1="417.3" y1="956.7" x2="417.3" y2="892.7"/>
			<line fill="none" stroke="#CCCCCC" stroke-width="0.25" stroke-miterlimit="10" x1="439.8" y1="956.7" x2="439.8" y2="892.7"/>
			<line fill="none" stroke="#CCCCCC" stroke-width="0.25" stroke-miterlimit="10" x1="462.3" y1="956.7" x2="462.3" y2="892.7"/>
			<line fill="none" stroke="#CCCCCC" stroke-width="0.25" stroke-miterlimit="10" x1="484.8" y1="956.7" x2="484.8" y2="892.7"/>
		</g>
		<g>
			<line fill="none" stroke="#434348" stroke-width="12" stroke-miterlimit="10" x1="394.8" y1="901.4" x2="448.9" y2="901.4"/>
			<line fill="none" stroke="#434348" stroke-width="12" stroke-miterlimit="10" x1="394.8" y1="924.7" x2="431.5" y2="924.7"/>
			<line fill="none" stroke="#7CB5EC" stroke-width="12" stroke-miterlimit="10" x1="431.5" y1="924.7" x2="484.8" y2="924.7"/>
			<line fill="none" stroke="#7CB5EC" stroke-width="12" stroke-miterlimit="10" x1="448.9" y1="901.4" x2="484.8" y2="901.4"/>
			<line fill="none" stroke="#7CB5EC" stroke-width="12" stroke-miterlimit="10" x1="421.8" y1="947.8" x2="484.8" y2="947.8"/>
			<line fill="none" stroke="#434348" stroke-width="12" stroke-miterlimit="10" x1="394.8" y1="947.8" x2="421.8" y2="947.8"/>
		</g>
		<g>
			<rect x="464.2" y="899.4" fill="#CCCCCC" width="5.4" height="4"/>
			<rect x="418" y="899.4" fill="#CCCCCC" width="5.4" height="4"/>
			<rect x="456" y="922.7" fill="#CCCCCC" width="5.4" height="4"/>
			<rect x="410.4" y="922.7" fill="#CCCCCC" width="5.4" height="4"/>
			<rect x="448.9" y="945.8" fill="#CCCCCC" width="5.4" height="4"/>
			<rect x="406.4" y="945.8" fill="#CCCCCC" width="5.4" height="4"/>
		</g>
	</g>
</g>
<g id="column_charts">
</g>
</svg>
