<?xml version="1.0" encoding="utf-8"?>
<!-- Generator: Adobe Illustrator 19.1.0, SVG Export Plug-In . SVG Version: 6.00 Build 0)  -->
<svg version="1.1" xmlns="http://www.w3.org/2000/svg" xmlns:xlink="http://www.w3.org/1999/xlink" x="0px" y="0px"
	 viewBox="766 889.7 100 70" enable-background="new 766 889.7 100 70" xml:space="preserve">
<g id="Layer_1">
</g>
<g id="not_x5F_found">
</g>
<g id="line_charts">
</g>
<g id="area_charts">
</g>
<g id="column_charts">
	<g>
		<g>
			<line fill="none" stroke="#CCCCCC" stroke-width="0.25" stroke-miterlimit="10" x1="771" y1="892.9" x2="861" y2="892.9"/>
			<line fill="none" stroke="#CCCCCC" stroke-width="0.25" stroke-miterlimit="10" x1="771" y1="908.8" x2="861" y2="908.8"/>
			<line fill="none" stroke="#CCCCCC" stroke-width="0.25" stroke-miterlimit="10" x1="771" y1="924.7" x2="861" y2="924.7"/>
			<line fill="none" stroke="#CCCCCC" stroke-width="0.25" stroke-miterlimit="10" x1="771" y1="940.6" x2="861" y2="940.6"/>
			<line fill="none" stroke="#CCCCCC" stroke-width="0.25" stroke-miterlimit="10" x1="771" y1="956.4" x2="861" y2="956.4"/>
		</g>
		<line fill="none" stroke="#434348" stroke-width="12" stroke-miterlimit="10" x1="782.8" y1="956.4" x2="782.8" y2="927.8"/>
		<line fill="none" stroke="#434348" stroke-width="12" stroke-miterlimit="10" x1="816" y1="956.4" x2="816" y2="917.8"/>
		<line fill="none" stroke="#7CB5EC" stroke-width="12" stroke-miterlimit="10" x1="816" y1="917.8" x2="816" y2="892.9"/>
		<line fill="none" stroke="#7CB5EC" stroke-width="12" stroke-miterlimit="10" x1="782.8" y1="927.8" x2="782.8" y2="892.9"/>
		<line fill="none" stroke="#7CB5EC" stroke-width="12" stroke-miterlimit="10" x1="849.1" y1="911.8" x2="849.1" y2="892.9"/>
		<line fill="none" stroke="#434348" stroke-width="12" stroke-miterlimit="10" x1="849.1" y1="956.4" x2="849.1" y2="911.8"/>
		<g>
			<rect x="780.1" y="940.1" fill="#CCCCCC" width="5.4" height="4"/>
			<rect x="780.1" y="909.8" fill="#CCCCCC" width="5.4" height="4"/>
			<rect x="813.3" y="904.4" fill="#CCCCCC" width="5.4" height="4"/>
			<rect x="813.3" y="935.1" fill="#CCCCCC" width="5.4" height="4"/>
			<rect x="846.4" y="931.4" fill="#CCCCCC" width="5.4" height="4"/>
			<rect x="846.4" y="900.4" fill="#CCCCCC" width="5.4" height="4"/>
		</g>
	</g>
</g>
</svg>
