<?xml version="1.0" encoding="utf-8"?>
<!-- Generator: Adobe Illustrator 19.1.0, SVG Export Plug-In . SVG Version: 6.00 Build 0)  -->
<svg version="1.1" xmlns="http://www.w3.org/2000/svg" xmlns:xlink="http://www.w3.org/1999/xlink" x="0px" y="0px"
	 viewBox="638 1148.2 100 70" enable-background="new 638 1148.2 100 70" xml:space="preserve">
<g id="Layer_1">
</g>
<g id="not_x5F_found">
</g>
<g id="line_charts">
</g>
<g id="area_charts">
</g>
<g id="column_charts">
	<g>
		<g>
			<line fill="none" stroke="#CCCCCC" stroke-width="0.25" stroke-miterlimit="10" x1="643" y1="1151.5" x2="733" y2="1151.5"/>
			<line fill="none" stroke="#CCCCCC" stroke-width="0.25" stroke-miterlimit="10" x1="643" y1="1167.4" x2="733" y2="1167.4"/>
			<line fill="none" stroke="#CCCCCC" stroke-width="0.25" stroke-miterlimit="10" x1="643" y1="1183.2" x2="733" y2="1183.2"/>
			<line fill="none" stroke="#CCCCCC" stroke-width="0.25" stroke-miterlimit="10" x1="643" y1="1199.1" x2="733" y2="1199.1"/>
			<line fill="none" stroke="#CCCCCC" stroke-width="0.25" stroke-miterlimit="10" x1="643" y1="1215" x2="733" y2="1215"/>
		</g>
		<line fill="none" stroke="#7CB5EC" stroke-width="6" stroke-miterlimit="10" x1="663.3" y1="1187.4" x2="663.3" y2="1160.7"/>
		<line fill="none" stroke="#7CB5EC" stroke-width="6" stroke-miterlimit="10" x1="651" y1="1195" x2="651" y2="1167.4"/>
		<line fill="none" stroke="#7CB5EC" stroke-width="6" stroke-miterlimit="10" x1="688" y1="1172.2" x2="688" y2="1181.2"/>
		<line fill="none" stroke="#7CB5EC" stroke-width="6" stroke-miterlimit="10" x1="700.3" y1="1164.9" x2="700.3" y2="1157.4"/>
		<line fill="none" stroke="#7CB5EC" stroke-width="6" stroke-miterlimit="10" x1="675.7" y1="1185.9" x2="675.7" y2="1173.9"/>
		<line fill="none" stroke="#7CB5EC" stroke-width="6" stroke-miterlimit="10" x1="725" y1="1204.1" x2="725" y2="1192.5"/>
		<line fill="none" stroke="#7CB5EC" stroke-width="6" stroke-miterlimit="10" x1="712.7" y1="1180" x2="712.7" y2="1162.2"/>
		<rect x="648.3" y="1162.4" fill="#CCCCCC" width="5.4" height="4"/>
		<rect x="660.6" y="1155.7" fill="#CCCCCC" width="5.4" height="4"/>
		<rect x="710" y="1157.2" fill="#CCCCCC" width="5.4" height="4"/>
		<rect x="697.6" y="1152.4" fill="#CCCCCC" width="5.4" height="4"/>
		<rect x="722.3" y="1187.5" fill="#CCCCCC" width="5.4" height="4"/>
		<rect x="685.3" y="1167.2" fill="#CCCCCC" width="5.4" height="4"/>
		<rect x="722.3" y="1205.1" fill="#CCCCCC" width="5.4" height="4"/>
		<rect x="673" y="1168.9" fill="#CCCCCC" width="5.4" height="4"/>
		<rect x="648.3" y="1196" fill="#CCCCCC" width="5.4" height="4"/>
		<rect x="660.6" y="1188.4" fill="#CCCCCC" width="5.4" height="4"/>
		<rect x="685.3" y="1182.2" fill="#CCCCCC" width="5.4" height="4"/>
		<rect x="697.6" y="1165.9" fill="#CCCCCC" width="5.4" height="4"/>
		<rect x="673" y="1186.9" fill="#CCCCCC" width="5.4" height="4"/>
		<rect x="710" y="1181" fill="#CCCCCC" width="5.4" height="4"/>
	</g>
</g>
</svg>
