<?xml version="1.0" encoding="utf-8"?>
<!-- Generator: Adobe Illustrator 19.1.0, SVG Export Plug-In . SVG Version: 6.00 Build 0)  -->
<svg version="1.1" xmlns="http://www.w3.org/2000/svg" xmlns:xlink="http://www.w3.org/1999/xlink" x="0px" y="0px"
	 viewBox="766 721.9 100 70" enable-background="new 766 721.9 100 70" xml:space="preserve">
<g id="Layer_1">
</g>
<g id="not_x5F_found">
</g>
<g id="line_charts">
</g>
<g id="area_charts">
</g>
<g id="column_charts">
	<g>
		<g>
			<line fill="none" stroke="#CCCCCC" stroke-width="0.25" stroke-miterlimit="10" x1="771" y1="725.1" x2="861" y2="725.1"/>
			<line fill="none" stroke="#CCCCCC" stroke-width="0.25" stroke-miterlimit="10" x1="771" y1="741" x2="861" y2="741"/>
			<line fill="none" stroke="#CCCCCC" stroke-width="0.25" stroke-miterlimit="10" x1="771" y1="756.9" x2="861" y2="756.9"/>
			<line fill="none" stroke="#CCCCCC" stroke-width="0.25" stroke-miterlimit="10" x1="771" y1="772.8" x2="861" y2="772.8"/>
			<line fill="none" stroke="#CCCCCC" stroke-width="0.25" stroke-miterlimit="10" x1="771" y1="788.6" x2="861" y2="788.6"/>
		</g>
		<g>
			<line fill="none" stroke="#434348" stroke-width="6" stroke-miterlimit="10" x1="786.7" y1="788.6" x2="786.7" y2="774"/>
			<line fill="none" stroke="#7CB5EC" stroke-width="6" stroke-miterlimit="10" x1="779" y1="788.6" x2="779" y2="761"/>
		</g>
		<g>
			<line fill="none" stroke="#434348" stroke-width="6" stroke-miterlimit="10" x1="819.8" y1="788.6" x2="819.8" y2="751"/>
			<line fill="none" stroke="#7CB5EC" stroke-width="6" stroke-miterlimit="10" x1="812.2" y1="788.6" x2="812.2" y2="767"/>
		</g>
		<g>
			<line fill="none" stroke="#434348" stroke-width="6" stroke-miterlimit="10" x1="853" y1="788.6" x2="853" y2="741"/>
			<line fill="none" stroke="#7CB5EC" stroke-width="6" stroke-miterlimit="10" x1="845.3" y1="788.6" x2="845.3" y2="781"/>
		</g>
		<rect x="776.3" y="756.1" fill="#CCCCCC" width="5.4" height="4"/>
		<rect x="784" y="769" fill="#CCCCCC" width="5.4" height="4"/>
		<rect x="809.5" y="762" fill="#CCCCCC" width="5.4" height="4"/>
		<rect x="817.1" y="746" fill="#CCCCCC" width="5.4" height="4"/>
		<rect x="842.6" y="776" fill="#CCCCCC" width="5.4" height="4"/>
		<rect x="850.3" y="736" fill="#CCCCCC" width="5.4" height="4"/>
	</g>
</g>
</svg>
