<?xml version="1.0" encoding="utf-8"?>
<!-- Generator: Adobe Illustrator 19.1.0, SVG Export Plug-In . SVG Version: 6.00 Build 0)  -->
<svg version="1.1" xmlns="http://www.w3.org/2000/svg" xmlns:xlink="http://www.w3.org/1999/xlink" x="0px" y="0px"
	 viewBox="766 803.7 100 70" enable-background="new 766 803.7 100 70" xml:space="preserve">
<g id="Layer_1">
</g>
<g id="not_x5F_found">
</g>
<g id="line_charts">
</g>
<g id="area_charts">
</g>
<g id="column_charts">
	<g>
		<g>
			<line fill="none" stroke="#CCCCCC" stroke-width="0.25" stroke-miterlimit="10" x1="771" y1="806.9" x2="861" y2="806.9"/>
			<line fill="none" stroke="#CCCCCC" stroke-width="0.25" stroke-miterlimit="10" x1="771" y1="822.8" x2="861" y2="822.8"/>
			<line fill="none" stroke="#CCCCCC" stroke-width="0.25" stroke-miterlimit="10" x1="771" y1="838.7" x2="861" y2="838.7"/>
			<line fill="none" stroke="#CCCCCC" stroke-width="0.25" stroke-miterlimit="10" x1="771" y1="854.6" x2="861" y2="854.6"/>
			<line fill="none" stroke="#CCCCCC" stroke-width="0.25" stroke-miterlimit="10" x1="771" y1="870.4" x2="861" y2="870.4"/>
		</g>
		<line fill="none" stroke="#434348" stroke-width="12" stroke-miterlimit="10" x1="782.8" y1="870.4" x2="782.8" y2="859.8"/>
		<line fill="none" stroke="#434348" stroke-width="12" stroke-miterlimit="10" x1="816" y1="870.4" x2="816" y2="841.8"/>
		<line fill="none" stroke="#7CB5EC" stroke-width="12" stroke-miterlimit="10" x1="816" y1="841.8" x2="816" y2="815.2"/>
		<line fill="none" stroke="#7CB5EC" stroke-width="12" stroke-miterlimit="10" x1="782.8" y1="859.8" x2="782.8" y2="848.2"/>
		<line fill="none" stroke="#7CB5EC" stroke-width="12" stroke-miterlimit="10" x1="849.1" y1="837.8" x2="849.1" y2="824.2"/>
		<line fill="none" stroke="#434348" stroke-width="12" stroke-miterlimit="10" x1="849.1" y1="870.4" x2="849.1" y2="837.8"/>
		<g>
			<rect x="780.1" y="863.9" fill="#CCCCCC" width="5.4" height="4"/>
			<rect x="780.1" y="852.1" fill="#CCCCCC" width="5.4" height="4"/>
			<rect x="813.3" y="826.5" fill="#CCCCCC" width="5.4" height="4"/>
			<rect x="813.3" y="854.6" fill="#CCCCCC" width="5.4" height="4"/>
			<rect x="846.4" y="852.6" fill="#CCCCCC" width="5.4" height="4"/>
			<rect x="846.4" y="829" fill="#CCCCCC" width="5.4" height="4"/>
		</g>
	</g>
</g>
</svg>
