<?xml version="1.0" encoding="utf-8"?>
<!-- Generator: Adobe Illustrator 19.1.0, SVG Export Plug-In . SVG Version: 6.00 Build 0)  -->
<svg version="1.2" baseProfile="tiny" id="Layer_1" xmlns="http://www.w3.org/2000/svg" xmlns:xlink="http://www.w3.org/1999/xlink"
	 x="0px" y="0px" viewBox="1650 721.9 100 70" xml:space="preserve">
<g>
	<line fill="none" stroke="#CCCCCC" stroke-width="0.25" stroke-miterlimit="10" x1="1655" y1="725.1" x2="1745" y2="725.1"/>
	<line fill="none" stroke="#CCCCCC" stroke-width="0.25" stroke-miterlimit="10" x1="1655" y1="741" x2="1745" y2="741"/>
	<line fill="none" stroke="#CCCCCC" stroke-width="0.25" stroke-miterlimit="10" x1="1655" y1="756.9" x2="1745" y2="756.9"/>
	<line fill="none" stroke="#CCCCCC" stroke-width="0.25" stroke-miterlimit="10" x1="1655" y1="772.8" x2="1745" y2="772.8"/>
	<line fill="none" stroke="#CCCCCC" stroke-width="0.25" stroke-miterlimit="10" x1="1655" y1="788.6" x2="1745" y2="788.6"/>
</g>
<polyline fill="none" stroke="#000000" stroke-miterlimit="10" points="1655,772.5 1675,744.4 1700,737.6 1725,759.6 1745,749.1 "/>
<circle fill="#FFFFFF" cx="1700" cy="737.6" r="3"/>
<circle fill="#FF4136" cx="1700" cy="737.6" r="2"/>
<circle fill="#FFFFFF" cx="1675" cy="744.5" r="3"/>
<circle fill="#FF4136" cx="1675" cy="744.5" r="2"/>
<circle fill="#FFFFFF" cx="1725" cy="759.4" r="3"/>
<circle fill="#FF4136" cx="1725" cy="759.4" r="2"/>
<circle fill="#FFFFFF" cx="1745" cy="749.1" r="3"/>
<circle fill="#FF4136" cx="1745" cy="749.1" r="2"/>
<circle fill="#FFFFFF" cx="1655" cy="772.5" r="3"/>
<circle fill="#FF4136" cx="1655" cy="772.5" r="2"/>
</svg>
