<?xml version="1.0" encoding="utf-8"?>
<!-- Generator: Adobe Illustrator 19.1.0, SVG Export Plug-In . SVG Version: 6.00 Build 0)  -->
<svg version="1.2" baseProfile="tiny" id="Layer_1" xmlns="http://www.w3.org/2000/svg" xmlns:xlink="http://www.w3.org/1999/xlink"
	 x="0px" y="0px" viewBox="1650 884.1 100 70" xml:space="preserve">
<g>
	<line fill="none" stroke="#CCCCCC" stroke-width="0.25" stroke-miterlimit="10" x1="1655" y1="887.4" x2="1745" y2="887.4"/>
	<line fill="none" stroke="#CCCCCC" stroke-width="0.25" stroke-miterlimit="10" x1="1655" y1="903.3" x2="1745" y2="903.3"/>
	<line fill="none" stroke="#CCCCCC" stroke-width="0.25" stroke-miterlimit="10" x1="1655" y1="919.1" x2="1745" y2="919.1"/>
	<line fill="none" stroke="#CCCCCC" stroke-width="0.25" stroke-miterlimit="10" x1="1655" y1="935" x2="1745" y2="935"/>
	<line fill="none" stroke="#CCCCCC" stroke-width="0.25" stroke-miterlimit="10" x1="1655" y1="950.9" x2="1745" y2="950.9"/>
</g>
<polyline fill="none" stroke="#000000" stroke-miterlimit="10" points="1655,934.8 1675,934.8 1675,906.6 1700,906.6 1700,899.9 
	1725,899.9 1725,921.9 1745,921.9 1745,911.4 "/>
<circle fill="#FFFFFF" cx="1700" cy="899.9" r="3"/>
<circle fill="#FF4136" cx="1700" cy="899.9" r="2"/>
<circle fill="#FFFFFF" cx="1675" cy="906.8" r="3"/>
<circle fill="#FF4136" cx="1675" cy="906.8" r="2"/>
<circle fill="#FFFFFF" cx="1725" cy="921.7" r="3"/>
<circle fill="#FF4136" cx="1725" cy="921.7" r="2"/>
<circle fill="#FFFFFF" cx="1745" cy="911.3" r="3"/>
<circle fill="#FF4136" cx="1745" cy="911.3" r="2"/>
<circle fill="#FFFFFF" cx="1655" cy="934.8" r="3"/>
<circle fill="#FF4136" cx="1655" cy="934.8" r="2"/>
</svg>
