<?xml version="1.0" encoding="utf-8"?>
<!-- Generator: Adobe Illustrator 19.1.0, SVG Export Plug-In . SVG Version: 6.00 Build 0)  -->
<svg version="1.2" baseProfile="tiny" xmlns="http://www.w3.org/2000/svg" xmlns:xlink="http://www.w3.org/1999/xlink" x="0px"
	 y="0px" viewBox="1509.5 721.9 100 70" xml:space="preserve">
<g id="Layer_1">
</g>
<g id="not_x5F_found">
</g>
<g id="line_charts">
	<path fill="#EEEEEE" d="M1540.4,723.9c-0.5,0-0.9,0.4-0.9,0.9v6.8c0,0.5,0.4,0.9,0.9,0.9h4c0.5,0,0.9-0.4,0.9-0.9v-6.8
		c0-0.5-0.4-0.9-0.9-0.9H1540.4z M1573.9,723.9c-0.5,0-0.9,0.4-0.9,0.9v6.8c0,0.5,0.4,0.9,0.9,0.9h4c0.5,0,0.9-0.4,0.9-0.9v-6.8
		c0-0.5-0.4-0.9-0.9-0.9H1573.9z M1531.1,727c-1,0-1.9,0.9-1.9,1.9v7.9c0,1,0.8,1.9,1.9,1.9h56.1c1,0,1.9-0.8,1.9-1.9v-7.9
		c0-1-0.8-1.9-1.9-1.9h-6.8v5.2c0,1-0.8,1.9-1.9,1.9h-5.1c-1,0-1.9-0.9-1.9-1.9V727h-24.6v5.2c0,1-0.8,1.9-1.9,1.9h-5.1
		c-1,0-1.9-0.9-1.9-1.9V727H1531.1z M1531.1,742.5c-1,0-1.9,0.8-1.9,1.9v37.4c0,1,0.8,1.9,1.9,1.9h35.8c-0.5-0.8-0.9-1.6-1.3-2.4
		h-32.2c-1,0-1.7-0.7-1.7-1.6v-33c0-0.9,0.7-1.6,1.7-1.6h51.5c1,0,1.7,0.7,1.7,1.6v9.8c0.8,0.2,1.6,0.5,2.4,0.8v-12.8
		c0-1-0.8-1.9-1.9-1.9H1531.1z M1581.8,757.7c-1.8,0-3.7,0.4-5.5,1.1c-8.3,3.2-12.5,12.5-9.3,20.8c3.2,8.3,12.5,12.5,20.8,9.3
		c8.3-3.2,12.5-12.5,9.3-20.8C1594.6,761.6,1588.4,757.7,1581.8,757.7z M1581.8,762.6C1581.8,762.6,1581.8,762.6,1581.8,762.6
		c0.7,0,1.2,0.5,1.2,1.1c0,0,0,0,0,0l0,9.9c0,0.3,0,0.6-0.2,0.9c0,0,0,0,0,0c0,0,0,0.1-0.1,0.1c0,0,0,0-0.1,0.1
		c-0.3,0.2-0.6,0.3-0.9,0.3h-10.1c-0.6,0-1.2-0.5-1.2-1.2s0.5-1.2,1.2-1.2h9.1v-8.9C1580.7,763.2,1581.2,762.6,1581.8,762.6z"/>
	<g>
		<line fill="none" stroke="#CCCCCC" stroke-width="0.25" stroke-miterlimit="10" x1="1514.5" y1="725.1" x2="1604.5" y2="725.1"/>
		<line fill="none" stroke="#CCCCCC" stroke-width="0.25" stroke-miterlimit="10" x1="1514.5" y1="741" x2="1604.5" y2="741"/>
		<line fill="none" stroke="#CCCCCC" stroke-width="0.25" stroke-miterlimit="10" x1="1514.5" y1="756.9" x2="1604.5" y2="756.9"/>
		<line fill="none" stroke="#CCCCCC" stroke-width="0.25" stroke-miterlimit="10" x1="1514.5" y1="772.8" x2="1604.5" y2="772.8"/>
		<line fill="none" stroke="#CCCCCC" stroke-width="0.25" stroke-miterlimit="10" x1="1514.5" y1="788.6" x2="1604.5" y2="788.6"/>
	</g>
	<polyline fill="none" stroke="#000000" stroke-miterlimit="10" points="1514.5,772.5 1534.5,744.4 1559.5,737.6 1584.5,759.6 
		1604.5,749.1 	"/>
</g>
</svg>
