<?xml version="1.0" encoding="utf-8"?>
<!-- Generator: Adobe Illustrator 19.1.0, SVG Export Plug-In . SVG Version: 6.00 Build 0)  -->
<svg version="1.2" baseProfile="tiny" id="Layer_1" xmlns="http://www.w3.org/2000/svg" xmlns:xlink="http://www.w3.org/1999/xlink"
	 x="0px" y="0px" viewBox="1911.5 641.6 100 70" xml:space="preserve">
<g>
	<line fill="none" stroke="#CCCCCC" stroke-width="0.25" stroke-miterlimit="10" x1="1916.5" y1="644.8" x2="2006.5" y2="644.8"/>
	<line fill="none" stroke="#CCCCCC" stroke-width="0.25" stroke-miterlimit="10" x1="1916.5" y1="660.7" x2="2006.5" y2="660.7"/>
	<line fill="none" stroke="#CCCCCC" stroke-width="0.25" stroke-miterlimit="10" x1="1916.5" y1="676.6" x2="2006.5" y2="676.6"/>
	<line fill="none" stroke="#CCCCCC" stroke-width="0.25" stroke-miterlimit="10" x1="1916.5" y1="692.4" x2="2006.5" y2="692.4"/>
	<line fill="none" stroke="#CCCCCC" stroke-width="0.25" stroke-miterlimit="10" x1="1916.5" y1="708.3" x2="2006.5" y2="708.3"/>
</g>
<g>
	<path fill="#CCCCCC" d="M1984.9,662.7c-4.2-7.1-21.7-18.4-31.9-11.9c0,0.1,0.1,0.1,0.1,0.1c-2.1-0.7-5.1-0.7-7.7,2.3
		c-4,4.9-0.9,8.2-0.9,8.2s1.4,1.7,0.1,2.8c-1.3,1.2-4.6,4.1-3.7,5.3c0.9,1.2,1.7-0.7,2.2-0.2c0.5,0.5-1.4,1.6-0.6,2.3
		c0.8,0.8,2.8-0.9,3.6,0.2c0.8,1.1-1.5,2.3-0.9,2.9c0.7,0.6,2.8-0.5,3.6,0.4c0.7,0.8-1.1,2.1-0.5,2.8c0.6,0.7,2.4-0.5,3.3,0.4
		c0.9,0.9-1.1,2.2-0.5,2.8c0.6,0.6,2-1.2,2.7-0.5c0.7,0.6-0.6,2.6,0.1,3.1c0.6,0.5,1.6-1,2.7-2.4c0.6-0.8,1.2-2,1.3-1.2
		c0.4,2.5,2.1,4.3,2.1,4.3c-2.4,2.9-3.7,10.9-6.2,11.6c-0.6,0.2-1.9-0.4-1.9-0.4c0.4-1.8,1.6-2.5,0.6-3.4c-1-0.9-1.7,0.8-2.5,0.3
		c-0.9-0.4,0.6-1.8-0.3-2.5c-0.9-0.7-1.9,1.4-2.7,1.2c-0.7-0.2-0.1-2.8-0.8-3.1c-0.7-0.4-1.4,2.1-2.1,1.8s0.6-2.5-0.3-3.1
		s-1.2,1.7-2.1,1.4c-0.9-0.3-0.5-2.4-1.3-2.4c-0.7,0.1-0.8,1.6-1.8,1.4c-1-0.2-0.6-1.7-1.4-1.8c-0.9-0.1-1.2,0.3-1.3,2.4
		c-0.1,2.1-2.1,2.6-2.1,5.4c0,2.8,3.9,3.2,7.6,4.6c3.7,1.3,11.2,6.6,13.5,6.4c2.3-0.2,4.9-9.3,5.5-11.2c0.7-1.9-0.5-2.7,2.2-2.5
		c0.4,0,0.7,0,0.9-0.2c4,2.3,11.4,4.4,18.8-3C1992.5,677.1,1989.8,671,1984.9,662.7z M1949.5,663.3c-0.6-0.1-1.2-0.4-1.7-0.7
		c-0.2-0.2-0.5-0.4-0.7-0.6c-0.5-0.4-1-0.8-1.5-1.4c-1.7-2.1-0.9-5.2,1.3-6.8c2.2-1.6,4.5-2.6,6.9,0.1c2,2.2,2.1,6.6-1.1,8.2
		c-0.1,0-1,0.7-1.5,1C1950.7,663.3,1950.1,663.4,1949.5,663.3z M1953.3,672.9c-1,0.1-0.1-2.2-1-1.3c-0.9,0.9-2-0.4-1-1
		c1-0.6-2.3-1.4,0.1-1.7c2.4-0.3,4.1-1,4.4-0.6C1956.1,668.7,1954.3,672.8,1953.3,672.9z M1970.4,677.9c-0.1,0.1-0.3,0.3-0.5,0.4
		c-0.3,0.4-0.7,0.8-1.1,1.1c-0.5,0.4-1.2,0.7-1.9,0.9c-0.7,0.2-1.4,0.2-2.1,0.1c-0.5-0.1-1.1-0.3-1.5-0.5c-0.9-0.2-1.8-0.6-2.6-1.4
		c-3-3-0.9-8.2,2.4-10c3.3-1.8,6.9,0.7,8.1,2.2C1972.5,672.3,1972.5,675.8,1970.4,677.9z"/>
	<path fill="#CCCCCC" d="M1965.3,678.1c-0.5,0-1-0.4-1-0.9c0-0.5,0.4-1,0.9-1c0.5,0,1,0.4,1,0.9
		C1966.2,677.7,1965.8,678.1,1965.3,678.1z"/>
	<path fill="#CCCCCC" d="M1949.3,655.1c0.5,0,1,0.4,1,0.9c0,0.5-0.4,1-0.9,1c-0.5,0-1-0.4-1-0.9
		C1948.4,655.6,1948.8,655.1,1949.3,655.1z"/>
</g>
</svg>
