<?xml version="1.0" encoding="utf-8"?>
<!-- Generator: Adobe Illustrator 19.1.0, SVG Export Plug-In . SVG Version: 6.00 Build 0)  -->
<svg version="1.2" baseProfile="tiny" id="Layer_1" xmlns="http://www.w3.org/2000/svg" xmlns:xlink="http://www.w3.org/1999/xlink"
	 x="0px" y="0px" viewBox="1767 721.9 100 70" xml:space="preserve">
<g>
	<line fill="none" stroke="#CCCCCC" stroke-width="0.25" stroke-miterlimit="10" x1="1772" y1="725.1" x2="1862" y2="725.1"/>
	<line fill="none" stroke="#CCCCCC" stroke-width="0.25" stroke-miterlimit="10" x1="1772" y1="741" x2="1862" y2="741"/>
	<line fill="none" stroke="#CCCCCC" stroke-width="0.25" stroke-miterlimit="10" x1="1772" y1="756.9" x2="1862" y2="756.9"/>
	<line fill="none" stroke="#CCCCCC" stroke-width="0.25" stroke-miterlimit="10" x1="1772" y1="772.8" x2="1862" y2="772.8"/>
	<line fill="none" stroke="#CCCCCC" stroke-width="0.25" stroke-miterlimit="10" x1="1772" y1="788.6" x2="1862" y2="788.6"/>
</g>
<path fill="none" stroke="#000000" stroke-miterlimit="10" d="M1772,772.5l17.9-25.2c1.3-1.9,3.3-3.2,5.5-3.8l16.4-4.4
	c3.2-0.9,6.7-0.1,9.2,2.1l15.8,13.9c3.1,2.7,7.6,3.3,11.2,1.3l13.9-7.3"/>
<circle fill="#FFFFFF" cx="1817" cy="738.6" r="3"/>
<circle fill="#FF4136" cx="1817" cy="738.6" r="2"/>
<circle fill="#FFFFFF" cx="1792" cy="744.5" r="3"/>
<circle fill="#FF4136" cx="1792" cy="744.5" r="2"/>
<circle fill="#FFFFFF" cx="1842" cy="757.4" r="3"/>
<circle fill="#FF4136" cx="1842" cy="757.4" r="2"/>
<circle fill="#FFFFFF" cx="1862" cy="749.1" r="3"/>
<circle fill="#FF4136" cx="1862" cy="749.1" r="2"/>
<circle fill="#FFFFFF" cx="1772" cy="772.5" r="3"/>
<circle fill="#FF4136" cx="1772" cy="772.5" r="2"/>
</svg>
